PT_Sans-Web-Regular-kernagic.ufo
<glyph name="exclam" format="1">
  <advance width="305"/>
  <unicode hex="0021"/>
  <outline>
    <contour>
      <point x="127" y="700" type="line"/>
      <point x="210" y="700" type="line"/>
      <point x="210" y="353" type="line"/>
      <point x="193" y="177" type="line"/>
      <point x="144" y="177" type="line"/>
      <point x="127" y="353" type="line"/>
    </contour>
    <contour>
      <point x="110" y="46" type="qcurve" smooth="yes"/>
      <point x="110" y="73"/>
      <point x="141" y="104"/>
      <point x="167" y="104" type="qcurve" smooth="yes"/>
      <point x="194" y="104"/>
      <point x="226" y="73"/>
      <point x="226" y="46" type="qcurve" smooth="yes"/>
      <point x="226" y="20"/>
      <point x="194" y="-12"/>
      <point x="167" y="-12" type="qcurve" smooth="yes"/>
      <point x="141" y="-12"/>
      <point x="110" y="20"/>
    </contour>
  </outline>
</glyph>
<glyph name="ampersand" format="1">
  <advance width="814"/>
  <unicode hex="0026"/>
  <outline>
    <contour>
      <point x="118" y="187" type="qcurve" smooth="yes"/>
      <point x="118" y="227"/>
      <point x="146" y="300"/>
      <point x="170.0" y="331.0" type="qcurve" smooth="yes" name="inserted"/>
      <point x="194" y="362"/>
      <point x="255" y="414"/>
      <point x="288" y="434" type="qcurve"/>
      <point x="264" y="470"/>
      <point x="229" y="542"/>
      <point x="229" y="584" type="qcurve" smooth="yes"/>
      <point x="229" y="608"/>
      <point x="245" y="654"/>
      <point x="262.5" y="672.0" type="qcurve" smooth="yes" name="inserted"/>
      <point x="280" y="690"/>
      <point x="335" y="712"/>
      <point x="374" y="712" type="qcurve" smooth="yes"/>
      <point x="415" y="712"/>
      <point x="471" y="691"/>
      <point x="488.0" y="674.0" type="qcurve" smooth="yes" name="inserted"/>
      <point x="505" y="657"/>
      <point x="520" y="615"/>
      <point x="520" y="593" type="qcurve" smooth="yes"/>
      <point x="520" y="551"/>
      <point x="455" y="462"/>
      <point x="385" y="421" type="qcurve"/>
      <point x="401" y="392"/>
      <point x="444" y="331"/>
      <point x="468.0" y="301.0" type="qcurve" smooth="yes" name="inserted"/>
      <point x="492" y="271"/>
      <point x="542" y="212"/>
      <point x="567" y="187" type="qcurve"/>
      <point x="578" y="199"/>
      <point x="600" y="236"/>
      <point x="610.5" y="256.5" type="qcurve" smooth="yes" name="inserted"/>
      <point x="621" y="277"/>
      <point x="638" y="321"/>
      <point x="645" y="341" type="qcurve"/>
      <point x="707" y="312" type="line"/>
      <point x="701" y="295"/>
      <point x="679" y="248"/>
      <point x="665.5" y="223.5" type="qcurve" smooth="yes" name="inserted"/>
      <point x="652" y="199"/>
      <point x="624" y="154"/>
      <point x="612" y="139" type="qcurve"/>
      <point x="633" y="119"/>
      <point x="667" y="90"/>
      <point x="681.5" y="79.5" type="qcurve" smooth="yes" name="inserted"/>
      <point x="696" y="69"/>
      <point x="723" y="52"/>
      <point x="737" y="44" type="qcurve"/>
      <point x="687" y="-12" type="line"/>
      <point x="660.5" y="1.0" name="inserted"/>
      <point x="600.0" y="47.5"/>
      <point x="566" y="81" type="qcurve"/>
      <point x="548" y="63"/>
      <point x="505" y="30"/>
      <point x="478.0" y="17.0" type="qcurve" smooth="yes" name="inserted"/>
      <point x="451" y="4"/>
      <point x="386" y="-12"/>
      <point x="347" y="-12" type="qcurve" smooth="yes"/>
      <point x="300" y="-12"/>
      <point x="217" y="14"/>
      <point x="186.0" y="39.5" type="qcurve" smooth="yes" name="inserted"/>
      <point x="155" y="65"/>
      <point x="118" y="139"/>
    </contour>
    <contour>
      <point x="519" y="131" type="qcurve"/>
      <point x="490" y="160"/>
      <point x="434" y="228"/>
      <point x="408.5" y="262.0" type="qcurve" smooth="yes" name="inserted"/>
      <point x="383" y="296"/>
      <point x="340" y="359"/>
      <point x="325" y="383" type="qcurve"/>
      <point x="298" y="363"/>
      <point x="252" y="321"/>
      <point x="234.5" y="297.5" type="qcurve" smooth="yes" name="inserted"/>
      <point x="217" y="274"/>
      <point x="198" y="220"/>
      <point x="198" y="189" type="qcurve" smooth="yes"/>
      <point x="198" y="158"/>
      <point x="224" y="109"/>
      <point x="246.5" y="92.5" type="qcurve" smooth="yes" name="inserted"/>
      <point x="269" y="76"/>
      <point x="327" y="58"/>
      <point x="359" y="58" type="qcurve" smooth="yes"/>
      <point x="384" y="58"/>
      <point x="431" y="71"/>
      <point x="452.0" y="81.0" type="qcurve" smooth="yes" name="inserted"/>
      <point x="473" y="91"/>
      <point x="508" y="117"/>
    </contour>
    <contour>
      <point x="307" y="584" type="qcurve" smooth="yes"/>
      <point x="307" y="554"/>
      <point x="332" y="495"/>
      <point x="352" y="466" type="qcurve"/>
      <point x="405" y="500"/>
      <point x="446" y="556"/>
      <point x="446" y="577" type="qcurve" smooth="yes"/>
      <point x="446" y="609"/>
      <point x="415" y="649"/>
      <point x="377" y="649" type="qcurve" smooth="yes"/>
      <point x="341" y="649"/>
      <point x="307" y="613"/>
    </contour>
  </outline>
</glyph>
<glyph name="quotesingle" format="1">
  <advance width="218"/>
  <unicode hex="0027"/>
  <outline>
    <contour>
      <point x="90" y="700" type="line"/>
      <point x="168" y="700" type="line"/>
      <point x="137" y="507" type="line"/>
      <point x="90" y="507" type="line"/>
    </contour>
  </outline>
</glyph>
<glyph name="parenleft" format="1">
  <advance width="280"/>
  <unicode hex="0028"/>
  <outline>
    <contour>
      <point x="227" y="-220" type="line"/>
      <point x="181" y="-172"/>
      <point x="117" y="-57"/>
      <point x="97.5" y="3.5" type="qcurve" smooth="yes" name="inserted"/>
      <point x="78" y="64"/>
      <point x="60" y="187"/>
      <point x="60" y="243" type="qcurve" smooth="yes"/>
      <point x="60" y="298"/>
      <point x="78" y="420"/>
      <point x="98.0" y="481.5" type="qcurve" smooth="yes" name="inserted"/>
      <point x="118" y="543"/>
      <point x="183" y="661"/>
      <point x="230" y="712" type="qcurve"/>
      <point x="278" y="677" type="line"/>
      <point x="238" y="626"/>
      <point x="185" y="517"/>
      <point x="169.0" y="461.0" type="qcurve" smooth="yes" name="inserted"/>
      <point x="153" y="405"/>
      <point x="140" y="294"/>
      <point x="140" y="243" type="qcurve" smooth="yes"/>
      <point x="140" y="195"/>
      <point x="155" y="82"/>
      <point x="171.5" y="25.5" type="qcurve" smooth="yes" name="inserted"/>
      <point x="188" y="-31"/>
      <point x="241" y="-139"/>
      <point x="278" y="-183" type="qcurve"/>
    </contour>
  </outline>
</glyph>
<glyph name="parenright" format="1">
  <advance width="280"/>
  <unicode hex="0029"/>
  <outline>
    <contour>
      <point x="53" y="712" type="line"/>
      <point x="99" y="664"/>
      <point x="163" y="549"/>
      <point x="182.5" y="488.5" type="qcurve" smooth="yes" name="inserted"/>
      <point x="202" y="428"/>
      <point x="220" y="305"/>
      <point x="220" y="249" type="qcurve" smooth="yes"/>
      <point x="220" y="194"/>
      <point x="202" y="72"/>
      <point x="182.0" y="10.5" type="qcurve" smooth="yes" name="inserted"/>
      <point x="162" y="-51"/>
      <point x="97" y="-169"/>
      <point x="50" y="-220" type="qcurve"/>
      <point x="2" y="-185" type="line"/>
      <point x="42" y="-134"/>
      <point x="96" y="-24"/>
      <point x="111.5" y="32.0" type="qcurve" smooth="yes" name="inserted"/>
      <point x="127" y="88"/>
      <point x="140" y="198"/>
      <point x="140" y="249" type="qcurve" smooth="yes"/>
      <point x="140" y="297"/>
      <point x="124" y="409"/>
      <point x="107.5" y="466.0" type="qcurve" smooth="yes" name="inserted"/>
      <point x="91" y="523"/>
      <point x="39" y="631"/>
      <point x="2" y="675" type="qcurve"/>
    </contour>
  </outline>
</glyph>
<glyph name="plus" format="1">
  <advance width="505"/>
  <unicode hex="002B"/>
  <outline>
    <contour>
      <point x="40" y="374" type="line"/>
      <point x="216" y="374" type="line"/>
      <point x="216" y="555" type="line"/>
      <point x="288" y="555" type="line"/>
      <point x="288" y="374" type="line"/>
      <point x="464" y="374" type="line"/>
      <point x="464" y="302" type="line"/>
      <point x="288" y="302" type="line"/>
      <point x="288" y="122" type="line"/>
      <point x="216" y="122" type="line"/>
      <point x="216" y="302" type="line"/>
      <point x="40" y="302" type="line"/>
    </contour>
  </outline>
</glyph>
<glyph name="comma" format="1">
  <advance width="225"/>
  <unicode hex="002C"/>
  <outline>
    <contour>
      <point x="49" y="43" type="qcurve" smooth="yes"/>
      <point x="49" y="67"/>
      <point x="81" y="97"/>
      <point x="106" y="97" type="qcurve" smooth="yes"/>
      <point x="137" y="97"/>
      <point x="176" y="53"/>
      <point x="176" y="11" type="qcurve" smooth="yes"/>
      <point x="176" y="-25"/>
      <point x="156" y="-79"/>
      <point x="140.0" y="-98.5" type="qcurve" smooth="yes" name="inserted"/>
      <point x="124" y="-118"/>
      <point x="86" y="-143"/>
      <point x="67" y="-149" type="qcurve"/>
      <point x="42" y="-110" type="line"/>
      <point x="78" y="-96"/>
      <point x="113" y="-37"/>
      <point x="113" y="-7" type="qcurve"/>
      <point x="108.5" y="-8.5" name="inserted"/>
      <point x="100.0" y="-10.0"/>
      <point x="96" y="-10" type="qcurve" smooth="yes"/>
      <point x="76" y="-10"/>
      <point x="49" y="17"/>
    </contour>
  </outline>
</glyph>
<glyph name="period" format="1">
  <advance width="214"/>
  <unicode hex="002E"/>
  <outline>
    <contour>
      <point x="49" y="46" type="qcurve" smooth="yes"/>
      <point x="49" y="73"/>
      <point x="80" y="104"/>
      <point x="106" y="104" type="qcurve" smooth="yes"/>
      <point x="133" y="104"/>
      <point x="165" y="73"/>
      <point x="165" y="46" type="qcurve" smooth="yes"/>
      <point x="165" y="20"/>
      <point x="133" y="-12"/>
      <point x="106" y="-12" type="qcurve" smooth="yes"/>
      <point x="80" y="-12"/>
      <point x="49" y="20"/>
    </contour>
  </outline>
</glyph>
<glyph name="slash" format="1">
  <advance width="354"/>
  <unicode hex="002F"/>
  <outline>
    <contour>
      <point x="328" y="712" type="line"/>
      <point x="391" y="684" type="line"/>
      <point x="26" y="-140" type="line"/>
      <point x="-37" y="-112" type="line"/>
    </contour>
  </outline>
</glyph>
<glyph name="four" format="1">
  <advance width="545"/>
  <unicode hex="0034"/>
  <outline>
    <contour>
      <point x="524" y="215" type="line"/>
      <point x="406" y="215" type="line"/>
      <point x="406" y="0" type="line"/>
      <point x="328" y="0" type="line"/>
      <point x="328" y="215" type="line"/>
      <point x="20" y="215" type="line"/>
      <point x="20" y="248" type="line"/>
      <point x="352" y="711" type="line"/>
      <point x="406" y="711" type="line"/>
      <point x="406" y="285" type="line"/>
      <point x="524" y="285" type="line"/>
    </contour>
    <contour>
      <point x="328" y="503" type="line"/>
      <point x="338" y="585" type="line"/>
      <point x="335" y="585" type="line"/>
      <point x="300" y="517" type="line"/>
      <point x="159" y="326" type="line"/>
      <point x="111" y="277" type="line"/>
      <point x="181" y="285" type="line"/>
      <point x="328" y="285" type="line"/>
    </contour>
  </outline>
</glyph>
<glyph name="five" format="1">
  <advance width="545"/>
  <unicode hex="0035"/>
  <outline>
    <contour>
      <point x="213" y="58" type="qcurve" smooth="yes"/>
      <point x="282" y="58"/>
      <point x="372" y="138"/>
      <point x="372" y="214" type="qcurve" smooth="yes"/>
      <point x="372" y="287"/>
      <point x="283" y="359"/>
      <point x="205" y="359" type="qcurve"/>
      <point x="121" y="354" type="line"/>
      <point x="121" y="700" type="line"/>
      <point x="433" y="700" type="line"/>
      <point x="433" y="626" type="line"/>
      <point x="196" y="626" type="line"/>
      <point x="196" y="427" type="line"/>
      <point x="239" y="429" type="line"/>
      <point x="338" y="428"/>
      <point x="452" y="320"/>
      <point x="452" y="219" type="qcurve" smooth="yes"/>
      <point x="452" y="163"/>
      <point x="414" y="76"/>
      <point x="381.5" y="47.0" type="qcurve" smooth="yes" name="inserted"/>
      <point x="349" y="18"/>
      <point x="261" y="-12"/>
      <point x="211" y="-12" type="qcurve" smooth="yes"/>
      <point x="166" y="-12"/>
      <point x="104" y="-2"/>
      <point x="77" y="8" type="qcurve"/>
      <point x="98" y="76" type="line"/>
      <point x="121" y="67"/>
      <point x="174" y="58"/>
    </contour>
  </outline>
</glyph>
<glyph name="six" format="1">
  <advance width="545"/>
  <unicode hex="0036"/>
  <outline>
    <contour>
      <point x="492" y="211" type="qcurve" smooth="yes"/>
      <point x="492" y="165"/>
      <point x="464" y="84"/>
      <point x="437.0" y="53.5" type="qcurve" smooth="yes" name="inserted"/>
      <point x="410" y="23"/>
      <point x="330" y="-12"/>
      <point x="279" y="-12" type="qcurve" smooth="yes"/>
      <point x="229" y="-12"/>
      <point x="149" y="20"/>
      <point x="120.0" y="51.5" type="qcurve" smooth="yes" name="inserted"/>
      <point x="91" y="83"/>
      <point x="60" y="175"/>
      <point x="60" y="235" type="qcurve" smooth="yes"/>
      <point x="60" y="334"/>
      <point x="111" y="501"/>
      <point x="156.0" y="563.0" type="qcurve" smooth="yes" name="inserted"/>
      <point x="201" y="625"/>
      <point x="324" y="702"/>
      <point x="396" y="712" type="qcurve"/>
      <point x="413" y="648" type="line"/>
      <point x="357" y="638"/>
      <point x="265" y="582"/>
      <point x="230.5" y="541.0" type="qcurve" smooth="yes" name="inserted"/>
      <point x="196" y="500"/>
      <point x="152" y="398"/>
      <point x="144" y="344" type="qcurve"/>
      <point x="160" y="371"/>
      <point x="236" y="416"/>
      <point x="291" y="416" type="qcurve" smooth="yes"/>
      <point x="385" y="416"/>
      <point x="492" y="308"/>
    </contour>
    <contour>
      <point x="409" y="203" type="qcurve" smooth="yes"/>
      <point x="409" y="274"/>
      <point x="343" y="346"/>
      <point x="274" y="346" type="qcurve" smooth="yes"/>
      <point x="225" y="346"/>
      <point x="154" y="298"/>
      <point x="140" y="268" type="qcurve"/>
      <point x="138" y="254"/>
      <point x="138" y="236"/>
      <point x="138" y="225" type="qcurve" smooth="yes"/>
      <point x="138" y="194"/>
      <point x="155" y="134"/>
      <point x="173.0" y="110.5" type="qcurve" smooth="yes" name="inserted"/>
      <point x="191" y="87"/>
      <point x="244" y="58"/>
      <point x="280" y="58" type="qcurve" smooth="yes"/>
      <point x="309" y="58"/>
      <point x="356" y="80"/>
      <point x="373.0" y="99.0" type="qcurve" smooth="yes" name="inserted"/>
      <point x="390" y="118"/>
      <point x="409" y="172"/>
    </contour>
  </outline>
</glyph>
<glyph name="semicolon" format="1">
  <advance width="256"/>
  <unicode hex="003B"/>
  <outline>
    <contour>
      <point x="89" y="43" type="qcurve" smooth="yes"/>
      <point x="89" y="67"/>
      <point x="121" y="97"/>
      <point x="146" y="97" type="qcurve" smooth="yes"/>
      <point x="177" y="97"/>
      <point x="216" y="53"/>
      <point x="216" y="11" type="qcurve" smooth="yes"/>
      <point x="216" y="-25"/>
      <point x="196" y="-79"/>
      <point x="180.0" y="-98.5" type="qcurve" smooth="yes" name="inserted"/>
      <point x="164" y="-118"/>
      <point x="126" y="-143"/>
      <point x="107" y="-149" type="qcurve"/>
      <point x="82" y="-110" type="line"/>
      <point x="118" y="-96"/>
      <point x="153" y="-37"/>
      <point x="153" y="-7" type="qcurve"/>
      <point x="148.5" y="-8.5" name="inserted"/>
      <point x="140.0" y="-10.0"/>
      <point x="136" y="-10" type="qcurve" smooth="yes"/>
      <point x="116" y="-10"/>
      <point x="89" y="17"/>
    </contour>
    <contour>
      <point x="96" y="449" type="qcurve" smooth="yes"/>
      <point x="96" y="476"/>
      <point x="127" y="507"/>
      <point x="153" y="507" type="qcurve" smooth="yes"/>
      <point x="180" y="507"/>
      <point x="212" y="476"/>
      <point x="212" y="449" type="qcurve" smooth="yes"/>
      <point x="212" y="423"/>
      <point x="180" y="391"/>
      <point x="153" y="391" type="qcurve" smooth="yes"/>
      <point x="127" y="391"/>
      <point x="96" y="423"/>
    </contour>
  </outline>
</glyph>
<glyph name="equal" format="1">
  <advance width="505"/>
  <unicode hex="003D"/>
  <outline>
    <contour>
      <point x="40" y="457" type="line"/>
      <point x="464" y="457" type="line"/>
      <point x="464" y="385" type="line"/>
      <point x="40" y="385" type="line"/>
    </contour>
    <contour>
      <point x="40" y="291" type="line"/>
      <point x="464" y="291" type="line"/>
      <point x="464" y="219" type="line"/>
      <point x="40" y="219" type="line"/>
    </contour>
  </outline>
</glyph>
<glyph name="greater" format="1">
  <advance width="505"/>
  <unicode hex="003E"/>
  <outline>
    <contour>
      <point x="463" y="344" type="line"/>
      <point x="463" y="315" type="line"/>
      <point x="85" y="84" type="line"/>
      <point x="47" y="145" type="line"/>
      <point x="284" y="290" type="line"/>
      <point x="375" y="328" type="line"/>
      <point x="285" y="360" type="line"/>
      <point x="42" y="504" type="line"/>
      <point x="80" y="565" type="line"/>
    </contour>
  </outline>
</glyph>
<glyph name="question" format="1">
  <advance width="436"/>
  <unicode hex="003F"/>
  <outline>
    <contour>
      <point x="150" y="177" type="line"/>
      <point x="149" y="182"/>
      <point x="149" y="194"/>
      <point x="149" y="199" type="qcurve" smooth="yes"/>
      <point x="149" y="241"/>
      <point x="174" y="305"/>
      <point x="192.5" y="331.5" type="qcurve" smooth="yes" name="inserted"/>
      <point x="211" y="358"/>
      <point x="254" y="404"/>
      <point x="272.5" y="427.5" type="qcurve" smooth="yes" name="inserted"/>
      <point x="291" y="451"/>
      <point x="316" y="504"/>
      <point x="316" y="538" type="qcurve" smooth="yes"/>
      <point x="316" y="584"/>
      <point x="263" y="642"/>
      <point x="201" y="642" type="qcurve" smooth="yes"/>
      <point x="165" y="642"/>
      <point x="91" y="617"/>
      <point x="64" y="600" type="qcurve"/>
      <point x="37" y="662" type="line"/>
      <point x="75" y="685"/>
      <point x="159" y="712"/>
      <point x="221" y="712" type="qcurve" smooth="yes"/>
      <point x="265" y="712"/>
      <point x="332" y="687"/>
      <point x="354.5" y="665.0" type="qcurve" smooth="yes" name="inserted"/>
      <point x="377" y="643"/>
      <point x="399" y="583"/>
      <point x="399" y="549" type="qcurve" smooth="yes"/>
      <point x="399" y="504"/>
      <point x="372" y="437"/>
      <point x="351.5" y="409.5" type="qcurve" smooth="yes" name="inserted"/>
      <point x="331" y="382"/>
      <point x="284" y="334"/>
      <point x="263.5" y="307.5" type="qcurve" smooth="yes" name="inserted"/>
      <point x="243" y="281"/>
      <point x="216" y="219"/>
      <point x="216" y="177" type="qcurve"/>
    </contour>
    <contour>
      <point x="130" y="46" type="qcurve" smooth="yes"/>
      <point x="130" y="73"/>
      <point x="161" y="104"/>
      <point x="187" y="104" type="qcurve" smooth="yes"/>
      <point x="214" y="104"/>
      <point x="246" y="73"/>
      <point x="246" y="46" type="qcurve" smooth="yes"/>
      <point x="246" y="20"/>
      <point x="214" y="-12"/>
      <point x="187" y="-12" type="qcurve" smooth="yes"/>
      <point x="161" y="-12"/>
      <point x="130" y="20"/>
    </contour>
  </outline>
</glyph>
<glyph name="at" format="1">
  <advance width="1064"/>
  <unicode hex="0040"/>
  <outline>
    <contour>
      <point x="707" y="491" type="line"/>
      <point x="741" y="491" type="line"/>
      <point x="690" y="204" type="line" smooth="yes"/>
      <point x="685" y="178"/>
      <point x="680" y="137"/>
      <point x="680" y="121" type="qcurve" smooth="yes"/>
      <point x="680" y="96"/>
      <point x="697" y="73"/>
      <point x="718" y="73" type="qcurve" smooth="yes"/>
      <point x="752" y="73"/>
      <point x="819" y="109"/>
      <point x="845.0" y="142.0" type="qcurve" smooth="yes" name="inserted"/>
      <point x="871" y="175"/>
      <point x="904" y="268"/>
      <point x="904" y="326" type="qcurve" smooth="yes"/>
      <point x="904" y="403"/>
      <point x="852" y="521"/>
      <point x="805.0" y="561.5" type="qcurve" smooth="yes" name="inserted"/>
      <point x="758" y="602"/>
      <point x="628" y="644"/>
      <point x="550" y="644" type="qcurve" smooth="yes"/>
      <point x="469" y="644"/>
      <point x="326" y="584"/>
      <point x="273.5" y="531.0" type="qcurve" smooth="yes" name="inserted"/>
      <point x="221" y="478"/>
      <point x="160" y="330"/>
      <point x="160" y="243" type="qcurve" smooth="yes"/>
      <point x="160" y="154"/>
      <point x="215" y="14"/>
      <point x="266.0" y="-34.0" type="qcurve" smooth="yes" name="inserted"/>
      <point x="317" y="-82"/>
      <point x="459" y="-132"/>
      <point x="546" y="-132" type="qcurve" smooth="yes"/>
      <point x="575" y="-132"/>
      <point x="649" y="-119"/>
      <point x="679" y="-104" type="qcurve"/>
      <point x="699" y="-168" type="line"/>
      <point x="654" y="-187"/>
      <point x="578" y="-200"/>
      <point x="534" y="-200" type="qcurve" smooth="yes"/>
      <point x="441" y="-200"/>
      <point x="278" y="-144"/>
      <point x="217.5" y="-89.0" type="qcurve" smooth="yes" name="inserted"/>
      <point x="157" y="-34"/>
      <point x="87" y="129"/>
      <point x="87" y="236" type="qcurve" smooth="yes"/>
      <point x="87" y="345"/>
      <point x="162" y="521"/>
      <point x="226.0" y="583.0" type="qcurve" smooth="yes" name="inserted"/>
      <point x="290" y="645"/>
      <point x="460" y="712"/>
      <point x="555" y="712" type="qcurve" smooth="yes"/>
      <point x="645" y="712"/>
      <point x="799" y="659"/>
      <point x="855.5" y="609.5" type="qcurve" smooth="yes" name="inserted"/>
      <point x="912" y="560"/>
      <point x="977" y="417"/>
      <point x="977" y="326" type="qcurve" smooth="yes"/>
      <point x="977" y="262"/>
      <point x="933" y="145"/>
      <point x="895.5" y="101.0" type="qcurve" smooth="yes" name="inserted"/>
      <point x="858" y="57"/>
      <point x="758" y="4"/>
      <point x="702" y="4" type="qcurve" smooth="yes"/>
      <point x="660" y="4"/>
      <point x="610" y="40"/>
      <point x="610" y="89" type="qcurve" smooth="yes"/>
      <point x="610" y="98"/>
      <point x="612" y="119"/>
      <point x="614" y="131" type="qcurve"/>
      <point x="610" y="131" type="line"/>
      <point x="596" y="108"/>
      <point x="558" y="63"/>
      <point x="534.5" y="45.0" type="qcurve" smooth="yes" name="inserted"/>
      <point x="511" y="27"/>
      <point x="458" y="4"/>
      <point x="429" y="4" type="qcurve" smooth="yes"/>
      <point x="405" y="4"/>
      <point x="361" y="25"/>
      <point x="345.0" y="45.0" type="qcurve" smooth="yes" name="inserted"/>
      <point x="329" y="65"/>
      <point x="310" y="120"/>
      <point x="310" y="155" type="qcurve" smooth="yes"/>
      <point x="310" y="219"/>
      <point x="352" y="343"/>
      <point x="387.5" y="391.0" type="qcurve" smooth="yes" name="inserted"/>
      <point x="423" y="439"/>
      <point x="518" y="498"/>
      <point x="571" y="498" type="qcurve" smooth="yes"/>
      <point x="608" y="498"/>
      <point x="652" y="476"/>
      <point x="673" y="460" type="qcurve"/>
    </contour>
    <contour>
      <point x="650" y="393" type="line"/>
      <point x="633" y="413"/>
      <point x="599" y="428"/>
      <point x="573" y="428" type="qcurve" smooth="yes"/>
      <point x="534" y="428"/>
      <point x="466" y="381"/>
      <point x="441.5" y="343.5" type="qcurve" smooth="yes" name="inserted"/>
      <point x="417" y="306"/>
      <point x="388" y="213"/>
      <point x="388" y="168" type="qcurve" smooth="yes"/>
      <point x="388" y="129"/>
      <point x="420" y="74"/>
      <point x="462" y="74" type="qcurve" smooth="yes"/>
      <point x="482" y="74"/>
      <point x="525" y="100"/>
      <point x="546.0" y="122.5" type="qcurve" smooth="yes" name="inserted"/>
      <point x="567" y="145"/>
      <point x="605" y="201"/>
      <point x="620" y="230" type="qcurve"/>
    </contour>
  </outline>
</glyph>
<glyph name="B" format="1">
  <advance width="584"/>
  <unicode hex="0042"/>
  <outline>
    <contour>
      <point x="507" y="540" type="qcurve" smooth="yes"/>
      <point x="507" y="515"/>
      <point x="491" y="463"/>
      <point x="475.0" y="440.5" type="qcurve" smooth="yes" name="inserted"/>
      <point x="459" y="418"/>
      <point x="409" y="384"/>
      <point x="375" y="375" type="qcurve"/>
      <point x="375" y="371" type="line"/>
      <point x="405" y="366"/>
      <point x="460" y="342"/>
      <point x="481.0" y="321.0" type="qcurve" smooth="yes" name="inserted"/>
      <point x="502" y="300"/>
      <point x="528" y="240"/>
      <point x="528" y="199" type="qcurve" smooth="yes"/>
      <point x="528" y="145"/>
      <point x="483" y="66"/>
      <point x="446.5" y="41.0" type="qcurve" smooth="yes" name="inserted"/>
      <point x="410" y="16"/>
      <point x="316" y="-8"/>
      <point x="267" y="-8" type="qcurve" smooth="yes"/>
      <point x="250" y="-8"/>
      <point x="204" y="-8"/>
      <point x="179.0" y="-6.5" type="qcurve" smooth="yes" name="inserted"/>
      <point x="154" y="-5"/>
      <point x="104" y="0"/>
      <point x="85" y="5" type="qcurve"/>
      <point x="85" y="694" type="line"/>
      <point x="122" y="700"/>
      <point x="220" y="708"/>
      <point x="278" y="708" type="qcurve" smooth="yes"/>
      <point x="317" y="708"/>
      <point x="398" y="695"/>
      <point x="431.0" y="676.5" type="qcurve" smooth="yes" name="inserted"/>
      <point x="464" y="658"/>
      <point x="507" y="592"/>
    </contour>
    <contour>
      <point x="275" y="64" type="qcurve" smooth="yes"/>
      <point x="307" y="64"/>
      <point x="367" y="79"/>
      <point x="390.0" y="95.5" type="qcurve" smooth="yes" name="inserted"/>
      <point x="413" y="112"/>
      <point x="440" y="160"/>
      <point x="440" y="193" type="qcurve" smooth="yes"/>
      <point x="440" y="234"/>
      <point x="407" y="284"/>
      <point x="380.5" y="298.0" type="qcurve" smooth="yes" name="inserted"/>
      <point x="354" y="312"/>
      <point x="288" y="322"/>
      <point x="255" y="322" type="qcurve" smooth="yes"/>
      <point x="168" y="322" type="line"/>
      <point x="168" y="71" type="line"/>
      <point x="175" y="69"/>
      <point x="201" y="67"/>
      <point x="216.0" y="66.0" type="qcurve" smooth="yes" name="inserted"/>
      <point x="231" y="65"/>
      <point x="263" y="64"/>
    </contour>
    <contour>
      <point x="220" y="392" type="line" smooth="yes"/>
      <point x="237" y="392"/>
      <point x="285" y="394"/>
      <point x="301" y="396" type="qcurve"/>
      <point x="325" y="404"/>
      <point x="367" y="427"/>
      <point x="383.5" y="442.5" type="qcurve" smooth="yes" name="inserted"/>
      <point x="400" y="458"/>
      <point x="419" y="499"/>
      <point x="419" y="523" type="qcurve" smooth="yes"/>
      <point x="419" y="556"/>
      <point x="394" y="599"/>
      <point x="373.0" y="612.0" type="qcurve" smooth="yes" name="inserted"/>
      <point x="352" y="625"/>
      <point x="298" y="636"/>
      <point x="270" y="636" type="qcurve" smooth="yes"/>
      <point x="237" y="636"/>
      <point x="182" y="633"/>
      <point x="168" y="630" type="qcurve"/>
      <point x="168" y="392" type="line"/>
    </contour>
  </outline>
</glyph>
<glyph name="C" format="1">
  <advance width="571"/>
  <unicode hex="0043"/>
  <outline>
    <contour>
      <point x="533" y="29" type="line"/>
      <point x="503" y="6"/>
      <point x="411" y="-12"/>
      <point x="359" y="-12" type="qcurve" smooth="yes"/>
      <point x="296" y="-12"/>
      <point x="186" y="31"/>
      <point x="145.0" y="75.0" type="qcurve" smooth="yes" name="inserted"/>
      <point x="104" y="119"/>
      <point x="56" y="256"/>
      <point x="56" y="350" type="qcurve" smooth="yes"/>
      <point x="56" y="448"/>
      <point x="109" y="585"/>
      <point x="152.5" y="628.5" type="qcurve" smooth="yes" name="inserted"/>
      <point x="196" y="672"/>
      <point x="304" y="712"/>
      <point x="360" y="712" type="qcurve" smooth="yes"/>
      <point x="420" y="712"/>
      <point x="496" y="699"/>
      <point x="523" y="688" type="qcurve"/>
      <point x="503" y="615" type="line"/>
      <point x="479.0" y="626.5" name="inserted"/>
      <point x="410.5" y="638.0"/>
      <point x="366" y="638" type="qcurve" smooth="yes"/>
      <point x="325" y="638"/>
      <point x="245" y="608"/>
      <point x="213.5" y="574.0" type="qcurve" smooth="yes" name="inserted"/>
      <point x="182" y="540"/>
      <point x="144" y="430"/>
      <point x="144" y="350" type="qcurve" smooth="yes"/>
      <point x="144" y="278"/>
      <point x="180" y="170"/>
      <point x="211.5" y="134.0" type="qcurve" smooth="yes" name="inserted"/>
      <point x="243" y="98"/>
      <point x="328" y="62"/>
      <point x="378" y="62" type="qcurve" smooth="yes"/>
      <point x="423" y="62"/>
      <point x="490" y="80"/>
      <point x="513" y="94" type="qcurve"/>
    </contour>
  </outline>
</glyph>
<glyph name="E" format="1">
  <advance width="536"/>
  <unicode hex="0045"/>
  <outline>
    <contour>
      <point x="85" y="700" type="line"/>
      <point x="466" y="700" type="line"/>
      <point x="466" y="626" type="line"/>
      <point x="168" y="626" type="line"/>
      <point x="168" y="397" type="line"/>
      <point x="441" y="397" type="line"/>
      <point x="441" y="323" type="line"/>
      <point x="168" y="323" type="line"/>
      <point x="168" y="74" type="line"/>
      <point x="471" y="74" type="line"/>
      <point x="471" y="0" type="line"/>
      <point x="85" y="0" type="line"/>
    </contour>
  </outline>
</glyph>
<glyph name="G" format="1">
  <advance width="612"/>
  <unicode hex="0047"/>
  <outline>
    <contour>
      <point x="321" y="349" type="line"/>
      <point x="556" y="349" type="line"/>
      <point x="556" y="41" type="line"/>
      <point x="540" y="29"/>
      <point x="495" y="9"/>
      <point x="469.5" y="2.0" type="qcurve" smooth="yes" name="inserted"/>
      <point x="444" y="-5"/>
      <point x="389" y="-12"/>
      <point x="363" y="-12" type="qcurve" smooth="yes"/>
      <point x="296" y="-12"/>
      <point x="184" y="31"/>
      <point x="143.0" y="75.5" type="qcurve" smooth="yes" name="inserted"/>
      <point x="102" y="120"/>
      <point x="56" y="257"/>
      <point x="56" y="350" type="qcurve" smooth="yes"/>
      <point x="56" y="447"/>
      <point x="112" y="585"/>
      <point x="157.0" y="628.5" type="qcurve" smooth="yes" name="inserted"/>
      <point x="202" y="672"/>
      <point x="314" y="712"/>
      <point x="370" y="712" type="qcurve" smooth="yes"/>
      <point x="430" y="712"/>
      <point x="508" y="699"/>
      <point x="535" y="688" type="qcurve"/>
      <point x="514" y="615" type="line"/>
      <point x="490.0" y="626.5" name="inserted"/>
      <point x="421.5" y="638.0"/>
      <point x="377" y="638" type="qcurve" smooth="yes"/>
      <point x="335" y="638"/>
      <point x="252" y="609"/>
      <point x="219.0" y="575.0" type="qcurve" smooth="yes" name="inserted"/>
      <point x="186" y="541"/>
      <point x="144" y="431"/>
      <point x="144" y="350" type="qcurve" smooth="yes"/>
      <point x="144" y="276"/>
      <point x="178" y="168"/>
      <point x="208.5" y="132.5" type="qcurve" smooth="yes" name="inserted"/>
      <point x="239" y="97"/>
      <point x="325" y="62"/>
      <point x="376" y="62" type="qcurve" smooth="yes"/>
      <point x="408.0" y="62.0" name="inserted"/>
      <point x="462.5" y="74.5"/>
      <point x="485" y="87" type="qcurve"/>
      <point x="485" y="282" type="line"/>
      <point x="321" y="302" type="line"/>
    </contour>
  </outline>
</glyph>
<glyph name="I" format="1">
  <advance width="291"/>
  <unicode hex="0049"/>
  <outline>
    <contour>
      <point x="104" y="700" type="line"/>
      <point x="187" y="700" type="line"/>
      <point x="187" y="0" type="line"/>
      <point x="104" y="0" type="line"/>
    </contour>
  </outline>
</glyph>
<glyph name="P" format="1">
  <advance width="559"/>
  <unicode hex="0050"/>
  <outline>
    <contour>
      <point x="85" y="693" type="line"/>
      <point x="123" y="702"/>
      <point x="211" y="708"/>
      <point x="254" y="708" type="qcurve" smooth="yes"/>
      <point x="300" y="708"/>
      <point x="395" y="690"/>
      <point x="434.0" y="666.0" type="qcurve" smooth="yes" name="inserted"/>
      <point x="473" y="642"/>
      <point x="522" y="558"/>
      <point x="522" y="493" type="qcurve" smooth="yes"/>
      <point x="522" y="429"/>
      <point x="476" y="341"/>
      <point x="438.0" y="313.5" type="qcurve" smooth="yes" name="inserted"/>
      <point x="400" y="286"/>
      <point x="302" y="262"/>
      <point x="250" y="262" type="qcurve" smooth="yes"/>
      <point x="245" y="262"/>
      <point x="222" y="262"/>
      <point x="209.5" y="262.5" type="qcurve" smooth="yes" name="inserted"/>
      <point x="197" y="263"/>
      <point x="173" y="265"/>
      <point x="168" y="266" type="qcurve"/>
      <point x="168" y="0" type="line"/>
      <point x="85" y="0" type="line"/>
    </contour>
    <contour>
      <point x="256" y="636" type="qcurve" smooth="yes"/>
      <point x="230" y="636"/>
      <point x="182" y="634"/>
      <point x="168" y="630" type="qcurve"/>
      <point x="168" y="340" type="line"/>
      <point x="173" y="338"/>
      <point x="195" y="337"/>
      <point x="207.0" y="336.5" type="qcurve" smooth="yes" name="inserted"/>
      <point x="219" y="336"/>
      <point x="241" y="336"/>
      <point x="246" y="336" type="qcurve" smooth="yes"/>
      <point x="280" y="336"/>
      <point x="347" y="349"/>
      <point x="374.0" y="366.0" type="qcurve" smooth="yes" name="inserted"/>
      <point x="401" y="383"/>
      <point x="434" y="445"/>
      <point x="434" y="493" type="qcurve" smooth="yes"/>
      <point x="434" y="534"/>
      <point x="403" y="589"/>
      <point x="377.5" y="605.5" type="qcurve" smooth="yes" name="inserted"/>
      <point x="352" y="622"/>
      <point x="288" y="636"/>
    </contour>
  </outline>
</glyph>
<glyph name="T" format="1">
  <advance width="555"/>
  <unicode hex="0054"/>
  <outline>
    <contour>
      <point x="537" y="626" type="line"/>
      <point x="319" y="626" type="line"/>
      <point x="319" y="0" type="line"/>
      <point x="236" y="0" type="line"/>
      <point x="236" y="626" type="line"/>
      <point x="18" y="626" type="line"/>
      <point x="18" y="700" type="line"/>
      <point x="537" y="700" type="line"/>
    </contour>
  </outline>
</glyph>
<glyph name="W" format="1">
  <advance width="828"/>
  <unicode hex="0057"/>
  <outline>
    <contour>
      <point x="222" y="231" type="line"/>
      <point x="238" y="115" type="line"/>
      <point x="239" y="115" type="line"/>
      <point x="256" y="233" type="line"/>
      <point x="400" y="700" type="line"/>
      <point x="440" y="700" type="line"/>
      <point x="585" y="231" type="line"/>
      <point x="602" y="115" type="line"/>
      <point x="603" y="115" type="line"/>
      <point x="621" y="233" type="line"/>
      <point x="739" y="700" type="line"/>
      <point x="820" y="700" type="line"/>
      <point x="625" y="-11" type="line"/>
      <point x="579" y="-11" type="line"/>
      <point x="437" y="458" type="line"/>
      <point x="419" y="564" type="line"/>
      <point x="414" y="564" type="line"/>
      <point x="396" y="457" type="line"/>
      <point x="254" y="-11" type="line"/>
      <point x="208" y="-11" type="line"/>
      <point x="8" y="700" type="line"/>
      <point x="96" y="700" type="line"/>
    </contour>
  </outline>
</glyph>
<glyph name="Y" format="1">
  <advance width="558"/>
  <unicode hex="0059"/>
  <outline>
    <contour>
      <point x="239" y="278" type="line"/>
      <point x="8" y="700" type="line"/>
      <point x="105" y="700" type="line"/>
      <point x="269" y="394" type="line"/>
      <point x="286" y="333" type="line"/>
      <point x="287" y="333" type="line"/>
      <point x="305" y="396" type="line"/>
      <point x="462" y="700" type="line"/>
      <point x="551" y="700" type="line"/>
      <point x="322" y="279" type="line"/>
      <point x="322" y="0" type="line"/>
      <point x="239" y="0" type="line"/>
    </contour>
  </outline>
</glyph>
<glyph name="bracketleft" format="1">
  <advance width="304"/>
  <unicode hex="005B"/>
  <outline>
    <contour>
      <point x="85" y="700" type="line"/>
      <point x="266" y="700" type="line"/>
      <point x="266" y="630" type="line"/>
      <point x="163" y="630" type="line"/>
      <point x="163" y="-160" type="line"/>
      <point x="266" y="-160" type="line"/>
      <point x="266" y="-230" type="line"/>
      <point x="85" y="-230" type="line"/>
    </contour>
  </outline>
</glyph>
<glyph name="backslash" format="1">
  <advance width="380"/>
  <unicode hex="005C"/>
  <outline>
    <contour>
      <point x="399" y="-111" type="line"/>
      <point x="333" y="-140" type="line"/>
      <point x="-37" y="684" type="line"/>
      <point x="30" y="712" type="line"/>
    </contour>
  </outline>
</glyph>
<glyph name="asciicircum" format="1">
  <advance width="500"/>
  <unicode hex="005E"/>
  <outline>
    <contour>
      <point x="234" y="711" type="line"/>
      <point x="263" y="711" type="line"/>
      <point x="432" y="435" type="line"/>
      <point x="350" y="435" type="line"/>
      <point x="270" y="570" type="line"/>
      <point x="247" y="639" type="line"/>
      <point x="216" y="569" type="line"/>
      <point x="124" y="435" type="line"/>
      <point x="48" y="435" type="line"/>
    </contour>
  </outline>
</glyph>
<glyph name="c" format="1">
  <advance width="451"/>
  <unicode hex="0063"/>
  <outline>
    <contour>
      <point x="418" y="33" type="line"/>
      <point x="388" y="11"/>
      <point x="306" y="-12"/>
      <point x="261" y="-12" type="qcurve" smooth="yes"/>
      <point x="203" y="-12"/>
      <point x="123" y="25"/>
      <point x="97.5" y="59.5" type="qcurve" smooth="yes" name="inserted"/>
      <point x="72" y="94"/>
      <point x="49" y="191"/>
      <point x="49" y="250" type="qcurve" smooth="yes"/>
      <point x="49" y="377"/>
      <point x="161" y="512"/>
      <point x="266" y="512" type="qcurve" smooth="yes"/>
      <point x="314" y="512"/>
      <point x="381" y="497"/>
      <point x="408" y="483" type="qcurve"/>
      <point x="385" y="414" type="line"/>
      <point x="362" y="427"/>
      <point x="306" y="442"/>
      <point x="274" y="442" type="qcurve" smooth="yes"/>
      <point x="203.0" y="442.0" name="inserted"/>
      <point x="132.0" y="346.0"/>
      <point x="132" y="250" type="qcurve" smooth="yes"/>
      <point x="132" y="212"/>
      <point x="147" y="143"/>
      <point x="164.5" y="116.5" type="qcurve" smooth="yes" name="inserted"/>
      <point x="182" y="90"/>
      <point x="239" y="58"/>
      <point x="281" y="58" type="qcurve" smooth="yes"/>
      <point x="317" y="58"/>
      <point x="374" y="80"/>
      <point x="392" y="94" type="qcurve"/>
    </contour>
  </outline>
</glyph>
<glyph name="e" format="1">
  <advance width="508"/>
  <unicode hex="0065"/>
  <outline>
    <contour>
      <point x="442" y="40" type="line"/>
      <point x="412" y="16"/>
      <point x="321" y="-12"/>
      <point x="270" y="-12" type="qcurve" smooth="yes"/>
      <point x="213" y="-12"/>
      <point x="129" y="25"/>
      <point x="102.0" y="59.5" type="qcurve" smooth="yes" name="inserted"/>
      <point x="75" y="94"/>
      <point x="49" y="190"/>
      <point x="49" y="250" type="qcurve" smooth="yes"/>
      <point x="49" y="378"/>
      <point x="163" y="512"/>
      <point x="269" y="512" type="qcurve" smooth="yes"/>
      <point x="303" y="512"/>
      <point x="371" y="497"/>
      <point x="398.0" y="476.0" type="qcurve" smooth="yes" name="inserted"/>
      <point x="425" y="455"/>
      <point x="459" y="378"/>
      <point x="459" y="315" type="qcurve" smooth="yes"/>
      <point x="459.0" y="298.5" name="inserted"/>
      <point x="456.0" y="262.0"/>
      <point x="453" y="242" type="qcurve"/>
      <point x="132" y="242" type="line"/>
      <point x="132" y="198"/>
      <point x="150" y="130"/>
      <point x="169.0" y="106.5" type="qcurve" smooth="yes" name="inserted"/>
      <point x="188" y="83"/>
      <point x="249" y="58"/>
      <point x="293" y="58" type="qcurve" smooth="yes"/>
      <point x="327" y="58"/>
      <point x="395" y="82"/>
      <point x="412" y="98" type="qcurve"/>
    </contour>
    <contour>
      <point x="270" y="442" type="qcurve" smooth="yes"/>
      <point x="211" y="442"/>
      <point x="140" y="380"/>
      <point x="133" y="305" type="qcurve"/>
      <point x="381" y="305" type="line"/>
      <point x="381" y="381"/>
      <point x="323" y="442"/>
    </contour>
  </outline>
</glyph>
<glyph name="m" format="1">
  <advance width="812"/>
  <unicode hex="006D"/>
  <outline>
    <contour>
      <point x="370" y="0" type="line"/>
      <point x="370" y="283" type="line" smooth="yes"/>
      <point x="370" y="323"/>
      <point x="363" y="382"/>
      <point x="353.0" y="402.0" type="qcurve" smooth="yes" name="inserted"/>
      <point x="343" y="422"/>
      <point x="306" y="442"/>
      <point x="276" y="442" type="qcurve" smooth="yes"/>
      <point x="230" y="442"/>
      <point x="169" y="386"/>
      <point x="157" y="344" type="qcurve"/>
      <point x="157" y="0" type="line"/>
      <point x="77" y="0" type="line"/>
      <point x="77" y="500" type="line"/>
      <point x="133" y="500" type="line"/>
      <point x="148" y="439" type="line"/>
      <point x="152" y="439" type="line"/>
      <point x="179" y="471"/>
      <point x="250" y="512"/>
      <point x="307" y="512" type="qcurve" smooth="yes"/>
      <point x="355" y="512"/>
      <point x="416" y="475"/>
      <point x="433" y="429" type="qcurve"/>
      <point x="456" y="468"/>
      <point x="537" y="512"/>
      <point x="588" y="512" type="qcurve" smooth="yes"/>
      <point x="630" y="512"/>
      <point x="688" y="493"/>
      <point x="707.0" y="469.0" type="qcurve" smooth="yes" name="inserted"/>
      <point x="726" y="445"/>
      <point x="743" y="363"/>
      <point x="743" y="300" type="qcurve" smooth="yes"/>
      <point x="743" y="0" type="line"/>
      <point x="663" y="0" type="line"/>
      <point x="663" y="301" type="line" smooth="yes"/>
      <point x="663" y="337"/>
      <point x="656" y="390"/>
      <point x="645.5" y="407.5" type="qcurve" smooth="yes" name="inserted"/>
      <point x="635" y="425"/>
      <point x="598" y="442"/>
      <point x="568" y="442" type="qcurve" smooth="yes"/>
      <point x="518" y="442"/>
      <point x="462" y="386"/>
      <point x="450" y="334" type="qcurve"/>
      <point x="450" y="0" type="line"/>
    </contour>
  </outline>
</glyph>
<glyph name="o" format="1">
  <advance width="536"/>
  <unicode hex="006F"/>
  <outline>
    <contour>
      <point x="49" y="250" type="qcurve" smooth="yes"/>
      <point x="49" y="377"/>
      <point x="162" y="512"/>
      <point x="268" y="512" type="qcurve" smooth="yes"/>
      <point x="324" y="512"/>
      <point x="407" y="475"/>
      <point x="434.0" y="440.5" type="qcurve" smooth="yes" name="inserted"/>
      <point x="461" y="406"/>
      <point x="487" y="309"/>
      <point x="487" y="250" type="qcurve" smooth="yes"/>
      <point x="487" y="123"/>
      <point x="374" y="-12"/>
      <point x="268" y="-12" type="qcurve" smooth="yes"/>
      <point x="212" y="-12"/>
      <point x="129" y="25"/>
      <point x="102.0" y="59.5" type="qcurve" smooth="yes" name="inserted"/>
      <point x="75" y="94"/>
      <point x="49" y="191"/>
    </contour>
    <contour>
      <point x="132" y="250" type="qcurve" smooth="yes"/>
      <point x="132" y="212"/>
      <point x="147" y="142"/>
      <point x="163.0" y="116.0" type="qcurve" smooth="yes" name="inserted"/>
      <point x="179" y="90"/>
      <point x="231" y="58"/>
      <point x="268" y="58" type="qcurve" smooth="yes"/>
      <point x="336.0" y="57.5" name="inserted"/>
      <point x="404.0" y="153.5"/>
      <point x="404" y="250" type="qcurve" smooth="yes"/>
      <point x="404" y="289"/>
      <point x="389" y="359"/>
      <point x="373.0" y="385.0" type="qcurve" smooth="yes" name="inserted"/>
      <point x="357" y="411"/>
      <point x="305" y="442"/>
      <point x="268" y="442" type="qcurve" smooth="yes"/>
      <point x="200.0" y="442.5" name="inserted"/>
      <point x="132.0" y="346.5"/>
    </contour>
  </outline>
</glyph>
<glyph name="s" format="1">
  <advance width="421"/>
  <unicode hex="0073"/>
  <outline>
    <contour>
      <point x="297" y="136" type="qcurve" smooth="yes"/>
      <point x="297" y="166"/>
      <point x="261" y="200"/>
      <point x="234.5" y="211.5" type="qcurve" smooth="yes" name="inserted"/>
      <point x="208" y="223"/>
      <point x="145" y="244"/>
      <point x="118.5" y="260.5" type="qcurve" smooth="yes" name="inserted"/>
      <point x="92" y="277"/>
      <point x="56" y="329"/>
      <point x="56" y="373" type="qcurve" smooth="yes"/>
      <point x="56" y="445"/>
      <point x="138" y="512"/>
      <point x="211" y="512" type="qcurve" smooth="yes"/>
      <point x="265" y="512"/>
      <point x="338" y="493"/>
      <point x="365" y="480" type="qcurve"/>
      <point x="346" y="414" type="line"/>
      <point x="323" y="425"/>
      <point x="258" y="442"/>
      <point x="221" y="442" type="qcurve" smooth="yes"/>
      <point x="177" y="442"/>
      <point x="136" y="412"/>
      <point x="136" y="375" type="qcurve" smooth="yes"/>
      <point x="136" y="349"/>
      <point x="172" y="320"/>
      <point x="198.5" y="308.5" type="qcurve" smooth="yes" name="inserted"/>
      <point x="225" y="297"/>
      <point x="288" y="275"/>
      <point x="314.5" y="257.0" type="qcurve" smooth="yes" name="inserted"/>
      <point x="341" y="239"/>
      <point x="377" y="184"/>
      <point x="377" y="139" type="qcurve" smooth="yes"/>
      <point x="377" y="107"/>
      <point x="356" y="51"/>
      <point x="334.0" y="31.0" type="qcurve" smooth="yes" name="inserted"/>
      <point x="312" y="11"/>
      <point x="247" y="-12"/>
      <point x="203" y="-12" type="qcurve" smooth="yes"/>
      <point x="146" y="-12"/>
      <point x="66" y="10"/>
      <point x="39" y="25" type="qcurve"/>
      <point x="63" y="93" type="line"/>
      <point x="86" y="80"/>
      <point x="160" y="58"/>
      <point x="198" y="58" type="qcurve" smooth="yes"/>
      <point x="241" y="58"/>
      <point x="297" y="92"/>
    </contour>
  </outline>
</glyph>
<glyph name="t" format="1">
  <advance width="339"/>
  <unicode hex="0074"/>
  <outline>
    <contour>
      <point x="11" y="500" type="line"/>
      <point x="89" y="500" type="line"/>
      <point x="89" y="599" type="line"/>
      <point x="169" y="622" type="line"/>
      <point x="169" y="500" type="line"/>
      <point x="305" y="500" type="line"/>
      <point x="305" y="430" type="line"/>
      <point x="169" y="430" type="line"/>
      <point x="169" y="153" type="line" smooth="yes"/>
      <point x="169" y="101"/>
      <point x="195" y="58"/>
      <point x="226" y="58" type="qcurve" smooth="yes"/>
      <point x="252" y="58"/>
      <point x="288" y="69"/>
      <point x="310" y="78" type="qcurve"/>
      <point x="328" y="17" type="line"/>
      <point x="301" y="4"/>
      <point x="237" y="-12"/>
      <point x="200" y="-12" type="qcurve" smooth="yes"/>
      <point x="139" y="-12"/>
      <point x="89" y="57"/>
      <point x="89" y="138" type="qcurve" smooth="yes"/>
      <point x="89" y="430" type="line"/>
      <point x="11" y="430" type="line"/>
    </contour>
  </outline>
</glyph>
<glyph name="v" format="1">
  <advance width="482"/>
  <unicode hex="0076"/>
  <outline>
    <contour>
      <point x="221" y="207" type="line"/>
      <point x="249" y="112" type="line"/>
      <point x="250" y="112" type="line"/>
      <point x="275" y="209" type="line"/>
      <point x="387" y="500" type="line"/>
      <point x="473" y="500" type="line"/>
      <point x="260" y="-11" type="line"/>
      <point x="226" y="-11" type="line"/>
      <point x="9" y="500" type="line"/>
      <point x="101" y="500" type="line"/>
    </contour>
  </outline>
</glyph>
<glyph name="x" format="1">
  <advance width="515"/>
  <unicode hex="0078"/>
  <outline>
    <contour>
      <point x="208" y="256" type="line"/>
      <point x="40" y="500" type="line"/>
      <point x="138" y="500" type="line"/>
      <point x="233" y="362" type="line"/>
      <point x="261" y="305" type="line"/>
      <point x="290" y="362" type="line"/>
      <point x="387" y="500" type="line"/>
      <point x="477" y="500" type="line"/>
      <point x="308" y="260" type="line"/>
      <point x="487" y="0" type="line"/>
      <point x="392" y="0" type="line"/>
      <point x="286" y="152" type="line"/>
      <point x="256" y="212" type="line"/>
      <point x="225" y="152" type="line"/>
      <point x="117" y="0" type="line"/>
      <point x="28" y="0" type="line"/>
    </contour>
  </outline>
</glyph>
<glyph name="y" format="1">
  <advance width="466"/>
  <unicode hex="0079"/>
  <outline>
    <contour>
      <point x="224" y="176" type="line"/>
      <point x="252" y="80" type="line"/>
      <point x="257" y="80" type="line"/>
      <point x="279" y="177" type="line"/>
      <point x="376" y="500" type="line"/>
      <point x="457" y="500" type="line"/>
      <point x="309" y="51" type="line" smooth="yes"/>
      <point x="292" y="2"/>
      <point x="259" y="-90"/>
      <point x="239.0" y="-126.0" type="qcurve" smooth="yes" name="inserted"/>
      <point x="219" y="-162"/>
      <point x="169" y="-205"/>
      <point x="136" y="-205" type="qcurve" smooth="yes"/>
      <point x="118.0" y="-205.0" name="inserted"/>
      <point x="88.5" y="-200.0"/>
      <point x="77" y="-195" type="qcurve"/>
      <point x="91" y="-126" type="line"/>
      <point x="97.5" y="-128.5" name="inserted"/>
      <point x="110.0" y="-131.0"/>
      <point x="116" y="-131" type="qcurve" smooth="yes"/>
      <point x="144" y="-131"/>
      <point x="196" y="-72"/>
      <point x="213" y="0" type="qcurve"/>
      <point x="12" y="500" type="line"/>
      <point x="104" y="500" type="line"/>
    </contour>
  </outline>
</glyph>
<glyph name="z" format="1">
  <advance width="447"/>
  <unicode hex="007A"/>
  <outline>
    <contour>
      <point x="42" y="70" type="line"/>
      <point x="273" y="388" type="line"/>
      <point x="315" y="430" type="line"/>
      <point x="42" y="430" type="line"/>
      <point x="42" y="500" type="line"/>
      <point x="398" y="500" type="line"/>
      <point x="398" y="430" type="line"/>
      <point x="165" y="109" type="line"/>
      <point x="124" y="70" type="line"/>
      <point x="398" y="70" type="line"/>
      <point x="398" y="0" type="line"/>
      <point x="42" y="0" type="line"/>
    </contour>
  </outline>
</glyph>
<glyph name="braceright" format="1">
  <advance width="346"/>
  <unicode hex="007D"/>
  <outline>
    <contour>
      <point x="235" y="359" type="line" smooth="yes"/>
      <point x="235" y="308"/>
      <point x="277" y="271"/>
      <point x="315" y="271" type="qcurve"/>
      <point x="315" y="201" type="line"/>
      <point x="277" y="201"/>
      <point x="235" y="161"/>
      <point x="235" y="117" type="qcurve" smooth="yes"/>
      <point x="235" y="-125" type="line" smooth="yes"/>
      <point x="235" y="-172"/>
      <point x="188" y="-230"/>
      <point x="140" y="-230" type="qcurve" smooth="yes"/>
      <point x="55" y="-230" type="line"/>
      <point x="55" y="-160" type="line"/>
      <point x="105" y="-160" type="line" smooth="yes"/>
      <point x="132" y="-160"/>
      <point x="157" y="-133"/>
      <point x="157" y="-101" type="qcurve" smooth="yes"/>
      <point x="157" y="136" type="line" smooth="yes"/>
      <point x="157" y="180"/>
      <point x="198" y="226"/>
      <point x="226" y="231" type="qcurve"/>
      <point x="226" y="237" type="line"/>
      <point x="199" y="241"/>
      <point x="157" y="294"/>
      <point x="157" y="336" type="qcurve" smooth="yes"/>
      <point x="157" y="572" type="line" smooth="yes"/>
      <point x="157" y="603"/>
      <point x="133" y="631"/>
      <point x="105" y="631" type="qcurve" smooth="yes"/>
      <point x="55" y="631" type="line"/>
      <point x="55" y="701" type="line"/>
      <point x="141" y="701" type="line" smooth="yes"/>
      <point x="185" y="701"/>
      <point x="235" y="648"/>
      <point x="235" y="597" type="qcurve" smooth="yes"/>
    </contour>
  </outline>
</glyph>
<glyph name="asciitilde" format="1">
  <advance width="505"/>
  <unicode hex="007E"/>
  <outline>
    <contour>
      <point x="31" y="361" type="line"/>
      <point x="74" y="394"/>
      <point x="144" y="420"/>
      <point x="173" y="420" type="qcurve" smooth="yes"/>
      <point x="201" y="420"/>
      <point x="249" y="403"/>
      <point x="271.0" y="392.5" type="qcurve" smooth="yes" name="inserted"/>
      <point x="293" y="382"/>
      <point x="335" y="365"/>
      <point x="358" y="365" type="qcurve" smooth="yes"/>
      <point x="377" y="365"/>
      <point x="417" y="381"/>
      <point x="440" y="401" type="qcurve"/>
      <point x="474" y="340" type="line"/>
      <point x="436" y="314"/>
      <point x="375" y="293"/>
      <point x="350" y="293" type="qcurve" smooth="yes"/>
      <point x="323" y="293"/>
      <point x="278" y="310"/>
      <point x="257.5" y="320.5" type="qcurve" smooth="yes" name="inserted"/>
      <point x="237" y="331"/>
      <point x="196" y="348"/>
      <point x="172" y="348" type="qcurve" smooth="yes"/>
      <point x="149" y="348"/>
      <point x="97" y="327"/>
      <point x="65" y="301" type="qcurve"/>
    </contour>
  </outline>
</glyph>
<glyph name="exclamdown" format="1">
  <advance width="304"/>
  <unicode hex="00A1"/>
  <outline>
    <contour>
      <point x="176" y="-200" type="line"/>
      <point x="93" y="-200" type="line"/>
      <point x="93" y="147" type="line"/>
      <point x="110" y="323" type="line"/>
      <point x="159" y="323" type="line"/>
      <point x="176" y="147" type="line"/>
    </contour>
    <contour>
      <point x="77" y="453" type="qcurve" smooth="yes"/>
      <point x="77" y="480"/>
      <point x="108" y="511"/>
      <point x="134" y="511" type="qcurve" smooth="yes"/>
      <point x="161" y="511"/>
      <point x="193" y="480"/>
      <point x="193" y="453" type="qcurve" smooth="yes"/>
      <point x="193" y="427"/>
      <point x="161" y="395"/>
      <point x="134" y="395" type="qcurve" smooth="yes"/>
      <point x="108" y="395"/>
      <point x="77" y="427"/>
    </contour>
  </outline>
</glyph>
<glyph name="cent" format="1">
  <advance width="545"/>
  <unicode hex="00A2"/>
  <outline>
    <contour>
      <point x="461" y="33" type="line"/>
      <point x="437" y="16"/>
      <point x="376" y="-5"/>
      <point x="341" y="-9" type="qcurve"/>
      <point x="341" y="-100" type="line"/>
      <point x="270" y="-100" type="line"/>
      <point x="270" y="-10" type="line"/>
      <point x="220" y="-5"/>
      <point x="151" y="36"/>
      <point x="129.0" y="69.5" type="qcurve" smooth="yes" name="inserted"/>
      <point x="107" y="103"/>
      <point x="87" y="195"/>
      <point x="87" y="250" type="qcurve" smooth="yes"/>
      <point x="87" y="365"/>
      <point x="182" y="498"/>
      <point x="270" y="509" type="qcurve"/>
      <point x="270" y="600" type="line"/>
      <point x="341" y="600" type="line"/>
      <point x="341" y="511" type="line"/>
      <point x="376" y="509"/>
      <point x="430" y="494"/>
      <point x="452" y="483" type="qcurve"/>
      <point x="429" y="415" type="line"/>
      <point x="409" y="425"/>
      <point x="360" y="439"/>
      <point x="334" y="441" type="qcurve"/>
      <point x="334" y="58" type="line"/>
      <point x="366" y="60"/>
      <point x="418" y="81"/>
      <point x="435" y="94" type="qcurve"/>
    </contour>
    <contour>
      <point x="170" y="250" type="qcurve" smooth="yes"/>
      <point x="170" y="217"/>
      <point x="181" y="156"/>
      <point x="194.0" y="130.5" type="qcurve" smooth="yes" name="inserted"/>
      <point x="207" y="105"/>
      <point x="249" y="69"/>
      <point x="280" y="62" type="qcurve"/>
      <point x="280" y="439" type="line"/>
      <point x="225.0" y="428.5" name="inserted"/>
      <point x="170.0" y="334.0"/>
    </contour>
  </outline>
</glyph>
<glyph name="currency" format="1">
  <advance width="545"/>
  <unicode hex="00A4"/>
  <outline>
    <contour>
      <point x="70" y="596" type="line"/>
      <point x="148" y="519" type="line"/>
      <point x="169" y="484" type="line"/>
      <point x="190.0" y="500.5" name="inserted"/>
      <point x="241.5" y="517.0"/>
      <point x="272" y="517" type="qcurve" smooth="yes"/>
      <point x="301.5" y="517.0" name="inserted"/>
      <point x="353.0" y="500.5"/>
      <point x="375" y="484" type="qcurve"/>
      <point x="397" y="519" type="line"/>
      <point x="475" y="596" type="line"/>
      <point x="524" y="547" type="line"/>
      <point x="447" y="469" type="line"/>
      <point x="412" y="447" type="line"/>
      <point x="428.0" y="425.5" name="inserted"/>
      <point x="444.0" y="374.5"/>
      <point x="444" y="345" type="qcurve" smooth="yes"/>
      <point x="444.0" y="315.0" name="inserted"/>
      <point x="428.0" y="263.5"/>
      <point x="412" y="242" type="qcurve"/>
      <point x="447" y="221" type="line"/>
      <point x="524" y="143" type="line"/>
      <point x="475" y="95" type="line"/>
      <point x="397" y="172" type="line"/>
      <point x="376" y="205" type="line"/>
      <point x="354.5" y="189.5" name="inserted"/>
      <point x="302.5" y="174.0"/>
      <point x="272" y="174" type="qcurve" smooth="yes"/>
      <point x="241.0" y="174.0" name="inserted"/>
      <point x="189.5" y="189.5"/>
      <point x="169" y="205" type="qcurve"/>
      <point x="148" y="172" type="line"/>
      <point x="70" y="95" type="line"/>
      <point x="21" y="143" type="line"/>
      <point x="98" y="221" type="line"/>
      <point x="132" y="243" type="line"/>
      <point x="116.5" y="264.0" name="inserted"/>
      <point x="101.0" y="315.0"/>
      <point x="101" y="345" type="qcurve" smooth="yes"/>
      <point x="101" y="374"/>
      <point x="118" y="426"/>
      <point x="132" y="448" type="qcurve"/>
      <point x="98" y="469" type="line"/>
      <point x="21" y="547" type="line"/>
    </contour>
    <contour>
      <point x="170" y="345" type="qcurve" smooth="yes"/>
      <point x="170" y="300"/>
      <point x="227" y="240"/>
      <point x="272" y="240" type="qcurve" smooth="yes"/>
      <point x="317" y="240"/>
      <point x="375" y="300"/>
      <point x="375" y="345" type="qcurve" smooth="yes"/>
      <point x="375" y="390"/>
      <point x="317" y="451"/>
      <point x="272" y="451" type="qcurve" smooth="yes"/>
      <point x="227" y="451"/>
      <point x="170" y="390"/>
    </contour>
  </outline>
</glyph>
<glyph name="yen" format="1">
  <advance width="545"/>
  <unicode hex="00A5"/>
  <outline>
    <contour>
      <point x="111" y="328" type="line"/>
      <point x="205" y="328" type="line"/>
      <point x="2" y="700" type="line"/>
      <point x="99" y="700" type="line"/>
      <point x="263" y="394" type="line"/>
      <point x="280" y="333" type="line"/>
      <point x="281" y="333" type="line"/>
      <point x="299" y="396" type="line"/>
      <point x="456" y="700" type="line"/>
      <point x="545" y="700" type="line"/>
      <point x="342" y="328" type="line"/>
      <point x="438" y="328" type="line"/>
      <point x="438" y="268" type="line"/>
      <point x="316" y="268" type="line"/>
      <point x="316" y="197" type="line"/>
      <point x="438" y="197" type="line"/>
      <point x="438" y="137" type="line"/>
      <point x="316" y="137" type="line"/>
      <point x="316" y="0" type="line"/>
      <point x="233" y="0" type="line"/>
      <point x="233" y="137" type="line"/>
      <point x="111" y="137" type="line"/>
      <point x="111" y="197" type="line"/>
      <point x="233" y="197" type="line"/>
      <point x="233" y="268" type="line"/>
      <point x="111" y="268" type="line"/>
    </contour>
  </outline>
</glyph>
<glyph name="section" format="1">
  <advance width="497"/>
  <unicode hex="00A7"/>
  <outline>
    <contour>
      <point x="57" y="353" type="qcurve" smooth="yes"/>
      <point x="57" y="384"/>
      <point x="88" y="443"/>
      <point x="114" y="466" type="qcurve"/>
      <point x="155" y="480" type="line"/>
      <point x="129" y="496"/>
      <point x="94" y="545"/>
      <point x="94" y="586" type="qcurve" smooth="yes"/>
      <point x="94" y="642"/>
      <point x="177" y="712"/>
      <point x="251" y="712" type="qcurve" smooth="yes"/>
      <point x="305" y="712"/>
      <point x="380" y="694"/>
      <point x="407" y="681" type="qcurve"/>
      <point x="388" y="614" type="line"/>
      <point x="364" y="625"/>
      <point x="298" y="642"/>
      <point x="262" y="642" type="qcurve" smooth="yes"/>
      <point x="217" y="642"/>
      <point x="174" y="610"/>
      <point x="174" y="583" type="qcurve" smooth="yes"/>
      <point x="174" y="557"/>
      <point x="213" y="528"/>
      <point x="243.0" y="517.0" type="qcurve" smooth="yes" name="inserted"/>
      <point x="273" y="506"/>
      <point x="341" y="484"/>
      <point x="371.0" y="466.5" type="qcurve" smooth="yes" name="inserted"/>
      <point x="401" y="449"/>
      <point x="440" y="392"/>
      <point x="440" y="347" type="qcurve" smooth="yes"/>
      <point x="440" y="316"/>
      <point x="410" y="258"/>
      <point x="384" y="235" type="qcurve"/>
      <point x="339" y="221" type="line"/>
      <point x="366" y="205"/>
      <point x="403" y="155"/>
      <point x="403" y="114" type="qcurve" smooth="yes"/>
      <point x="403" y="83"/>
      <point x="379" y="36"/>
      <point x="357.5" y="20.0" type="qcurve" smooth="yes" name="inserted"/>
      <point x="336" y="4"/>
      <point x="278" y="-12"/>
      <point x="245" y="-12" type="qcurve" smooth="yes"/>
      <point x="189" y="-12"/>
      <point x="117" y="7"/>
      <point x="89" y="21" type="qcurve"/>
      <point x="109" y="86" type="line"/>
      <point x="132" y="75"/>
      <point x="197" y="58"/>
      <point x="235" y="58" type="qcurve" smooth="yes"/>
      <point x="277" y="58"/>
      <point x="323" y="85"/>
      <point x="323" y="117" type="qcurve" smooth="yes"/>
      <point x="323" y="143"/>
      <point x="284" y="173"/>
      <point x="254.0" y="184.0" type="qcurve" smooth="yes" name="inserted"/>
      <point x="224" y="195"/>
      <point x="156" y="217"/>
      <point x="126.0" y="234.5" type="qcurve" smooth="yes" name="inserted"/>
      <point x="96" y="252"/>
      <point x="57" y="308"/>
    </contour>
    <contour>
      <point x="360" y="345" type="qcurve" smooth="yes"/>
      <point x="360" y="370"/>
      <point x="334" y="402"/>
      <point x="312.5" y="413.5" type="qcurve" smooth="yes" name="inserted"/>
      <point x="291" y="425"/>
      <point x="237" y="442"/>
      <point x="210" y="452" type="qcurve"/>
      <point x="181" y="439"/>
      <point x="137" y="391"/>
      <point x="137" y="355" type="qcurve" smooth="yes"/>
      <point x="137" y="330"/>
      <point x="163" y="298"/>
      <point x="183.5" y="286.5" type="qcurve" smooth="yes" name="inserted"/>
      <point x="204" y="275"/>
      <point x="257" y="259"/>
      <point x="284" y="249" type="qcurve"/>
      <point x="298" y="255"/>
      <point x="325" y="275"/>
      <point x="336.0" y="287.5" type="qcurve" smooth="yes" name="inserted"/>
      <point x="347" y="300"/>
      <point x="360" y="329"/>
    </contour>
  </outline>
</glyph>
<glyph name="dieresis" format="1">
  <advance width="411"/>
  <unicode hex="00A8"/>
  <outline>
    <contour>
      <point x="60" y="653" type="qcurve" smooth="yes"/>
      <point x="60" y="676"/>
      <point x="87" y="704"/>
      <point x="109" y="704" type="qcurve" smooth="yes"/>
      <point x="131" y="704"/>
      <point x="158" y="676"/>
      <point x="158" y="653" type="qcurve" smooth="yes"/>
      <point x="158" y="632"/>
      <point x="131" y="604"/>
      <point x="109" y="604" type="qcurve" smooth="yes"/>
      <point x="87" y="604"/>
      <point x="60" y="632"/>
    </contour>
    <contour>
      <point x="252" y="653" type="qcurve" smooth="yes"/>
      <point x="252" y="676"/>
      <point x="279" y="704"/>
      <point x="301" y="704" type="qcurve" smooth="yes"/>
      <point x="324" y="704"/>
      <point x="351" y="676"/>
      <point x="351" y="653" type="qcurve" smooth="yes"/>
      <point x="351" y="632"/>
      <point x="324" y="604"/>
      <point x="301" y="604" type="qcurve" smooth="yes"/>
      <point x="279" y="604"/>
      <point x="252" y="632"/>
    </contour>
  </outline>
</glyph>
<glyph name="ordfeminine" format="1">
  <advance width="386"/>
  <unicode hex="00AA"/>
  <outline>
    <contour>
      <point x="68" y="677" type="line"/>
      <point x="93" y="690"/>
      <point x="175" y="708"/>
      <point x="225" y="708" type="qcurve" smooth="yes"/>
      <point x="287" y="708"/>
      <point x="333" y="656"/>
      <point x="333" y="607" type="qcurve" smooth="yes"/>
      <point x="333" y="569"/>
      <point x="330" y="499"/>
      <point x="330" y="467" type="qcurve" smooth="yes"/>
      <point x="330" y="443"/>
      <point x="333" y="399"/>
      <point x="338" y="380" type="qcurve"/>
      <point x="283" y="380" type="line"/>
      <point x="270" y="426" type="line"/>
      <point x="266" y="426" type="line"/>
      <point x="253" y="409"/>
      <point x="205" y="376"/>
      <point x="162" y="376" type="qcurve" smooth="yes"/>
      <point x="110" y="376"/>
      <point x="48" y="427"/>
      <point x="48" y="471" type="qcurve" smooth="yes"/>
      <point x="48" y="502"/>
      <point x="78" y="544"/>
      <point x="103.5" y="557.0" type="qcurve" smooth="yes" name="inserted"/>
      <point x="129" y="570"/>
      <point x="198" y="582"/>
      <point x="238" y="582" type="qcurve" smooth="yes"/>
      <point x="245" y="582"/>
      <point x="258" y="581"/>
      <point x="265" y="581" type="qcurve"/>
      <point x="266" y="587"/>
      <point x="266" y="598"/>
      <point x="266" y="603" type="qcurve" smooth="yes"/>
      <point x="266" y="630"/>
      <point x="242" y="652"/>
      <point x="208" y="652" type="qcurve" smooth="yes"/>
      <point x="168" y="652"/>
      <point x="102" y="637"/>
      <point x="83" y="627" type="qcurve"/>
    </contour>
    <contour>
      <point x="173" y="432" type="qcurve" smooth="yes"/>
      <point x="194" y="432"/>
      <point x="225" y="442"/>
      <point x="236.0" y="450.5" type="qcurve" smooth="yes" name="inserted"/>
      <point x="247" y="459"/>
      <point x="261" y="478"/>
      <point x="265" y="487" type="qcurve"/>
      <point x="265" y="529" type="line"/>
      <point x="254" y="530"/>
      <point x="234" y="530"/>
      <point x="223" y="530" type="qcurve" smooth="yes"/>
      <point x="202" y="530"/>
      <point x="164" y="526"/>
      <point x="149.5" y="520.0" type="qcurve" smooth="yes" name="inserted"/>
      <point x="135" y="514"/>
      <point x="118" y="493"/>
      <point x="118" y="476" type="qcurve" smooth="yes"/>
      <point x="118" y="456"/>
      <point x="147" y="432"/>
    </contour>
  </outline>
</glyph>
<glyph name="guillemotleft" format="1">
  <advance width="478"/>
  <unicode hex="00AB"/>
  <outline>
    <contour>
      <point x="222" y="259" type="line"/>
      <point x="380" y="487" type="line"/>
      <point x="433" y="445" type="line"/>
      <point x="336" y="301" type="line"/>
      <point x="288" y="260" type="line"/>
      <point x="336" y="224" type="line"/>
      <point x="439" y="83" type="line"/>
      <point x="387" y="40" type="line"/>
    </contour>
    <contour>
      <point x="39" y="259" type="line"/>
      <point x="199" y="489" type="line"/>
      <point x="253" y="446" type="line"/>
      <point x="155" y="301" type="line"/>
      <point x="107" y="260" type="line"/>
      <point x="155" y="224" type="line"/>
      <point x="259" y="82" type="line"/>
      <point x="205" y="38" type="line"/>
    </contour>
  </outline>
</glyph>
<glyph name="macron" format="1">
  <advance width="416"/>
  <unicode hex="00AF"/>
  <outline>
    <contour>
      <point x="60" y="643" type="line"/>
      <point x="356" y="643" type="line"/>
      <point x="356" y="581" type="line"/>
      <point x="60" y="581" type="line"/>
    </contour>
  </outline>
</glyph>
<glyph name="plusminus" format="1">
  <advance width="505"/>
  <unicode hex="00B1"/>
  <outline>
    <contour>
      <point x="40" y="493" type="line"/>
      <point x="216" y="493" type="line"/>
      <point x="216" y="674" type="line"/>
      <point x="288" y="674" type="line"/>
      <point x="288" y="493" type="line"/>
      <point x="464" y="493" type="line"/>
      <point x="464" y="421" type="line"/>
      <point x="288" y="421" type="line"/>
      <point x="288" y="301" type="line"/>
      <point x="216" y="301" type="line"/>
      <point x="216" y="421" type="line"/>
      <point x="40" y="421" type="line"/>
    </contour>
    <contour>
      <point x="40" y="250" type="line"/>
      <point x="464" y="250" type="line"/>
      <point x="464" y="178" type="line"/>
      <point x="40" y="178" type="line"/>
    </contour>
  </outline>
</glyph>
<glyph name="acute" format="1">
  <advance width="268"/>
  <unicode hex="00B4"/>
  <outline>
    <contour>
      <point x="119" y="720" type="line"/>
      <point x="208" y="720" type="line"/>
      <point x="208" y="699" type="line"/>
      <point x="107" y="571" type="line"/>
      <point x="60" y="571" type="line"/>
    </contour>
  </outline>
</glyph>
<glyph name="paragraph" format="1">
  <advance width="494"/>
  <unicode hex="00B6"/>
  <outline>
    <contour>
      <point x="341" y="700" type="line"/>
      <point x="409" y="700" type="line"/>
      <point x="409" y="-130" type="line"/>
      <point x="341" y="-130" type="line"/>
    </contour>
    <contour>
      <point x="185" y="310" type="line"/>
      <point x="153" y="310"/>
      <point x="99" y="343"/>
      <point x="79.5" y="370.5" type="qcurve" smooth="yes" name="inserted"/>
      <point x="60" y="398"/>
      <point x="37" y="469"/>
      <point x="37" y="506" type="qcurve" smooth="yes"/>
      <point x="37" y="543"/>
      <point x="60" y="613"/>
      <point x="82.0" y="640.0" type="qcurve" smooth="yes" name="inserted"/>
      <point x="104" y="667"/>
      <point x="168" y="700"/>
      <point x="208" y="700" type="qcurve" smooth="yes"/>
      <point x="253" y="700" type="line"/>
      <point x="253" y="-130" type="line"/>
      <point x="185" y="-130" type="line"/>
    </contour>
  </outline>
</glyph>
<glyph name="questiondown" format="1">
  <advance width="436"/>
  <unicode hex="00BF"/>
  <outline>
    <contour>
      <point x="286" y="323" type="line"/>
      <point x="287" y="318"/>
      <point x="287" y="306"/>
      <point x="287" y="301" type="qcurve" smooth="yes"/>
      <point x="287" y="259"/>
      <point x="262" y="195"/>
      <point x="243.5" y="168.5" type="qcurve" smooth="yes" name="inserted"/>
      <point x="225" y="142"/>
      <point x="182" y="96"/>
      <point x="163.5" y="72.5" type="qcurve" smooth="yes" name="inserted"/>
      <point x="145" y="49"/>
      <point x="120" y="-4"/>
      <point x="120" y="-38" type="qcurve" smooth="yes"/>
      <point x="120" y="-84"/>
      <point x="173" y="-142"/>
      <point x="235" y="-142" type="qcurve" smooth="yes"/>
      <point x="271" y="-142"/>
      <point x="345" y="-117"/>
      <point x="372" y="-100" type="qcurve"/>
      <point x="399" y="-162" type="line"/>
      <point x="361" y="-185"/>
      <point x="277" y="-212"/>
      <point x="215" y="-212" type="qcurve" smooth="yes"/>
      <point x="171" y="-212"/>
      <point x="104" y="-187"/>
      <point x="81.5" y="-165.0" type="qcurve" smooth="yes" name="inserted"/>
      <point x="59" y="-143"/>
      <point x="37" y="-84"/>
      <point x="37" y="-49" type="qcurve" smooth="yes"/>
      <point x="37" y="-4"/>
      <point x="64" y="63"/>
      <point x="84.5" y="90.5" type="qcurve" smooth="yes" name="inserted"/>
      <point x="105" y="118"/>
      <point x="152" y="166"/>
      <point x="172.5" y="192.5" type="qcurve" smooth="yes" name="inserted"/>
      <point x="193" y="219"/>
      <point x="220" y="281"/>
      <point x="220" y="323" type="qcurve"/>
    </contour>
    <contour>
      <point x="191" y="454" type="qcurve" smooth="yes"/>
      <point x="191" y="481"/>
      <point x="222" y="512"/>
      <point x="248" y="512" type="qcurve" smooth="yes"/>
      <point x="275" y="512"/>
      <point x="307" y="481"/>
      <point x="307" y="454" type="qcurve" smooth="yes"/>
      <point x="307" y="428"/>
      <point x="275" y="396"/>
      <point x="248" y="396" type="qcurve" smooth="yes"/>
      <point x="222" y="396"/>
      <point x="191" y="428"/>
    </contour>
  </outline>
</glyph>
<glyph name="Aring" format="1">
  <advance width="585"/>
  <unicode hex="00C5"/>
  <outline>
    <contour>
      <point x="188" y="768" type="qcurve" smooth="yes"/>
      <point x="188" y="805"/>
      <point x="238" y="853"/>
      <point x="293" y="853" type="qcurve" smooth="yes"/>
      <point x="343" y="853"/>
      <point x="399" y="810"/>
      <point x="399" y="768" type="qcurve" smooth="yes"/>
      <point x="399" y="736"/>
      <point x="359" y="693"/>
      <point x="320" y="687" type="qcurve"/>
      <point x="577" y="0" type="line"/>
      <point x="490" y="0" type="line"/>
      <point x="418" y="194" type="line"/>
      <point x="160" y="194" type="line"/>
      <point x="90" y="0" type="line"/>
      <point x="8" y="0" type="line"/>
      <point x="264" y="687" type="line"/>
      <point x="226" y="693"/>
      <point x="188" y="736"/>
    </contour>
    <contour>
      <point x="187" y="266" type="line"/>
      <point x="393" y="266" type="line"/>
      <point x="315" y="479" type="line"/>
      <point x="290" y="585" type="line"/>
      <point x="289" y="585" type="line"/>
      <point x="264" y="477" type="line"/>
    </contour>
    <contour>
      <point x="249" y="768" type="qcurve" smooth="yes"/>
      <point x="249" y="751"/>
      <point x="270" y="728"/>
      <point x="293" y="728" type="qcurve" smooth="yes"/>
      <point x="315" y="728"/>
      <point x="338" y="750"/>
      <point x="338" y="768" type="qcurve" smooth="yes"/>
      <point x="338" y="787"/>
      <point x="316" y="810"/>
      <point x="293" y="810" type="qcurve" smooth="yes"/>
      <point x="271" y="810"/>
      <point x="249" y="787"/>
    </contour>
  </outline>
</glyph>
<glyph name="AE" format="1">
  <advance width="846"/>
  <unicode hex="00C6"/>
  <outline>
    <contour>
      <point x="391" y="600" type="line"/>
      <point x="357" y="497" type="line"/>
      <point x="224" y="268" type="line"/>
      <point x="395" y="268" type="line"/>
      <point x="395" y="600" type="line"/>
    </contour>
    <contour>
      <point x="395" y="198" type="line"/>
      <point x="181" y="198" type="line"/>
      <point x="69" y="0" type="line"/>
      <point x="-22" y="0" type="line"/>
      <point x="393" y="700" type="line"/>
      <point x="776" y="700" type="line"/>
      <point x="776" y="626" type="line"/>
      <point x="478" y="626" type="line"/>
      <point x="478" y="397" type="line"/>
      <point x="751" y="397" type="line"/>
      <point x="751" y="323" type="line"/>
      <point x="478" y="323" type="line"/>
      <point x="478" y="74" type="line"/>
      <point x="781" y="74" type="line"/>
      <point x="781" y="0" type="line"/>
      <point x="395" y="0" type="line"/>
    </contour>
  </outline>
</glyph>
<glyph name="Eth" format="1">
  <advance width="658"/>
  <unicode hex="00D0"/>
  <outline>
    <contour>
      <point x="-1" y="392" type="line"/>
      <point x="89" y="392" type="line"/>
      <point x="89" y="700" type="line"/>
      <point x="108" y="703"/>
      <point x="155" y="706"/>
      <point x="180.5" y="706.5" type="qcurve" smooth="yes" name="inserted"/>
      <point x="206" y="707"/>
      <point x="255" y="708"/>
      <point x="276" y="708" type="qcurve" smooth="yes"/>
      <point x="360" y="708"/>
      <point x="483" y="656"/>
      <point x="523.0" y="609.5" type="qcurve" smooth="yes" name="inserted"/>
      <point x="563" y="563"/>
      <point x="602" y="433"/>
      <point x="602" y="355" type="qcurve" smooth="yes"/>
      <point x="602" y="284"/>
      <point x="565" y="153"/>
      <point x="525.0" y="102.5" type="qcurve" smooth="yes" name="inserted"/>
      <point x="485" y="52"/>
      <point x="357" y="-9"/>
      <point x="266" y="-9" type="qcurve" smooth="yes"/>
      <point x="250" y="-9"/>
      <point x="199" y="-8"/>
      <point x="172.0" y="-6.5" type="qcurve" smooth="yes" name="inserted"/>
      <point x="145" y="-5"/>
      <point x="99" y="-3"/>
      <point x="89" y="-1" type="qcurve"/>
      <point x="89" y="332" type="line"/>
      <point x="-1" y="332" type="line"/>
    </contour>
    <contour>
      <point x="278" y="634" type="qcurve" smooth="yes"/>
      <point x="265" y="634"/>
      <point x="234" y="634"/>
      <point x="219.0" y="633.0" type="qcurve" smooth="yes" name="inserted"/>
      <point x="204" y="632"/>
      <point x="179" y="630"/>
      <point x="172" y="629" type="qcurve"/>
      <point x="172" y="392" type="line"/>
      <point x="319" y="392" type="line"/>
      <point x="319" y="332" type="line"/>
      <point x="172" y="332" type="line"/>
      <point x="172" y="69" type="line"/>
      <point x="177" y="68"/>
      <point x="205" y="67"/>
      <point x="220.0" y="66.5" type="qcurve" smooth="yes" name="inserted"/>
      <point x="235" y="66"/>
      <point x="263" y="65"/>
      <point x="268" y="65" type="qcurve" smooth="yes"/>
      <point x="338" y="65"/>
      <point x="433" y="113"/>
      <point x="461.5" y="153.5" type="qcurve" smooth="yes" name="inserted"/>
      <point x="490" y="194"/>
      <point x="514" y="299"/>
      <point x="514" y="355" type="qcurve" smooth="yes"/>
      <point x="514" y="404"/>
      <point x="492" y="503"/>
      <point x="465.0" y="543.0" type="qcurve" smooth="yes" name="inserted"/>
      <point x="438" y="583"/>
      <point x="347" y="634"/>
    </contour>
  </outline>
</glyph>
<glyph name="Oslash" format="1">
  <advance width="684"/>
  <unicode hex="00D8"/>
  <outline>
    <contour>
      <point x="122" y="91" type="line"/>
      <point x="88" y="139"/>
      <point x="56" y="269"/>
      <point x="56" y="350" type="qcurve" smooth="yes"/>
      <point x="56" y="525"/>
      <point x="204" y="712"/>
      <point x="341" y="712" type="qcurve" smooth="yes"/>
      <point x="398" y="712"/>
      <point x="486" y="682"/>
      <point x="520" y="653" type="qcurve"/>
      <point x="562" y="713" type="line"/>
      <point x="614" y="678" type="line"/>
      <point x="563" y="606" type="line"/>
      <point x="596" y="558"/>
      <point x="628" y="429"/>
      <point x="628" y="350" type="qcurve" smooth="yes"/>
      <point x="628" y="175"/>
      <point x="479" y="-12"/>
      <point x="341" y="-12" type="qcurve" smooth="yes"/>
      <point x="287.5" y="-12.0" name="inserted"/>
      <point x="200.0" y="16.0"/>
      <point x="166" y="44" type="qcurve"/>
      <point x="127" y="-12" type="line"/>
      <point x="75" y="24" type="line"/>
    </contour>
    <contour>
      <point x="144" y="350" type="qcurve" smooth="yes"/>
      <point x="144" y="299"/>
      <point x="161" y="209"/>
      <point x="179" y="171" type="qcurve"/>
      <point x="469" y="582" type="line"/>
      <point x="446" y="608"/>
      <point x="383" y="638"/>
      <point x="341" y="638" type="qcurve" smooth="yes"/>
      <point x="249" y="638"/>
      <point x="144" y="497"/>
    </contour>
    <contour>
      <point x="540" y="350" type="qcurve" smooth="yes"/>
      <point x="540" y="398"/>
      <point x="523" y="488"/>
      <point x="506" y="525" type="qcurve"/>
      <point x="216" y="114" type="line"/>
      <point x="239" y="89"/>
      <point x="301" y="62"/>
      <point x="341" y="62" type="qcurve" smooth="yes"/>
      <point x="434" y="62"/>
      <point x="540" y="203"/>
    </contour>
  </outline>
</glyph>
<glyph name="Thorn" format="1">
  <advance width="559"/>
  <unicode hex="00DE"/>
  <outline>
    <contour>
      <point x="85" y="700" type="line"/>
      <point x="168" y="700" type="line"/>
      <point x="168" y="625" type="line"/>
      <point x="189.0" y="626.5" name="inserted"/>
      <point x="232.0" y="628.0"/>
      <point x="254" y="628" type="qcurve" smooth="yes"/>
      <point x="300" y="628"/>
      <point x="395" y="610"/>
      <point x="434.0" y="586.0" type="qcurve" smooth="yes" name="inserted"/>
      <point x="473" y="562"/>
      <point x="522" y="478"/>
      <point x="522" y="413" type="qcurve" smooth="yes"/>
      <point x="522" y="349"/>
      <point x="476" y="261"/>
      <point x="438.0" y="233.5" type="qcurve" smooth="yes" name="inserted"/>
      <point x="400" y="206"/>
      <point x="302" y="181"/>
      <point x="250" y="181" type="qcurve" smooth="yes"/>
      <point x="245" y="181"/>
      <point x="222" y="181"/>
      <point x="209.5" y="181.5" type="qcurve" smooth="yes" name="inserted"/>
      <point x="197" y="182"/>
      <point x="173" y="184"/>
      <point x="168" y="185" type="qcurve"/>
      <point x="168" y="0" type="line"/>
      <point x="85" y="0" type="line"/>
    </contour>
    <contour>
      <point x="256" y="556" type="qcurve" smooth="yes"/>
      <point x="230" y="556"/>
      <point x="182" y="554"/>
      <point x="168" y="550" type="qcurve"/>
      <point x="168" y="260" type="line"/>
      <point x="173" y="258"/>
      <point x="195" y="257"/>
      <point x="207.0" y="256.0" type="qcurve" smooth="yes" name="inserted"/>
      <point x="219" y="255"/>
      <point x="241" y="255"/>
      <point x="246" y="255" type="qcurve" smooth="yes"/>
      <point x="280" y="255"/>
      <point x="347" y="268"/>
      <point x="374.0" y="285.5" type="qcurve" smooth="yes" name="inserted"/>
      <point x="401" y="303"/>
      <point x="434" y="365"/>
      <point x="434" y="413" type="qcurve" smooth="yes"/>
      <point x="434" y="454"/>
      <point x="403" y="509"/>
      <point x="377.5" y="525.5" type="qcurve" smooth="yes" name="inserted"/>
      <point x="352" y="542"/>
      <point x="288" y="556"/>
    </contour>
  </outline>
</glyph>
<glyph name="germandbls" format="1">
  <advance width="592"/>
  <unicode hex="00DF"/>
  <outline>
    <contour>
      <point x="384" y="559" type="qcurve" smooth="yes"/>
      <point x="384" y="576"/>
      <point x="365" y="605"/>
      <point x="350.0" y="615.0" type="qcurve" smooth="yes" name="inserted"/>
      <point x="335" y="625"/>
      <point x="299" y="636"/>
      <point x="282" y="636" type="qcurve" smooth="yes"/>
      <point x="254" y="636"/>
      <point x="215" y="622"/>
      <point x="203.0" y="606.0" type="qcurve" smooth="yes" name="inserted"/>
      <point x="191" y="590"/>
      <point x="180" y="537"/>
      <point x="180" y="498" type="qcurve" smooth="yes"/>
      <point x="180" y="0" type="line"/>
      <point x="100" y="0" type="line"/>
      <point x="100" y="430" type="line"/>
      <point x="22" y="430" type="line"/>
      <point x="22" y="500" type="line"/>
      <point x="100" y="500" type="line"/>
      <point x="100" y="523" type="line" smooth="yes"/>
      <point x="100" y="620"/>
      <point x="195" y="706"/>
      <point x="279" y="706" type="qcurve" smooth="yes"/>
      <point x="320" y="706"/>
      <point x="388" y="685"/>
      <point x="412.5" y="665.5" type="qcurve" smooth="yes" name="inserted"/>
      <point x="437" y="646"/>
      <point x="464" y="593"/>
      <point x="464" y="560" type="qcurve" smooth="yes"/>
      <point x="464" y="522"/>
      <point x="426" y="476"/>
      <point x="403.5" y="458.0" type="qcurve" smooth="yes" name="inserted"/>
      <point x="381" y="440"/>
      <point x="343" y="406"/>
      <point x="343" y="381" type="qcurve" smooth="yes"/>
      <point x="343" y="359"/>
      <point x="373" y="333"/>
      <point x="396.0" y="323.0" type="qcurve" smooth="yes" name="inserted"/>
      <point x="419" y="313"/>
      <point x="471" y="292"/>
      <point x="494.0" y="275.0" type="qcurve" smooth="yes" name="inserted"/>
      <point x="517" y="258"/>
      <point x="547" y="203"/>
      <point x="547" y="159" type="qcurve" smooth="yes"/>
      <point x="547" y="127"/>
      <point x="523" y="66"/>
      <point x="500.5" y="42.0" type="qcurve" smooth="yes" name="inserted"/>
      <point x="478" y="18"/>
      <point x="410" y="-12"/>
      <point x="367" y="-12" type="qcurve" smooth="yes"/>
      <point x="344" y="-12"/>
      <point x="309" y="-9"/>
      <point x="294.5" y="-5.5" type="qcurve" smooth="yes" name="inserted"/>
      <point x="280" y="-2"/>
      <point x="254" y="8"/>
      <point x="241" y="16" type="qcurve"/>
      <point x="264" y="81" type="line"/>
      <point x="276" y="75"/>
      <point x="294" y="65"/>
      <point x="304.5" y="62.0" type="qcurve" smooth="yes" name="inserted"/>
      <point x="315" y="59"/>
      <point x="341" y="56"/>
      <point x="360" y="56" type="qcurve" smooth="yes"/>
      <point x="381" y="56"/>
      <point x="420" y="71"/>
      <point x="435.0" y="84.0" type="qcurve" smooth="yes" name="inserted"/>
      <point x="450" y="97"/>
      <point x="467" y="134"/>
      <point x="467" y="156" type="qcurve" smooth="yes"/>
      <point x="467" y="186"/>
      <point x="437" y="221"/>
      <point x="414.0" y="233.0" type="qcurve" smooth="yes" name="inserted"/>
      <point x="391" y="245"/>
      <point x="339" y="264"/>
      <point x="316.0" y="278.5" type="qcurve" smooth="yes" name="inserted"/>
      <point x="293" y="293"/>
      <point x="263" y="338"/>
      <point x="263" y="376" type="qcurve" smooth="yes"/>
      <point x="263" y="415"/>
      <point x="301" y="462"/>
      <point x="323.5" y="480.5" type="qcurve" smooth="yes" name="inserted"/>
      <point x="346" y="499"/>
      <point x="384" y="533"/>
    </contour>
  </outline>
</glyph>
<glyph name="ccedilla" format="1">
  <advance width="451"/>
  <unicode hex="00E7"/>
  <outline>
    <contour>
      <point x="418" y="33" type="line"/>
      <point x="393.5" y="15.5" name="inserted"/>
      <point x="333.0" y="-6.0"/>
      <point x="297" y="-10" type="qcurve"/>
      <point x="279" y="-43" type="line"/>
      <point x="321" y="-51"/>
      <point x="358" y="-87"/>
      <point x="358" y="-118" type="qcurve" smooth="yes"/>
      <point x="358" y="-157"/>
      <point x="294" y="-208"/>
      <point x="236" y="-208" type="qcurve" smooth="yes"/>
      <point x="225" y="-208"/>
      <point x="203" y="-206"/>
      <point x="191" y="-204" type="qcurve"/>
      <point x="200" y="-165" type="line"/>
      <point x="206" y="-166"/>
      <point x="216" y="-166"/>
      <point x="221" y="-166" type="qcurve" smooth="yes"/>
      <point x="243" y="-166"/>
      <point x="268" y="-158"/>
      <point x="274.5" y="-152.5" type="qcurve" smooth="yes" name="inserted"/>
      <point x="281" y="-147"/>
      <point x="284" y="-133"/>
      <point x="284" y="-127" type="qcurve" smooth="yes"/>
      <point x="284.0" y="-113.0" name="inserted"/>
      <point x="241.0" y="-94.5"/>
      <point x="198" y="-90" type="qcurve"/>
      <point x="240" y="-11" type="line"/>
      <point x="188" y="-8"/>
      <point x="116" y="32"/>
      <point x="93.0" y="66.0" type="qcurve" smooth="yes" name="inserted"/>
      <point x="70" y="100"/>
      <point x="49" y="193"/>
      <point x="49" y="250" type="qcurve" smooth="yes"/>
      <point x="49" y="377"/>
      <point x="161" y="512"/>
      <point x="266" y="512" type="qcurve" smooth="yes"/>
      <point x="314" y="512"/>
      <point x="381" y="497"/>
      <point x="408" y="483" type="qcurve"/>
      <point x="385" y="414" type="line"/>
      <point x="362" y="427"/>
      <point x="306" y="442"/>
      <point x="274" y="442" type="qcurve" smooth="yes"/>
      <point x="203.0" y="442.0" name="inserted"/>
      <point x="132.0" y="346.0"/>
      <point x="132" y="250" type="qcurve" smooth="yes"/>
      <point x="132" y="212"/>
      <point x="147" y="143"/>
      <point x="164.5" y="116.5" type="qcurve" smooth="yes" name="inserted"/>
      <point x="182" y="90"/>
      <point x="239" y="59"/>
      <point x="281" y="59" type="qcurve" smooth="yes"/>
      <point x="317" y="59"/>
      <point x="374" y="80"/>
      <point x="392" y="94" type="qcurve"/>
    </contour>
  </outline>
</glyph>
<glyph name="eth" format="1">
  <advance width="561"/>
  <unicode hex="00F0"/>
  <outline>
    <contour>
      <point x="220" y="596" type="line"/>
      <point x="277" y="627" type="line"/>
      <point x="258.0" y="638.5" name="inserted"/>
      <point x="220.0" y="654.5"/>
      <point x="201" y="659" type="qcurve"/>
      <point x="236" y="713" type="line"/>
      <point x="254" y="706"/>
      <point x="310" y="682"/>
      <point x="340" y="661" type="qcurve"/>
      <point x="408" y="698" type="line"/>
      <point x="434" y="653" type="line"/>
      <point x="384" y="626" type="line"/>
      <point x="408" y="603"/>
      <point x="452" y="542"/>
      <point x="469.0" y="501.5" type="qcurve" smooth="yes" name="inserted"/>
      <point x="486" y="461"/>
      <point x="506" y="359"/>
      <point x="506" y="295" type="qcurve" smooth="yes"/>
      <point x="506" y="214"/>
      <point x="470" y="98"/>
      <point x="439.5" y="60.5" type="qcurve" smooth="yes" name="inserted"/>
      <point x="409" y="23"/>
      <point x="328" y="-12"/>
      <point x="282" y="-12" type="qcurve" smooth="yes"/>
      <point x="221" y="-12"/>
      <point x="135" y="30"/>
      <point x="108.0" y="66.0" type="qcurve" smooth="yes" name="inserted"/>
      <point x="81" y="102"/>
      <point x="56" y="197"/>
      <point x="56" y="251" type="qcurve" smooth="yes"/>
      <point x="56" y="303"/>
      <point x="85" y="397"/>
      <point x="113.5" y="432.5" type="qcurve" smooth="yes" name="inserted"/>
      <point x="142" y="468"/>
      <point x="225" y="510"/>
      <point x="280" y="510" type="qcurve" smooth="yes"/>
      <point x="325" y="510"/>
      <point x="393" y="482"/>
      <point x="407" y="464" type="qcurve"/>
      <point x="396" y="501"/>
      <point x="352" y="567"/>
      <point x="323" y="593" type="qcurve"/>
      <point x="247" y="552" type="line"/>
    </contour>
    <contour>
      <point x="139" y="250" type="qcurve" smooth="yes"/>
      <point x="139" y="152"/>
      <point x="221" y="58"/>
      <point x="286" y="58" type="qcurve" smooth="yes"/>
      <point x="316" y="58"/>
      <point x="367" y="84"/>
      <point x="385.5" y="112.0" type="qcurve" smooth="yes" name="inserted"/>
      <point x="404" y="140"/>
      <point x="426" y="228"/>
      <point x="426" y="290" type="qcurve" smooth="yes"/>
      <point x="426" y="300"/>
      <point x="425" y="325"/>
      <point x="424.5" y="337.5" type="qcurve" smooth="yes" name="inserted"/>
      <point x="424" y="350"/>
      <point x="421" y="373"/>
      <point x="419" y="381" type="qcurve"/>
      <point x="411" y="395"/>
      <point x="382" y="417"/>
      <point x="364.5" y="424.5" type="qcurve" smooth="yes" name="inserted"/>
      <point x="347" y="432"/>
      <point x="307" y="440"/>
      <point x="288" y="440" type="qcurve" smooth="yes"/>
      <point x="249" y="440"/>
      <point x="192" y="410"/>
      <point x="174.0" y="384.5" type="qcurve" smooth="yes" name="inserted"/>
      <point x="156" y="359"/>
      <point x="139" y="290"/>
    </contour>
  </outline>
</glyph>
<glyph name="divide" format="1">
  <advance width="505"/>
  <unicode hex="00F7"/>
  <outline>
    <contour>
      <point x="40" y="374" type="line"/>
      <point x="464" y="374" type="line"/>
      <point x="464" y="302" type="line"/>
      <point x="40" y="302" type="line"/>
    </contour>
    <contour>
      <point x="194" y="525" type="qcurve" smooth="yes"/>
      <point x="194" y="552"/>
      <point x="225" y="583"/>
      <point x="251" y="583" type="qcurve" smooth="yes"/>
      <point x="278" y="583"/>
      <point x="310" y="552"/>
      <point x="310" y="525" type="qcurve" smooth="yes"/>
      <point x="310" y="499"/>
      <point x="278" y="467"/>
      <point x="251" y="467" type="qcurve" smooth="yes"/>
      <point x="225" y="467"/>
      <point x="194" y="499"/>
    </contour>
    <contour>
      <point x="194" y="150" type="qcurve" smooth="yes"/>
      <point x="194" y="177"/>
      <point x="225" y="208"/>
      <point x="251" y="208" type="qcurve" smooth="yes"/>
      <point x="278" y="208"/>
      <point x="310" y="177"/>
      <point x="310" y="150" type="qcurve" smooth="yes"/>
      <point x="310" y="124"/>
      <point x="278" y="92"/>
      <point x="251" y="92" type="qcurve" smooth="yes"/>
      <point x="225" y="92"/>
      <point x="194" y="124"/>
    </contour>
  </outline>
</glyph>
<glyph name="thorn" format="1">
  <advance width="541"/>
  <unicode hex="00FE"/>
  <outline>
    <contour>
      <point x="77" y="700" type="line"/>
      <point x="157" y="700" type="line"/>
      <point x="157" y="450" type="line"/>
      <point x="161" y="450" type="line"/>
      <point x="181" y="479"/>
      <point x="247" y="512"/>
      <point x="294" y="512" type="qcurve" smooth="yes"/>
      <point x="394" y="512"/>
      <point x="492" y="394"/>
      <point x="492" y="260" type="qcurve" smooth="yes"/>
      <point x="492" y="197"/>
      <point x="459" y="96"/>
      <point x="429.0" y="61.0" type="qcurve" smooth="yes" name="inserted"/>
      <point x="399" y="26"/>
      <point x="314" y="-12"/>
      <point x="262" y="-12" type="qcurve" smooth="yes"/>
      <point x="225" y="-12"/>
      <point x="182" y="-3"/>
      <point x="157" y="8" type="qcurve"/>
      <point x="157" y="-200" type="line"/>
      <point x="77" y="-200" type="line"/>
    </contour>
    <contour>
      <point x="279" y="442" type="qcurve" smooth="yes"/>
      <point x="230.0" y="442.5" name="inserted"/>
      <point x="169.0" y="389.0"/>
      <point x="157" y="335" type="qcurve"/>
      <point x="157" y="86" type="line"/>
      <point x="175" y="72"/>
      <point x="221" y="58"/>
      <point x="259" y="58" type="qcurve" smooth="yes"/>
      <point x="328" y="58"/>
      <point x="409" y="161"/>
      <point x="409" y="261" type="qcurve" smooth="yes"/>
      <point x="409" y="302"/>
      <point x="395" y="369"/>
      <point x="379.5" y="392.5" type="qcurve" smooth="yes" name="inserted"/>
      <point x="364" y="416"/>
      <point x="315" y="442"/>
    </contour>
  </outline>
</glyph>
<glyph name="aogonek" format="1">
  <advance width="496"/>
  <unicode hex="0105"/>
  <outline>
    <contour>
      <point x="69" y="463" type="line"/>
      <point x="107" y="486"/>
      <point x="208" y="508"/>
      <point x="263" y="508" type="qcurve" smooth="yes"/>
      <point x="315" y="508"/>
      <point x="378" y="480"/>
      <point x="394.5" y="457.5" type="qcurve" smooth="yes" name="inserted"/>
      <point x="411" y="435"/>
      <point x="422" y="381"/>
      <point x="422" y="354" type="qcurve" smooth="yes"/>
      <point x="422" y="294"/>
      <point x="416" y="180"/>
      <point x="416" y="129" type="qcurve" smooth="yes"/>
      <point x="416" y="92"/>
      <point x="422" y="26"/>
      <point x="430" y="-2" type="qcurve"/>
      <point x="407" y="-2" type="line"/>
      <point x="382" y="-18"/>
      <point x="354" y="-61"/>
      <point x="354" y="-87" type="qcurve" smooth="yes"/>
      <point x="354" y="-107"/>
      <point x="380" y="-138"/>
      <point x="405" y="-138" type="qcurve" smooth="yes"/>
      <point x="414.5" y="-138.0" name="inserted"/>
      <point x="434.5" y="-133.0"/>
      <point x="445" y="-128" type="qcurve"/>
      <point x="456" y="-171" type="line"/>
      <point x="441" y="-183"/>
      <point x="391" y="-195"/>
      <point x="370" y="-195" type="qcurve" smooth="yes"/>
      <point x="325" y="-195"/>
      <point x="271" y="-147"/>
      <point x="271" y="-106" type="qcurve" smooth="yes"/>
      <point x="271" y="-67"/>
      <point x="323" y="-10"/>
      <point x="368" y="7" type="qcurve"/>
      <point x="350" y="68" type="line"/>
      <point x="345" y="68" type="line"/>
      <point x="336" y="54"/>
      <point x="309" y="27"/>
      <point x="290.0" y="16.5" type="qcurve" smooth="yes" name="inserted"/>
      <point x="271" y="6"/>
      <point x="221" y="-8"/>
      <point x="189" y="-8" type="qcurve" smooth="yes"/>
      <point x="157" y="-8"/>
      <point x="102" y="12"/>
      <point x="82.0" y="30.5" type="qcurve" smooth="yes" name="inserted"/>
      <point x="62" y="49"/>
      <point x="39" y="101"/>
      <point x="39" y="134" type="qcurve" smooth="yes"/>
      <point x="39" y="178"/>
      <point x="75" y="237"/>
      <point x="107.5" y="254.5" type="qcurve" smooth="yes" name="inserted"/>
      <point x="140" y="272"/>
      <point x="231" y="287"/>
      <point x="286" y="287" type="qcurve" smooth="yes"/>
      <point x="300" y="287"/>
      <point x="327" y="287"/>
      <point x="341" y="285" type="qcurve"/>
      <point x="342.5" y="300.0" name="inserted"/>
      <point x="344.0" y="327.0"/>
      <point x="344" y="339" type="qcurve" smooth="yes"/>
      <point x="344" y="394"/>
      <point x="300" y="438"/>
      <point x="242" y="438" type="qcurve" smooth="yes"/>
      <point x="225" y="438"/>
      <point x="186" y="434"/>
      <point x="165.5" y="429.5" type="qcurve" smooth="yes" name="inserted"/>
      <point x="145" y="425"/>
      <point x="108" y="413"/>
      <point x="94" y="405" type="qcurve"/>
    </contour>
    <contour>
      <point x="211" y="62" type="qcurve" smooth="yes"/>
      <point x="239" y="62"/>
      <point x="283" y="77"/>
      <point x="299.0" y="88.5" type="qcurve" smooth="yes" name="inserted"/>
      <point x="315" y="100"/>
      <point x="336" y="128"/>
      <point x="341" y="141" type="qcurve"/>
      <point x="341" y="224" type="line"/>
      <point x="327" y="225"/>
      <point x="298" y="226"/>
      <point x="284" y="226" type="qcurve" smooth="yes"/>
      <point x="253" y="226"/>
      <point x="194" y="219"/>
      <point x="171.5" y="209.5" type="qcurve" smooth="yes" name="inserted"/>
      <point x="149" y="200"/>
      <point x="122" y="167"/>
      <point x="122" y="142" type="qcurve" smooth="yes"/>
      <point x="122" y="107"/>
      <point x="172" y="62"/>
    </contour>
  </outline>
</glyph>
<glyph name="Hbar" format="1">
  <advance width="677"/>
  <unicode hex="0126"/>
  <outline>
    <contour>
      <point x="9" y="587" type="line"/>
      <point x="88" y="587" type="line"/>
      <point x="88" y="700" type="line"/>
      <point x="171" y="700" type="line"/>
      <point x="171" y="587" type="line"/>
      <point x="507" y="587" type="line"/>
      <point x="507" y="700" type="line"/>
      <point x="590" y="700" type="line"/>
      <point x="590" y="587" type="line"/>
      <point x="669" y="587" type="line"/>
      <point x="669" y="523" type="line"/>
      <point x="590" y="523" type="line"/>
      <point x="590" y="0" type="line"/>
      <point x="507" y="0" type="line"/>
      <point x="507" y="321" type="line"/>
      <point x="171" y="321" type="line"/>
      <point x="171" y="0" type="line"/>
      <point x="88" y="0" type="line"/>
      <point x="88" y="523" type="line"/>
      <point x="9" y="523" type="line"/>
    </contour>
    <contour>
      <point x="507" y="395" type="line"/>
      <point x="507" y="523" type="line"/>
      <point x="171" y="523" type="line"/>
      <point x="171" y="395" type="line"/>
    </contour>
  </outline>
</glyph>
<glyph name="hbar" format="1">
  <advance width="549"/>
  <unicode hex="0127"/>
  <outline>
    <contour>
      <point x="-1" y="632" type="line"/>
      <point x="79" y="632" type="line"/>
      <point x="79" y="700" type="line"/>
      <point x="159" y="700" type="line"/>
      <point x="159" y="632" type="line"/>
      <point x="319" y="632" type="line"/>
      <point x="319" y="572" type="line"/>
      <point x="159" y="572" type="line"/>
      <point x="159" y="444" type="line"/>
      <point x="163" y="444" type="line"/>
      <point x="189" y="475"/>
      <point x="262" y="512"/>
      <point x="316" y="512" type="qcurve" smooth="yes"/>
      <point x="358" y="512"/>
      <point x="420" y="493"/>
      <point x="440.5" y="469.0" type="qcurve" smooth="yes" name="inserted"/>
      <point x="461" y="445"/>
      <point x="480" y="364"/>
      <point x="480" y="302" type="qcurve" smooth="yes"/>
      <point x="480" y="0" type="line"/>
      <point x="400" y="0" type="line"/>
      <point x="400" y="285" type="line" smooth="yes"/>
      <point x="400" y="324"/>
      <point x="391" y="383"/>
      <point x="379.0" y="402.5" type="qcurve" smooth="yes" name="inserted"/>
      <point x="367" y="422"/>
      <point x="326" y="442"/>
      <point x="293" y="442" type="qcurve" smooth="yes"/>
      <point x="246" y="442"/>
      <point x="170" y="381"/>
      <point x="159" y="333" type="qcurve"/>
      <point x="159" y="0" type="line"/>
      <point x="79" y="0" type="line"/>
      <point x="79" y="572" type="line"/>
      <point x="-1" y="572" type="line"/>
    </contour>
  </outline>
</glyph>
<glyph name="Lslash" format="1">
  <advance width="517"/>
  <unicode hex="0141"/>
  <outline>
    <contour>
      <point x="15" y="287" type="line"/>
      <point x="85" y="342" type="line"/>
      <point x="85" y="700" type="line"/>
      <point x="168" y="700" type="line"/>
      <point x="168" y="407" type="line"/>
      <point x="275" y="491" type="line"/>
      <point x="275" y="411" type="line"/>
      <point x="168" y="329" type="line"/>
      <point x="168" y="74" type="line"/>
      <point x="499" y="74" type="line"/>
      <point x="499" y="0" type="line"/>
      <point x="85" y="0" type="line"/>
      <point x="85" y="265" type="line"/>
      <point x="15" y="211" type="line"/>
    </contour>
  </outline>
</glyph>
<glyph name="lslash" format="1">
  <advance width="292"/>
  <unicode hex="0142"/>
  <outline>
    <contour>
      <point x="10" y="285" type="line"/>
      <point x="86" y="344" type="line"/>
      <point x="86" y="700" type="line"/>
      <point x="166" y="700" type="line"/>
      <point x="166" y="407" type="line"/>
      <point x="270" y="489" type="line"/>
      <point x="270" y="409" type="line"/>
      <point x="166" y="329" type="line"/>
      <point x="166" y="123" type="line" smooth="yes"/>
      <point x="166" y="88"/>
      <point x="190" y="58"/>
      <point x="212" y="58" type="qcurve" smooth="yes"/>
      <point x="225" y="58"/>
      <point x="255" y="62"/>
      <point x="274" y="69" type="qcurve"/>
      <point x="283" y="6" type="line"/>
      <point x="267" y="-2"/>
      <point x="210" y="-12"/>
      <point x="189" y="-12" type="qcurve" smooth="yes"/>
      <point x="144" y="-12"/>
      <point x="86" y="39"/>
      <point x="86" y="100" type="qcurve" smooth="yes"/>
      <point x="86" y="267" type="line"/>
      <point x="10" y="209" type="line"/>
    </contour>
  </outline>
</glyph>
<glyph name="uogonek" format="1">
  <advance width="539"/>
  <unicode hex="0173"/>
  <outline>
    <contour>
      <point x="149" y="500" type="line"/>
      <point x="149" y="215" type="line" smooth="yes"/>
      <point x="149" y="176"/>
      <point x="158" y="117"/>
      <point x="169.0" y="97.5" type="qcurve" smooth="yes" name="inserted"/>
      <point x="180" y="78"/>
      <point x="218" y="58"/>
      <point x="247" y="58" type="qcurve" smooth="yes"/>
      <point x="274" y="58"/>
      <point x="316" y="75"/>
      <point x="332.5" y="90.0" type="qcurve" smooth="yes" name="inserted"/>
      <point x="349" y="105"/>
      <point x="374" y="144"/>
      <point x="382" y="166" type="qcurve"/>
      <point x="382" y="500" type="line"/>
      <point x="462" y="500" type="line"/>
      <point x="462" y="142" type="line" smooth="yes"/>
      <point x="462" y="106"/>
      <point x="467" y="29"/>
      <point x="473" y="0" type="qcurve"/>
      <point x="455" y="0" type="line"/>
      <point x="425" y="-12"/>
      <point x="392" y="-60"/>
      <point x="394" y="-91" type="qcurve"/>
      <point x="397" y="-112"/>
      <point x="422" y="-138"/>
      <point x="447" y="-138" type="qcurve" smooth="yes"/>
      <point x="456.5" y="-138.0" name="inserted"/>
      <point x="476.0" y="-133.5"/>
      <point x="486" y="-129" type="qcurve"/>
      <point x="497" y="-172" type="line"/>
      <point x="482" y="-184"/>
      <point x="433" y="-195"/>
      <point x="412" y="-195" type="qcurve" smooth="yes"/>
      <point x="368" y="-195"/>
      <point x="315" y="-152"/>
      <point x="312" y="-110" type="qcurve"/>
      <point x="312" y="-69"/>
      <point x="363" y="-9"/>
      <point x="414" y="10" type="qcurve"/>
      <point x="397" y="79" type="line"/>
      <point x="392" y="79" type="line"/>
      <point x="370" y="40"/>
      <point x="289" y="-12"/>
      <point x="232" y="-12" type="qcurve" smooth="yes"/>
      <point x="192" y="-12"/>
      <point x="131" y="7"/>
      <point x="110.5" y="31.0" type="qcurve" smooth="yes" name="inserted"/>
      <point x="90" y="55"/>
      <point x="69" y="136"/>
      <point x="69" y="198" type="qcurve" smooth="yes"/>
      <point x="69" y="500" type="line"/>
    </contour>
  </outline>
</glyph>
<glyph name="longs" format="1">
  <advance width="249"/>
  <unicode hex="017F"/>
  <outline>
    <contour>
      <point x="22" y="500" type="line"/>
      <point x="100" y="500" type="line"/>
      <point x="100" y="528" type="line" smooth="yes"/>
      <point x="100" y="621"/>
      <point x="164" y="706"/>
      <point x="244" y="706" type="qcurve" smooth="yes"/>
      <point x="276" y="706"/>
      <point x="324" y="698"/>
      <point x="351" y="687" type="qcurve"/>
      <point x="333" y="620" type="line"/>
      <point x="310" y="630"/>
      <point x="269" y="636"/>
      <point x="251" y="636" type="qcurve" smooth="yes"/>
      <point x="227" y="636"/>
      <point x="198" y="623"/>
      <point x="191.0" y="609.5" type="qcurve" smooth="yes" name="inserted"/>
      <point x="184" y="596"/>
      <point x="180" y="555"/>
      <point x="180" y="529" type="qcurve" smooth="yes"/>
      <point x="180" y="0" type="line"/>
      <point x="100" y="0" type="line"/>
      <point x="100" y="431" type="line"/>
      <point x="22" y="431" type="line"/>
    </contour>
  </outline>
</glyph>
<glyph name="uni0237" format="1">
  <advance width="267"/>
  <unicode hex="0237"/>
  <outline>
    <contour>
      <point x="93" y="500" type="line"/>
      <point x="173" y="500" type="line"/>
      <point x="173" y="-27" type="line" smooth="yes"/>
      <point x="173" y="-120"/>
      <point x="109" y="-212"/>
      <point x="39" y="-212" type="qcurve" smooth="yes"/>
      <point x="31" y="-212"/>
      <point x="17" y="-211"/>
      <point x="9" y="-210" type="qcurve"/>
      <point x="9" y="-142" type="line"/>
      <point x="37" y="-142"/>
      <point x="70" y="-125"/>
      <point x="79.0" y="-107.0" type="qcurve" smooth="yes" name="inserted"/>
      <point x="88" y="-89"/>
      <point x="93" y="-34"/>
      <point x="93" y="3" type="qcurve" smooth="yes"/>
    </contour>
  </outline>
</glyph>
<glyph name="circumflex" format="1">
  <advance width="386"/>
  <unicode hex="02C6"/>
  <outline>
    <contour>
      <point x="183" y="732" type="line"/>
      <point x="215" y="732" type="line"/>
      <point x="326" y="550" type="line"/>
      <point x="254" y="550" type="line"/>
      <point x="215" y="616" type="line"/>
      <point x="194" y="674" type="line"/>
      <point x="172" y="616" type="line"/>
      <point x="127" y="550" type="line"/>
      <point x="60" y="550" type="line"/>
    </contour>
  </outline>
</glyph>
<glyph name="caron" format="1">
  <advance width="395"/>
  <unicode hex="02C7"/>
  <outline>
    <contour>
      <point x="212" y="550" type="line"/>
      <point x="175" y="550" type="line"/>
      <point x="60" y="732" type="line"/>
      <point x="138" y="732" type="line"/>
      <point x="177" y="666" type="line"/>
      <point x="198" y="608" type="line"/>
      <point x="220" y="666" type="line"/>
      <point x="265" y="732" type="line"/>
      <point x="335" y="732" type="line"/>
    </contour>
  </outline>
</glyph>
<glyph name="dotaccent" format="1">
  <advance width="233"/>
  <unicode hex="02D9"/>
  <outline>
    <contour>
      <point x="60" y="652" type="qcurve" smooth="yes"/>
      <point x="60" y="675"/>
      <point x="91" y="708"/>
      <point x="115" y="708" type="qcurve" smooth="yes"/>
      <point x="139" y="708"/>
      <point x="173" y="675"/>
      <point x="173" y="652" type="qcurve" smooth="yes"/>
      <point x="173" y="629"/>
      <point x="139" y="599"/>
      <point x="115" y="599" type="qcurve" smooth="yes"/>
      <point x="91" y="599"/>
      <point x="60" y="629"/>
    </contour>
  </outline>
</glyph>
<glyph name="ogonek" format="1">
  <advance width="305"/>
  <unicode hex="02DB"/>
  <outline>
    <contour>
      <point x="218" y="10" type="line"/>
      <point x="183" y="-6"/>
      <point x="143" y="-55"/>
      <point x="143" y="-87" type="qcurve" smooth="yes"/>
      <point x="143" y="-107"/>
      <point x="169" y="-138"/>
      <point x="194" y="-138" type="qcurve" smooth="yes"/>
      <point x="203.5" y="-138.0" name="inserted"/>
      <point x="223.5" y="-133.0"/>
      <point x="234" y="-128" type="qcurve"/>
      <point x="245" y="-171" type="line"/>
      <point x="230" y="-183"/>
      <point x="180" y="-195"/>
      <point x="159" y="-195" type="qcurve" smooth="yes"/>
      <point x="114" y="-195"/>
      <point x="60" y="-147"/>
      <point x="60" y="-106" type="qcurve" smooth="yes"/>
      <point x="60" y="-65"/>
      <point x="115" y="-7"/>
      <point x="163" y="10" type="qcurve"/>
    </contour>
  </outline>
</glyph>
<glyph name="pi" format="1">
  <advance width="664"/>
  <unicode hex="03C0"/>
  <outline>
    <contour>
      <point x="514" y="116" type="line" smooth="yes"/>
      <point x="514" y="88"/>
      <point x="532" y="66"/>
      <point x="546" y="66" type="qcurve" smooth="yes"/>
      <point x="556" y="66"/>
      <point x="581" y="70"/>
      <point x="590" y="72" type="qcurve"/>
      <point x="609" y="18" type="line"/>
      <point x="593" y="11"/>
      <point x="546" y="-4"/>
      <point x="516" y="-4" type="qcurve" smooth="yes"/>
      <point x="466" y="-4"/>
      <point x="434" y="54"/>
      <point x="434" y="106" type="qcurve" smooth="yes"/>
      <point x="434" y="430" type="line"/>
      <point x="244" y="430" type="line"/>
      <point x="244" y="0" type="line"/>
      <point x="164" y="0" type="line"/>
      <point x="164" y="430" type="line"/>
      <point x="150" y="430" type="line" smooth="yes"/>
      <point x="129" y="430"/>
      <point x="103" y="407"/>
      <point x="89" y="385" type="qcurve"/>
      <point x="36" y="417" type="line"/>
      <point x="55" y="455"/>
      <point x="111" y="500"/>
      <point x="164" y="500" type="qcurve" smooth="yes"/>
      <point x="597" y="500" type="line"/>
      <point x="597" y="430" type="line"/>
      <point x="514" y="430" type="line"/>
    </contour>
  </outline>
</glyph>
<glyph name="afii10053" format="1">
  <advance width="583"/>
  <unicode hex="0404"/>
  <outline>
    <contour>
      <point x="544" y="29" type="line"/>
      <point x="514" y="6"/>
      <point x="417" y="-12"/>
      <point x="365" y="-12" type="qcurve" smooth="yes"/>
      <point x="302" y="-12"/>
      <point x="190" y="31"/>
      <point x="147.5" y="75.0" type="qcurve" smooth="yes" name="inserted"/>
      <point x="105" y="119"/>
      <point x="56" y="256"/>
      <point x="56" y="350" type="qcurve" smooth="yes"/>
      <point x="56" y="448"/>
      <point x="111" y="585"/>
      <point x="155.0" y="628.5" type="qcurve" smooth="yes" name="inserted"/>
      <point x="199" y="672"/>
      <point x="309" y="712"/>
      <point x="365" y="712" type="qcurve" smooth="yes"/>
      <point x="425" y="712"/>
      <point x="507" y="699"/>
      <point x="534" y="688" type="qcurve"/>
      <point x="514" y="614" type="line"/>
      <point x="491" y="625"/>
      <point x="417" y="638"/>
      <point x="372" y="638" type="qcurve" smooth="yes"/>
      <point x="333" y="638"/>
      <point x="258" y="613"/>
      <point x="226.5" y="584.5" type="qcurve" smooth="yes" name="inserted"/>
      <point x="195" y="556"/>
      <point x="152" y="464"/>
      <point x="145" y="398" type="qcurve"/>
      <point x="451" y="398" type="line"/>
      <point x="451" y="324" type="line"/>
      <point x="144" y="324" type="line"/>
      <point x="147" y="258"/>
      <point x="188" y="160"/>
      <point x="220.5" y="127.5" type="qcurve" smooth="yes" name="inserted"/>
      <point x="253" y="95"/>
      <point x="337" y="62"/>
      <point x="384" y="62" type="qcurve" smooth="yes"/>
      <point x="429" y="62"/>
      <point x="501" y="80"/>
      <point x="523" y="94" type="qcurve"/>
    </contour>
  </outline>
</glyph>
<glyph name="afii10058" format="1">
  <advance width="926"/>
  <unicode hex="0409"/>
  <outline>
    <contour>
      <point x="456" y="626" type="line"/>
      <point x="247" y="626" type="line"/>
      <point x="237" y="426"/>
      <point x="204" y="161"/>
      <point x="171" y="87" type="qcurve" smooth="yes"/>
      <point x="149" y="39"/>
      <point x="89" y="-5"/>
      <point x="54" y="-5" type="qcurve" smooth="yes"/>
      <point x="36" y="-5"/>
      <point x="10" y="0"/>
      <point x="-2" y="5" type="qcurve"/>
      <point x="9" y="77" type="line"/>
      <point x="14.0" y="75.5" name="inserted"/>
      <point x="24.5" y="74.0"/>
      <point x="30" y="74" type="qcurve" smooth="yes"/>
      <point x="47" y="74"/>
      <point x="80" y="96"/>
      <point x="96" y="126" type="qcurve" smooth="yes"/>
      <point x="110" y="153"/>
      <point x="135" y="243"/>
      <point x="144.5" y="312.0" type="qcurve" smooth="yes" name="inserted"/>
      <point x="154" y="381"/>
      <point x="166" y="572"/>
      <point x="169" y="700" type="qcurve"/>
      <point x="539" y="700" type="line"/>
      <point x="539" y="428" type="line"/>
      <point x="544" y="429"/>
      <point x="568" y="432"/>
      <point x="582.0" y="433.0" type="qcurve" smooth="yes" name="inserted"/>
      <point x="596" y="434"/>
      <point x="626" y="436"/>
      <point x="638" y="436" type="qcurve" smooth="yes"/>
      <point x="686" y="436"/>
      <point x="777" y="417"/>
      <point x="812.5" y="393.0" type="qcurve" smooth="yes" name="inserted"/>
      <point x="848" y="369"/>
      <point x="892" y="288"/>
      <point x="892" y="226" type="qcurve" smooth="yes"/>
      <point x="892" y="166"/>
      <point x="850" y="78"/>
      <point x="813.0" y="49.0" type="qcurve" smooth="yes" name="inserted"/>
      <point x="776" y="20"/>
      <point x="677" y="-8"/>
      <point x="619" y="-8" type="qcurve" smooth="yes"/>
      <point x="605" y="-8"/>
      <point x="565" y="-7"/>
      <point x="542.5" y="-5.5" type="qcurve" smooth="yes" name="inserted"/>
      <point x="520" y="-4"/>
      <point x="475" y="2"/>
      <point x="456" y="7" type="qcurve"/>
    </contour>
    <contour>
      <point x="630" y="64" type="qcurve" smooth="yes"/>
      <point x="666" y="64"/>
      <point x="729" y="83"/>
      <point x="753.0" y="102.5" type="qcurve" smooth="yes" name="inserted"/>
      <point x="777" y="122"/>
      <point x="804" y="181"/>
      <point x="804" y="220" type="qcurve" smooth="yes"/>
      <point x="804" y="262"/>
      <point x="774" y="318"/>
      <point x="749.5" y="334.5" type="qcurve" smooth="yes" name="inserted"/>
      <point x="725" y="351"/>
      <point x="661" y="364"/>
      <point x="627" y="364" type="qcurve" smooth="yes"/>
      <point x="618" y="364"/>
      <point x="592" y="362"/>
      <point x="579.0" y="361.0" type="qcurve" smooth="yes" name="inserted"/>
      <point x="566" y="360"/>
      <point x="544" y="356"/>
      <point x="539" y="355" type="qcurve"/>
      <point x="539" y="70" type="line"/>
      <point x="553" y="67"/>
      <point x="605" y="64"/>
    </contour>
  </outline>
</glyph>
<glyph name="afii10060" format="1">
  <advance width="750"/>
  <unicode hex="040B"/>
  <outline>
    <contour>
      <point x="319" y="0" type="line"/>
      <point x="236" y="0" type="line"/>
      <point x="236" y="626" type="line"/>
      <point x="18" y="626" type="line"/>
      <point x="18" y="700" type="line"/>
      <point x="537" y="700" type="line"/>
      <point x="537" y="626" type="line"/>
      <point x="319" y="626" type="line"/>
      <point x="319" y="395" type="line"/>
      <point x="346" y="410"/>
      <point x="435" y="440"/>
      <point x="491" y="440" type="qcurve" smooth="yes"/>
      <point x="533" y="440"/>
      <point x="604" y="421"/>
      <point x="629.0" y="398.5" type="qcurve" smooth="yes" name="inserted"/>
      <point x="654" y="376"/>
      <point x="682" y="300"/>
      <point x="682" y="244" type="qcurve" smooth="yes"/>
      <point x="682" y="0" type="line"/>
      <point x="599" y="0" type="line"/>
      <point x="599" y="229" type="line" smooth="yes"/>
      <point x="599.0" y="297.5" name="inserted"/>
      <point x="537.0" y="366.0"/>
      <point x="475" y="366" type="qcurve" smooth="yes"/>
      <point x="427" y="366"/>
      <point x="345" y="341"/>
      <point x="319" y="320" type="qcurve"/>
    </contour>
  </outline>
</glyph>
<glyph name="afii10145" format="1">
  <advance width="659"/>
  <unicode hex="040F"/>
  <outline>
    <contour>
      <point x="85" y="0" type="line"/>
      <point x="85" y="700" type="line"/>
      <point x="168" y="700" type="line"/>
      <point x="168" y="74" type="line"/>
      <point x="491" y="74" type="line"/>
      <point x="491" y="700" type="line"/>
      <point x="574" y="700" type="line"/>
      <point x="574" y="0" type="line"/>
      <point x="372" y="0" type="line"/>
      <point x="357" y="-179" type="line"/>
      <point x="305" y="-179" type="line"/>
      <point x="285" y="0" type="line"/>
    </contour>
  </outline>
</glyph>
<glyph name="afii10021" format="1">
  <advance width="669"/>
  <unicode hex="0414"/>
  <outline>
    <contour>
      <point x="641" y="-129" type="line"/>
      <point x="584" y="-129" type="line"/>
      <point x="569" y="0" type="line"/>
      <point x="78" y="0" type="line"/>
      <point x="63" y="-129" type="line"/>
      <point x="5" y="-129" type="line"/>
      <point x="5" y="74" type="line"/>
      <point x="76" y="74" type="line"/>
      <point x="84" y="85"/>
      <point x="117" y="166"/>
      <point x="133.5" y="241.5" type="qcurve" smooth="yes" name="inserted"/>
      <point x="150" y="317"/>
      <point x="176" y="544"/>
      <point x="176" y="700" type="qcurve"/>
      <point x="550" y="700" type="line"/>
      <point x="550" y="74" type="line"/>
      <point x="641" y="74" type="line"/>
    </contour>
    <contour>
      <point x="467" y="74" type="line"/>
      <point x="467" y="626" type="line"/>
      <point x="254" y="626" type="line"/>
      <point x="251" y="516"/>
      <point x="234" y="340"/>
      <point x="222.0" y="272.5" type="qcurve" smooth="yes" name="inserted"/>
      <point x="210" y="205"/>
      <point x="180" y="107"/>
      <point x="164" y="74" type="qcurve"/>
    </contour>
  </outline>
</glyph>
<glyph name="afii10026" format="1">
  <advance width="681"/>
  <unicode hex="0418"/>
  <outline>
    <contour>
      <point x="513" y="474" type="line"/>
      <point x="519" y="554" type="line"/>
      <point x="515" y="554" type="line"/>
      <point x="472" y="472" type="line"/>
      <point x="134" y="0" type="line"/>
      <point x="85" y="0" type="line"/>
      <point x="85" y="700" type="line"/>
      <point x="168" y="700" type="line"/>
      <point x="168" y="220" type="line"/>
      <point x="161" y="141" type="line"/>
      <point x="165" y="141" type="line"/>
      <point x="209" y="223" type="line"/>
      <point x="547" y="700" type="line"/>
      <point x="596" y="700" type="line"/>
      <point x="596" y="0" type="line"/>
      <point x="513" y="0" type="line"/>
    </contour>
  </outline>
</glyph>
<glyph name="afii10033" format="1">
  <advance width="659"/>
  <unicode hex="041F"/>
  <outline>
    <contour>
      <point x="491" y="626" type="line"/>
      <point x="168" y="626" type="line"/>
      <point x="168" y="0" type="line"/>
      <point x="85" y="0" type="line"/>
      <point x="85" y="700" type="line"/>
      <point x="574" y="700" type="line"/>
      <point x="574" y="0" type="line"/>
      <point x="491" y="0" type="line"/>
    </contour>
  </outline>
</glyph>
<glyph name="afii10040" format="1">
  <advance width="687"/>
  <unicode hex="0426"/>
  <outline>
    <contour>
      <point x="659" y="-129" type="line"/>
      <point x="602" y="-129" type="line"/>
      <point x="587" y="0" type="line"/>
      <point x="85" y="0" type="line"/>
      <point x="85" y="700" type="line"/>
      <point x="168" y="700" type="line"/>
      <point x="168" y="74" type="line"/>
      <point x="483" y="74" type="line"/>
      <point x="483" y="700" type="line"/>
      <point x="566" y="700" type="line"/>
      <point x="566" y="74" type="line"/>
      <point x="659" y="74" type="line"/>
    </contour>
  </outline>
</glyph>
<glyph name="afii10042" format="1">
  <advance width="877"/>
  <unicode hex="0428"/>
  <outline>
    <contour>
      <point x="85" y="0" type="line"/>
      <point x="85" y="700" type="line"/>
      <point x="168" y="700" type="line"/>
      <point x="168" y="74" type="line"/>
      <point x="397" y="74" type="line"/>
      <point x="397" y="700" type="line"/>
      <point x="480" y="700" type="line"/>
      <point x="480" y="74" type="line"/>
      <point x="709" y="74" type="line"/>
      <point x="709" y="700" type="line"/>
      <point x="792" y="700" type="line"/>
      <point x="792" y="0" type="line"/>
    </contour>
  </outline>
</glyph>
<glyph name="afii10043" format="1">
  <advance width="913"/>
  <unicode hex="0429"/>
  <outline>
    <contour>
      <point x="85" y="0" type="line"/>
      <point x="85" y="700" type="line"/>
      <point x="168" y="700" type="line"/>
      <point x="168" y="74" type="line"/>
      <point x="397" y="74" type="line"/>
      <point x="397" y="700" type="line"/>
      <point x="480" y="700" type="line"/>
      <point x="480" y="74" type="line"/>
      <point x="709" y="74" type="line"/>
      <point x="709" y="700" type="line"/>
      <point x="792" y="700" type="line"/>
      <point x="792" y="74" type="line"/>
      <point x="885" y="74" type="line"/>
      <point x="885" y="-129" type="line"/>
      <point x="827" y="-129" type="line"/>
      <point x="812" y="0" type="line"/>
    </contour>
  </outline>
</glyph>
<glyph name="afii10044" format="1">
  <advance width="630"/>
  <unicode hex="042A"/>
  <outline>
    <contour>
      <point x="159" y="626" type="line"/>
      <point x="-1" y="626" type="line"/>
      <point x="-1" y="700" type="line"/>
      <point x="242" y="700" type="line"/>
      <point x="242" y="428" type="line"/>
      <point x="247" y="429"/>
      <point x="271" y="432"/>
      <point x="285.5" y="433.0" type="qcurve" smooth="yes" name="inserted"/>
      <point x="300" y="434"/>
      <point x="330" y="436"/>
      <point x="342" y="436" type="qcurve" smooth="yes"/>
      <point x="389" y="436"/>
      <point x="480" y="417"/>
      <point x="516.0" y="393.0" type="qcurve" smooth="yes" name="inserted"/>
      <point x="552" y="369"/>
      <point x="596" y="288"/>
      <point x="596" y="226" type="qcurve" smooth="yes"/>
      <point x="596" y="166"/>
      <point x="554" y="78"/>
      <point x="517.0" y="49.0" type="qcurve" smooth="yes" name="inserted"/>
      <point x="480" y="20"/>
      <point x="381" y="-8"/>
      <point x="323" y="-8" type="qcurve" smooth="yes"/>
      <point x="309" y="-8"/>
      <point x="269" y="-7"/>
      <point x="246.5" y="-5.5" type="qcurve" smooth="yes" name="inserted"/>
      <point x="224" y="-4"/>
      <point x="178" y="2"/>
      <point x="159" y="7" type="qcurve"/>
    </contour>
    <contour>
      <point x="334" y="64" type="qcurve" smooth="yes"/>
      <point x="370" y="64"/>
      <point x="433" y="83"/>
      <point x="456.5" y="102.5" type="qcurve" smooth="yes" name="inserted"/>
      <point x="480" y="122"/>
      <point x="508" y="181"/>
      <point x="508" y="220" type="qcurve" smooth="yes"/>
      <point x="508" y="262"/>
      <point x="478" y="318"/>
      <point x="453.0" y="334.5" type="qcurve" smooth="yes" name="inserted"/>
      <point x="428" y="351"/>
      <point x="364" y="364"/>
      <point x="330" y="364" type="qcurve" smooth="yes"/>
      <point x="321" y="364"/>
      <point x="295" y="362"/>
      <point x="282.0" y="361.0" type="qcurve" smooth="yes" name="inserted"/>
      <point x="269" y="360"/>
      <point x="247" y="356"/>
      <point x="242" y="355" type="qcurve"/>
      <point x="242" y="70" type="line"/>
      <point x="256" y="67"/>
      <point x="308" y="64"/>
    </contour>
  </outline>
</glyph>
<glyph name="afii10045" format="1">
  <advance width="769"/>
  <unicode hex="042B"/>
  <outline>
    <contour>
      <point x="601" y="700" type="line"/>
      <point x="684" y="700" type="line"/>
      <point x="684" y="0" type="line"/>
      <point x="601" y="0" type="line"/>
    </contour>
    <contour>
      <point x="85" y="700" type="line"/>
      <point x="168" y="700" type="line"/>
      <point x="168" y="428" type="line"/>
      <point x="173" y="429"/>
      <point x="193" y="432"/>
      <point x="205.0" y="433.0" type="qcurve" smooth="yes" name="inserted"/>
      <point x="217" y="434"/>
      <point x="242" y="436"/>
      <point x="254" y="436" type="qcurve" smooth="yes"/>
      <point x="301" y="436"/>
      <point x="390" y="417"/>
      <point x="424.0" y="393.0" type="qcurve" smooth="yes" name="inserted"/>
      <point x="458" y="369"/>
      <point x="499" y="288"/>
      <point x="499" y="226" type="qcurve" smooth="yes"/>
      <point x="499" y="166"/>
      <point x="461" y="77"/>
      <point x="426.5" y="48.5" type="qcurve" smooth="yes" name="inserted"/>
      <point x="392" y="20"/>
      <point x="296" y="-8"/>
      <point x="238" y="-8" type="qcurve" smooth="yes"/>
      <point x="224" y="-8"/>
      <point x="187" y="-7"/>
      <point x="166.5" y="-5.5" type="qcurve" smooth="yes" name="inserted"/>
      <point x="146" y="-4"/>
      <point x="104" y="2"/>
      <point x="85" y="7" type="qcurve"/>
    </contour>
    <contour>
      <point x="245" y="64" type="qcurve" smooth="yes"/>
      <point x="317" y="64"/>
      <point x="411" y="142"/>
      <point x="411" y="220" type="qcurve" smooth="yes"/>
      <point x="411" y="262"/>
      <point x="383" y="318"/>
      <point x="359.5" y="334.5" type="qcurve" smooth="yes" name="inserted"/>
      <point x="336" y="351"/>
      <point x="275" y="364"/>
      <point x="241" y="364" type="qcurve" smooth="yes"/>
      <point x="223" y="364"/>
      <point x="179" y="358"/>
      <point x="168" y="355" type="qcurve"/>
      <point x="168" y="70" type="line"/>
      <point x="181.5" y="67.0" name="inserted"/>
      <point x="220.0" y="64.0"/>
    </contour>
  </outline>
</glyph>
<glyph name="afii10046" format="1">
  <advance width="555"/>
  <unicode hex="042C"/>
  <outline>
    <contour>
      <point x="85" y="700" type="line"/>
      <point x="168" y="700" type="line"/>
      <point x="168" y="428" type="line"/>
      <point x="173" y="429"/>
      <point x="197" y="432"/>
      <point x="211.0" y="433.0" type="qcurve" smooth="yes" name="inserted"/>
      <point x="225" y="434"/>
      <point x="255" y="436"/>
      <point x="267" y="436" type="qcurve" smooth="yes"/>
      <point x="315" y="436"/>
      <point x="406" y="417"/>
      <point x="441.5" y="393.0" type="qcurve" smooth="yes" name="inserted"/>
      <point x="477" y="369"/>
      <point x="521" y="288"/>
      <point x="521" y="226" type="qcurve" smooth="yes"/>
      <point x="521" y="166"/>
      <point x="479" y="78"/>
      <point x="442.0" y="49.0" type="qcurve" smooth="yes" name="inserted"/>
      <point x="405" y="20"/>
      <point x="306" y="-8"/>
      <point x="248" y="-8" type="qcurve" smooth="yes"/>
      <point x="234" y="-8"/>
      <point x="194" y="-7"/>
      <point x="171.5" y="-5.5" type="qcurve" smooth="yes" name="inserted"/>
      <point x="149" y="-4"/>
      <point x="104" y="2"/>
      <point x="85" y="7" type="qcurve"/>
    </contour>
    <contour>
      <point x="259" y="64" type="qcurve" smooth="yes"/>
      <point x="295" y="64"/>
      <point x="358" y="83"/>
      <point x="382.0" y="102.5" type="qcurve" smooth="yes" name="inserted"/>
      <point x="406" y="122"/>
      <point x="433" y="181"/>
      <point x="433" y="220" type="qcurve" smooth="yes"/>
      <point x="433" y="262"/>
      <point x="403" y="318"/>
      <point x="378.5" y="334.5" type="qcurve" smooth="yes" name="inserted"/>
      <point x="354" y="351"/>
      <point x="290" y="364"/>
      <point x="256" y="364" type="qcurve" smooth="yes"/>
      <point x="247" y="364"/>
      <point x="221" y="362"/>
      <point x="208.0" y="361.0" type="qcurve" smooth="yes" name="inserted"/>
      <point x="195" y="360"/>
      <point x="173" y="356"/>
      <point x="168" y="355" type="qcurve"/>
      <point x="168" y="70" type="line"/>
      <point x="182" y="67"/>
      <point x="234" y="64"/>
    </contour>
  </outline>
</glyph>
<glyph name="afii10047" format="1">
  <advance width="577"/>
  <unicode hex="042D"/>
  <outline>
    <contour>
      <point x="150" y="395" type="line"/>
      <point x="438" y="395" type="line"/>
      <point x="433" y="456"/>
      <point x="395" y="549"/>
      <point x="365.0" y="579.5" type="qcurve" smooth="yes" name="inserted"/>
      <point x="335" y="610"/>
      <point x="256" y="638"/>
      <point x="210" y="638" type="qcurve" smooth="yes"/>
      <point x="163" y="638"/>
      <point x="90" y="622"/>
      <point x="67" y="608" type="qcurve"/>
      <point x="45" y="673" type="line"/>
      <point x="76" y="691"/>
      <point x="168" y="712"/>
      <point x="220" y="712" type="qcurve" smooth="yes"/>
      <point x="284" y="712"/>
      <point x="394" y="672"/>
      <point x="434.5" y="628.5" type="qcurve" smooth="yes" name="inserted"/>
      <point x="475" y="585"/>
      <point x="521" y="447"/>
      <point x="521" y="350" type="qcurve" smooth="yes"/>
      <point x="521" y="252"/>
      <point x="469" y="114"/>
      <point x="424.5" y="70.5" type="qcurve" smooth="yes" name="inserted"/>
      <point x="380" y="27"/>
      <point x="263" y="-12"/>
      <point x="199" y="-12" type="qcurve" smooth="yes"/>
      <point x="149" y="-12"/>
      <point x="72" y="2"/>
      <point x="45" y="13" type="qcurve"/>
      <point x="67" y="86" type="line"/>
      <point x="90" y="75"/>
      <point x="164" y="62"/>
      <point x="204" y="62" type="qcurve" smooth="yes"/>
      <point x="244" y="62"/>
      <point x="325" y="87"/>
      <point x="358.0" y="118.0" type="qcurve" smooth="yes" name="inserted"/>
      <point x="391" y="149"/>
      <point x="435" y="249"/>
      <point x="439" y="321" type="qcurve"/>
      <point x="150" y="321" type="line"/>
    </contour>
  </outline>
</glyph>
<glyph name="afii10048" format="1">
  <advance width="893"/>
  <unicode hex="042E"/>
  <outline>
    <contour>
      <point x="168" y="395" type="line"/>
      <point x="292" y="395" type="line"/>
      <point x="300" y="548"/>
      <point x="438" y="712"/>
      <point x="566" y="712" type="qcurve" smooth="yes"/>
      <point x="639" y="712"/>
      <point x="743" y="660"/>
      <point x="775.0" y="612.5" type="qcurve" smooth="yes" name="inserted"/>
      <point x="807" y="565"/>
      <point x="837" y="432"/>
      <point x="837" y="350" type="qcurve" smooth="yes"/>
      <point x="837" y="175"/>
      <point x="703" y="-12"/>
      <point x="566" y="-12" type="qcurve" smooth="yes"/>
      <point x="497" y="-12"/>
      <point x="395" y="35"/>
      <point x="361.5" y="78.5" type="qcurve" smooth="yes" name="inserted"/>
      <point x="328" y="122"/>
      <point x="294" y="245"/>
      <point x="291" y="321" type="qcurve"/>
      <point x="168" y="321" type="line"/>
      <point x="168" y="0" type="line"/>
      <point x="85" y="0" type="line"/>
      <point x="85" y="700" type="line"/>
      <point x="168" y="700" type="line"/>
    </contour>
    <contour>
      <point x="379" y="350" type="qcurve" smooth="yes"/>
      <point x="379" y="292"/>
      <point x="399" y="188"/>
      <point x="421.0" y="148.5" type="qcurve" smooth="yes" name="inserted"/>
      <point x="443" y="109"/>
      <point x="514" y="62"/>
      <point x="566" y="62" type="qcurve" smooth="yes"/>
      <point x="659" y="62"/>
      <point x="749" y="202"/>
      <point x="749" y="350" type="qcurve" smooth="yes"/>
      <point x="749" y="407"/>
      <point x="731" y="512"/>
      <point x="709.5" y="551.5" type="qcurve" smooth="yes" name="inserted"/>
      <point x="688" y="591"/>
      <point x="618" y="638"/>
      <point x="566" y="638" type="qcurve" smooth="yes"/>
      <point x="473" y="638"/>
      <point x="379" y="497"/>
    </contour>
  </outline>
</glyph>
<glyph name="afii10049" format="1">
  <advance width="569"/>
  <unicode hex="042F"/>
  <outline>
    <contour>
      <point x="484" y="0" type="line"/>
      <point x="401" y="0" type="line"/>
      <point x="401" y="305" type="line"/>
      <point x="298" y="283" type="line"/>
      <point x="124" y="0" type="line"/>
      <point x="26" y="0" type="line"/>
      <point x="182" y="249" type="line"/>
      <point x="243" y="292" type="line"/>
      <point x="207" y="300"/>
      <point x="146" y="333"/>
      <point x="123.5" y="358.5" type="qcurve" smooth="yes" name="inserted"/>
      <point x="101" y="384"/>
      <point x="76" y="452"/>
      <point x="76" y="496" type="qcurve" smooth="yes"/>
      <point x="76" y="557"/>
      <point x="117" y="638"/>
      <point x="152.5" y="662.5" type="qcurve" smooth="yes" name="inserted"/>
      <point x="188" y="687"/>
      <point x="283" y="708"/>
      <point x="336" y="708" type="qcurve" smooth="yes"/>
      <point x="370" y="708"/>
      <point x="447" y="702"/>
      <point x="484" y="693" type="qcurve"/>
    </contour>
    <contour>
      <point x="332" y="636" type="qcurve" smooth="yes"/>
      <point x="299" y="636"/>
      <point x="239" y="623"/>
      <point x="215.5" y="607.0" type="qcurve" smooth="yes" name="inserted"/>
      <point x="192" y="591"/>
      <point x="164" y="537"/>
      <point x="164" y="496" type="qcurve" smooth="yes"/>
      <point x="164" y="458"/>
      <point x="191" y="404"/>
      <point x="214.0" y="386.5" type="qcurve" smooth="yes" name="inserted"/>
      <point x="237" y="369"/>
      <point x="298" y="353"/>
      <point x="333" y="353" type="qcurve" smooth="yes"/>
      <point x="401" y="353" type="line"/>
      <point x="401" y="630" type="line"/>
      <point x="387" y="633"/>
      <point x="357" y="636"/>
    </contour>
  </outline>
</glyph>
<glyph name="afii10078" format="1">
  <advance width="645"/>
  <unicode hex="043C"/>
  <outline>
    <contour>
      <point x="490" y="297" type="line"/>
      <point x="496" y="392" type="line"/>
      <point x="491" y="392" type="line"/>
      <point x="455" y="315" type="line"/>
      <point x="334" y="119" type="line"/>
      <point x="306" y="119" type="line"/>
      <point x="180" y="315" type="line"/>
      <point x="147" y="392" type="line"/>
      <point x="143" y="392" type="line"/>
      <point x="151" y="298" type="line"/>
      <point x="151" y="0" type="line"/>
      <point x="77" y="0" type="line"/>
      <point x="77" y="500" type="line"/>
      <point x="156" y="500" type="line"/>
      <point x="296" y="276" type="line"/>
      <point x="325" y="218" type="line"/>
      <point x="327" y="218" type="line"/>
      <point x="357" y="278" type="line"/>
      <point x="488" y="500" type="line"/>
      <point x="568" y="500" type="line"/>
      <point x="568" y="0" type="line"/>
      <point x="490" y="0" type="line"/>
    </contour>
  </outline>
</glyph>
<glyph name="afii10079" format="1">
  <advance width="540"/>
  <unicode hex="043D"/>
  <outline>
    <contour>
      <point x="383" y="221" type="line"/>
      <point x="157" y="221" type="line"/>
      <point x="157" y="0" type="line"/>
      <point x="77" y="0" type="line"/>
      <point x="77" y="500" type="line"/>
      <point x="157" y="500" type="line"/>
      <point x="157" y="291" type="line"/>
      <point x="383" y="291" type="line"/>
      <point x="383" y="500" type="line"/>
      <point x="463" y="500" type="line"/>
      <point x="463" y="0" type="line"/>
      <point x="383" y="0" type="line"/>
    </contour>
  </outline>
</glyph>
<glyph name="afii10081" format="1">
  <advance width="535"/>
  <unicode hex="043F"/>
  <outline>
    <contour>
      <point x="378" y="430" type="line"/>
      <point x="157" y="430" type="line"/>
      <point x="157" y="0" type="line"/>
      <point x="77" y="0" type="line"/>
      <point x="77" y="500" type="line"/>
      <point x="458" y="500" type="line"/>
      <point x="458" y="0" type="line"/>
      <point x="378" y="0" type="line"/>
    </contour>
  </outline>
</glyph>
<glyph name="afii10088" format="1">
  <advance width="548"/>
  <unicode hex="0446"/>
  <outline>
    <contour>
      <point x="526" y="-127" type="line"/>
      <point x="472" y="-127" type="line"/>
      <point x="457" y="0" type="line"/>
      <point x="77" y="0" type="line"/>
      <point x="77" y="500" type="line"/>
      <point x="157" y="500" type="line"/>
      <point x="157" y="70" type="line"/>
      <point x="374" y="70" type="line"/>
      <point x="374" y="500" type="line"/>
      <point x="454" y="500" type="line"/>
      <point x="454" y="70" type="line"/>
      <point x="526" y="70" type="line"/>
    </contour>
  </outline>
</glyph>
<glyph name="afii10091" format="1">
  <advance width="753"/>
  <unicode hex="0449"/>
  <outline>
    <contour>
      <point x="731" y="-127" type="line"/>
      <point x="677" y="-127" type="line"/>
      <point x="662" y="0" type="line"/>
      <point x="77" y="0" type="line"/>
      <point x="77" y="500" type="line"/>
      <point x="157" y="500" type="line"/>
      <point x="157" y="70" type="line"/>
      <point x="328" y="70" type="line"/>
      <point x="328" y="500" type="line"/>
      <point x="408" y="500" type="line"/>
      <point x="408" y="70" type="line"/>
      <point x="579" y="70" type="line"/>
      <point x="579" y="500" type="line"/>
      <point x="659" y="500" type="line"/>
      <point x="659" y="70" type="line"/>
      <point x="731" y="70" type="line"/>
    </contour>
  </outline>
</glyph>
<glyph name="afii10094" format="1">
  <advance width="464"/>
  <unicode hex="044C"/>
  <outline>
    <contour>
      <point x="157" y="70" type="line"/>
      <point x="175.5" y="67.0" name="inserted"/>
      <point x="211.0" y="64.0"/>
      <point x="228" y="64" type="qcurve" smooth="yes"/>
      <point x="291" y="64"/>
      <point x="351" y="113"/>
      <point x="351" y="158" type="qcurve" smooth="yes"/>
      <point x="351" y="198"/>
      <point x="293" y="250"/>
      <point x="231" y="250" type="qcurve" smooth="yes"/>
      <point x="214" y="250"/>
      <point x="174" y="248"/>
      <point x="157" y="243" type="qcurve"/>
    </contour>
    <contour>
      <point x="157" y="309" type="line"/>
      <point x="181" y="313"/>
      <point x="225" y="316"/>
      <point x="245" y="316" type="qcurve" smooth="yes"/>
      <point x="297" y="316"/>
      <point x="369" y="293"/>
      <point x="391.5" y="273.0" type="qcurve" smooth="yes" name="inserted"/>
      <point x="414" y="253"/>
      <point x="434" y="198"/>
      <point x="434" y="167" type="qcurve" smooth="yes"/>
      <point x="434" y="76"/>
      <point x="325" y="-6"/>
      <point x="210" y="-6" type="qcurve" smooth="yes"/>
      <point x="178.0" y="-6.0" name="inserted"/>
      <point x="111.5" y="-3.0"/>
      <point x="77" y="0" type="qcurve"/>
      <point x="77" y="500" type="line"/>
      <point x="157" y="500" type="line"/>
    </contour>
  </outline>
</glyph>
<glyph name="afii10095" format="1">
  <advance width="465"/>
  <unicode hex="044D"/>
  <outline>
    <contour>
      <point x="121" y="285" type="line"/>
      <point x="333" y="285" type="line"/>
      <point x="328" y="356"/>
      <point x="255" y="442"/>
      <point x="188" y="442" type="qcurve" smooth="yes"/>
      <point x="147" y="442"/>
      <point x="86" y="420"/>
      <point x="67" y="407" type="qcurve"/>
      <point x="39" y="468" type="line"/>
      <point x="70" y="489"/>
      <point x="150" y="512"/>
      <point x="203" y="512" type="qcurve" smooth="yes"/>
      <point x="314" y="512"/>
      <point x="416" y="374"/>
      <point x="416" y="250" type="qcurve" smooth="yes"/>
      <point x="416" y="122"/>
      <point x="298" y="-12"/>
      <point x="193" y="-12" type="qcurve" smooth="yes"/>
      <point x="146" y="-12"/>
      <point x="67" y="3"/>
      <point x="40" y="18" type="qcurve"/>
      <point x="63" y="86" type="line"/>
      <point x="86" y="73"/>
      <point x="153" y="58"/>
      <point x="185" y="58" type="qcurve" smooth="yes"/>
      <point x="255.0" y="57.5" name="inserted"/>
      <point x="329.5" y="138.0"/>
      <point x="334" y="219" type="qcurve"/>
      <point x="121" y="219" type="line"/>
    </contour>
  </outline>
</glyph>
<glyph name="afii10096" format="1">
  <advance width="719"/>
  <unicode hex="044E"/>
  <outline>
    <contour>
      <point x="465" y="-12" type="qcurve" smooth="yes"/>
      <point x="411" y="-12"/>
      <point x="334" y="21"/>
      <point x="309.5" y="51.5" type="qcurve" smooth="yes" name="inserted"/>
      <point x="285" y="82"/>
      <point x="260" y="169"/>
      <point x="257" y="221" type="qcurve"/>
      <point x="157" y="221" type="line"/>
      <point x="157" y="0" type="line"/>
      <point x="77" y="0" type="line"/>
      <point x="77" y="500" type="line"/>
      <point x="157" y="500" type="line"/>
      <point x="157" y="291" type="line"/>
      <point x="258" y="291" type="line"/>
      <point x="266" y="398"/>
      <point x="367" y="512"/>
      <point x="467" y="512" type="qcurve" smooth="yes"/>
      <point x="522" y="512"/>
      <point x="599" y="475"/>
      <point x="623.5" y="440.5" type="qcurve" smooth="yes" name="inserted"/>
      <point x="648" y="406"/>
      <point x="670" y="309"/>
      <point x="670" y="250" type="qcurve" smooth="yes"/>
      <point x="670" y="123"/>
      <point x="569" y="-12"/>
    </contour>
    <contour>
      <point x="336" y="250" type="qcurve" smooth="yes"/>
      <point x="336" y="211"/>
      <point x="348" y="141"/>
      <point x="363.0" y="114.5" type="qcurve" smooth="yes" name="inserted"/>
      <point x="378" y="88"/>
      <point x="429" y="58"/>
      <point x="467" y="58" type="qcurve" smooth="yes"/>
      <point x="531" y="58"/>
      <point x="587" y="151"/>
      <point x="587" y="250" type="qcurve" smooth="yes"/>
      <point x="587" y="289"/>
      <point x="576" y="359"/>
      <point x="562.0" y="385.5" type="qcurve" smooth="yes" name="inserted"/>
      <point x="548" y="412"/>
      <point x="502" y="442"/>
      <point x="466" y="442" type="qcurve" smooth="yes"/>
      <point x="397" y="442"/>
      <point x="336" y="349"/>
    </contour>
  </outline>
</glyph>
<glyph name="afii10099" format="1">
  <advance width="548"/>
  <unicode hex="0452"/>
  <outline>
    <contour>
      <point x="-2" y="600" type="line"/>
      <point x="78" y="600" type="line"/>
      <point x="78" y="700" type="line"/>
      <point x="158" y="700" type="line"/>
      <point x="158" y="600" type="line"/>
      <point x="318" y="600" type="line"/>
      <point x="318" y="540" type="line"/>
      <point x="158" y="540" type="line"/>
      <point x="158" y="392" type="line"/>
      <point x="162" y="392" type="line"/>
      <point x="188" y="423"/>
      <point x="261" y="460"/>
      <point x="315" y="460" type="qcurve" smooth="yes"/>
      <point x="357" y="460"/>
      <point x="419" y="441"/>
      <point x="439.5" y="417.0" type="qcurve" smooth="yes" name="inserted"/>
      <point x="460" y="393"/>
      <point x="479" y="312"/>
      <point x="479" y="250" type="qcurve" smooth="yes"/>
      <point x="479" y="-27" type="line" smooth="yes"/>
      <point x="479" y="-120"/>
      <point x="415" y="-212"/>
      <point x="345" y="-212" type="qcurve" smooth="yes"/>
      <point x="337" y="-212"/>
      <point x="323" y="-211"/>
      <point x="315" y="-210" type="qcurve"/>
      <point x="315" y="-142" type="line"/>
      <point x="343" y="-142"/>
      <point x="376" y="-125"/>
      <point x="385.0" y="-107.5" type="qcurve" smooth="yes" name="inserted"/>
      <point x="394" y="-90"/>
      <point x="399" y="-36"/>
      <point x="399" y="0" type="qcurve" smooth="yes"/>
      <point x="399" y="232" type="line" smooth="yes"/>
      <point x="399" y="271"/>
      <point x="390" y="331"/>
      <point x="378.0" y="350.5" type="qcurve" smooth="yes" name="inserted"/>
      <point x="366" y="370"/>
      <point x="325" y="390"/>
      <point x="292" y="390" type="qcurve" smooth="yes"/>
      <point x="245" y="390"/>
      <point x="169" y="329"/>
      <point x="158" y="281" type="qcurve"/>
      <point x="158" y="0" type="line"/>
      <point x="78" y="0" type="line"/>
      <point x="78" y="540" type="line"/>
      <point x="-2" y="540" type="line"/>
    </contour>
  </outline>
</glyph>
<glyph name="afii10101" format="1">
  <advance width="472"/>
  <unicode hex="0454"/>
  <outline>
    <contour>
      <point x="438" y="33" type="line"/>
      <point x="408" y="11"/>
      <point x="322" y="-12"/>
      <point x="277" y="-12" type="qcurve" smooth="yes"/>
      <point x="219" y="-12"/>
      <point x="134" y="25"/>
      <point x="105.5" y="59.5" type="qcurve" smooth="yes" name="inserted"/>
      <point x="77" y="94"/>
      <point x="49" y="191"/>
      <point x="49" y="250" type="qcurve" smooth="yes"/>
      <point x="49" y="313"/>
      <point x="83" y="411"/>
      <point x="113.5" y="444.0" type="qcurve" smooth="yes" name="inserted"/>
      <point x="144" y="477"/>
      <point x="230" y="512"/>
      <point x="282" y="512" type="qcurve" smooth="yes"/>
      <point x="330" y="512"/>
      <point x="402" y="497"/>
      <point x="429" y="483" type="qcurve"/>
      <point x="406" y="414" type="line"/>
      <point x="383" y="427"/>
      <point x="322" y="442"/>
      <point x="290" y="442" type="qcurve" smooth="yes"/>
      <point x="221" y="443"/>
      <point x="138" y="364"/>
      <point x="130" y="286" type="qcurve"/>
      <point x="366" y="286" type="line"/>
      <point x="366" y="220" type="line"/>
      <point x="129" y="220" type="line"/>
      <point x="132" y="187"/>
      <point x="155" y="127"/>
      <point x="175.5" y="105.0" type="qcurve" smooth="yes" name="inserted"/>
      <point x="196" y="83"/>
      <point x="256" y="58"/>
      <point x="298" y="58" type="qcurve" smooth="yes"/>
      <point x="333" y="58"/>
      <point x="394" y="80"/>
      <point x="412" y="94" type="qcurve"/>
    </contour>
  </outline>
</glyph>
<glyph name="afii10104" format="1">
  <advance width="278"/>
  <unicode hex="0457"/>
  <outline>
    <contour>
      <point x="29" y="653" type="qcurve" smooth="yes"/>
      <point x="29" y="676"/>
      <point x="54" y="703"/>
      <point x="77" y="703" type="qcurve" smooth="yes"/>
      <point x="99" y="703"/>
      <point x="125" y="676"/>
      <point x="125" y="653" type="qcurve" smooth="yes"/>
      <point x="125" y="632"/>
      <point x="99" y="604"/>
      <point x="77" y="604" type="qcurve" smooth="yes"/>
      <point x="54" y="604"/>
      <point x="29" y="632"/>
    </contour>
    <contour>
      <point x="154" y="653" type="qcurve" smooth="yes"/>
      <point x="154" y="676"/>
      <point x="179" y="703"/>
      <point x="201" y="703" type="qcurve" smooth="yes"/>
      <point x="224" y="703"/>
      <point x="250" y="676"/>
      <point x="250" y="653" type="qcurve" smooth="yes"/>
      <point x="250" y="632"/>
      <point x="224" y="604"/>
      <point x="201" y="604" type="qcurve" smooth="yes"/>
      <point x="179" y="604"/>
      <point x="154" y="632"/>
    </contour>
    <contour>
      <point x="98" y="500" type="line"/>
      <point x="178" y="500" type="line"/>
      <point x="178" y="0" type="line"/>
      <point x="98" y="0" type="line"/>
    </contour>
  </outline>
</glyph>
<glyph name="afii10108" format="1">
  <advance width="548"/>
  <unicode hex="045B"/>
  <outline>
    <contour>
      <point x="-2" y="600" type="line"/>
      <point x="78" y="600" type="line"/>
      <point x="78" y="700" type="line"/>
      <point x="158" y="700" type="line"/>
      <point x="158" y="600" type="line"/>
      <point x="318" y="600" type="line"/>
      <point x="318" y="540" type="line"/>
      <point x="158" y="540" type="line"/>
      <point x="158" y="392" type="line"/>
      <point x="162" y="392" type="line"/>
      <point x="188" y="423"/>
      <point x="261" y="460"/>
      <point x="315" y="460" type="qcurve" smooth="yes"/>
      <point x="357" y="460"/>
      <point x="419" y="441"/>
      <point x="439.5" y="417.0" type="qcurve" smooth="yes" name="inserted"/>
      <point x="460" y="393"/>
      <point x="479" y="312"/>
      <point x="479" y="250" type="qcurve" smooth="yes"/>
      <point x="479" y="0" type="line"/>
      <point x="399" y="0" type="line"/>
      <point x="399" y="232" type="line" smooth="yes"/>
      <point x="399" y="271"/>
      <point x="390" y="331"/>
      <point x="378.0" y="350.5" type="qcurve" smooth="yes" name="inserted"/>
      <point x="366" y="370"/>
      <point x="325" y="390"/>
      <point x="292" y="390" type="qcurve" smooth="yes"/>
      <point x="245" y="390"/>
      <point x="169" y="329"/>
      <point x="158" y="281" type="qcurve"/>
      <point x="158" y="0" type="line"/>
      <point x="78" y="0" type="line"/>
      <point x="78" y="540" type="line"/>
      <point x="-2" y="540" type="line"/>
    </contour>
  </outline>
</glyph>
<glyph name="afii10195" format="1">
  <advance width="536"/>
  <unicode hex="0473"/>
  <outline>
    <contour>
      <point x="49" y="250" type="qcurve" smooth="yes"/>
      <point x="49" y="377"/>
      <point x="162" y="512"/>
      <point x="268" y="512" type="qcurve" smooth="yes"/>
      <point x="324" y="512"/>
      <point x="407" y="475"/>
      <point x="434.0" y="440.5" type="qcurve" smooth="yes" name="inserted"/>
      <point x="461" y="406"/>
      <point x="487" y="309"/>
      <point x="487" y="250" type="qcurve" smooth="yes"/>
      <point x="487" y="123"/>
      <point x="374" y="-12"/>
      <point x="268" y="-12" type="qcurve" smooth="yes"/>
      <point x="212" y="-12"/>
      <point x="129" y="25"/>
      <point x="102.0" y="59.5" type="qcurve" smooth="yes" name="inserted"/>
      <point x="75" y="94"/>
      <point x="49" y="191"/>
    </contour>
    <contour>
      <point x="404" y="281" type="line"/>
      <point x="396" y="366"/>
      <point x="325" y="442"/>
      <point x="268" y="442" type="qcurve" smooth="yes"/>
      <point x="242" y="442"/>
      <point x="195" y="426"/>
      <point x="176.5" y="407.0" type="qcurve" smooth="yes" name="inserted"/>
      <point x="158" y="388"/>
      <point x="134" y="326"/>
      <point x="132" y="281" type="qcurve"/>
    </contour>
    <contour>
      <point x="132" y="217" type="line"/>
      <point x="137" y="139"/>
      <point x="213" y="58"/>
      <point x="268" y="58" type="qcurve" smooth="yes"/>
      <point x="293" y="58"/>
      <point x="340" y="74"/>
      <point x="358.5" y="92.0" type="qcurve" smooth="yes" name="inserted"/>
      <point x="377" y="110"/>
      <point x="401" y="171"/>
      <point x="404" y="217" type="qcurve"/>
    </contour>
  </outline>
</glyph>
<glyph name="uni048A" format="1">
  <advance width="690"/>
  <unicode hex="048A"/>
  <outline>
    <contour>
      <point x="513" y="474" type="line"/>
      <point x="519" y="554" type="line"/>
      <point x="515" y="554" type="line"/>
      <point x="472" y="472" type="line"/>
      <point x="134" y="0" type="line"/>
      <point x="85" y="0" type="line"/>
      <point x="85" y="700" type="line"/>
      <point x="168" y="700" type="line"/>
      <point x="168" y="220" type="line"/>
      <point x="161" y="141" type="line"/>
      <point x="165" y="141" type="line"/>
      <point x="209" y="223" type="line"/>
      <point x="547" y="700" type="line"/>
      <point x="596" y="700" type="line"/>
      <point x="596" y="70" type="line"/>
      <point x="700" y="70" type="line"/>
      <point x="700" y="48" type="line"/>
      <point x="609" y="-130" type="line"/>
      <point x="555" y="-130" type="line"/>
      <point x="600" y="0" type="line"/>
      <point x="513" y="0" type="line"/>
    </contour>
    <contour>
      <point x="256" y="870" type="line"/>
      <point x="260" y="833"/>
      <point x="308" y="793"/>
      <point x="348" y="793" type="qcurve" smooth="yes"/>
      <point x="388" y="793"/>
      <point x="435" y="833"/>
      <point x="440" y="869" type="qcurve"/>
      <point x="511" y="852" type="line"/>
      <point x="500" y="798"/>
      <point x="421" y="735"/>
      <point x="347" y="735" type="qcurve" smooth="yes"/>
      <point x="276" y="735"/>
      <point x="185" y="790"/>
      <point x="177" y="850" type="qcurve"/>
    </contour>
  </outline>
</glyph>
<glyph name="uni048B" format="1">
  <advance width="561"/>
  <unicode hex="048B"/>
  <outline>
    <contour>
      <point x="389" y="296" type="line"/>
      <point x="392" y="358" type="line"/>
      <point x="389" y="358" type="line"/>
      <point x="348" y="294" type="line"/>
      <point x="123" y="0" type="line"/>
      <point x="77" y="0" type="line"/>
      <point x="77" y="500" type="line"/>
      <point x="157" y="500" type="line"/>
      <point x="157" y="195" type="line"/>
      <point x="154" y="136" type="line"/>
      <point x="158" y="136" type="line"/>
      <point x="197" y="198" type="line"/>
      <point x="422" y="500" type="line"/>
      <point x="469" y="500" type="line"/>
      <point x="469" y="70" type="line"/>
      <point x="569" y="70" type="line"/>
      <point x="569" y="48" type="line"/>
      <point x="478" y="-127" type="line"/>
      <point x="424" y="-127" type="line"/>
      <point x="469" y="0" type="line"/>
      <point x="389" y="0" type="line"/>
    </contour>
    <contour>
      <point x="192" y="702" type="line"/>
      <point x="202" y="656"/>
      <point x="251" y="620"/>
      <point x="283" y="620" type="qcurve" smooth="yes"/>
      <point x="315" y="620"/>
      <point x="365" y="658"/>
      <point x="374" y="701" type="qcurve"/>
      <point x="434" y="682" type="line"/>
      <point x="425" y="624"/>
      <point x="340" y="562"/>
      <point x="281" y="562" type="qcurve" smooth="yes"/>
      <point x="254" y="562"/>
      <point x="201" y="576"/>
      <point x="180.0" y="590.0" type="qcurve" smooth="yes" name="inserted"/>
      <point x="159" y="604"/>
      <point x="129" y="648"/>
      <point x="124" y="678" type="qcurve"/>
    </contour>
  </outline>
</glyph>
<glyph name="afii10098" format="1">
  <advance width="369"/>
  <unicode hex="0491"/>
  <outline>
    <contour>
      <point x="157" y="430" type="line"/>
      <point x="157" y="0" type="line"/>
      <point x="77" y="0" type="line"/>
      <point x="77" y="500" type="line"/>
      <point x="297" y="500" type="line"/>
      <point x="313" y="634" type="line"/>
      <point x="369" y="634" type="line"/>
      <point x="369" y="430" type="line"/>
    </contour>
  </outline>
</glyph>
<glyph name="uni0492" format="1">
  <advance width="482"/>
  <unicode hex="0492"/>
  <outline>
    <contour>
      <point x="481" y="626" type="line"/>
      <point x="189" y="626" type="line"/>
      <point x="189" y="385" type="line"/>
      <point x="404" y="385" type="line"/>
      <point x="404" y="319" type="line"/>
      <point x="189" y="319" type="line"/>
      <point x="189" y="0" type="line"/>
      <point x="106" y="0" type="line"/>
      <point x="106" y="319" type="line"/>
      <point x="10" y="319" type="line"/>
      <point x="10" y="385" type="line"/>
      <point x="106" y="385" type="line"/>
      <point x="106" y="700" type="line"/>
      <point x="481" y="700" type="line"/>
    </contour>
  </outline>
</glyph>
<glyph name="uni0493" format="1">
  <advance width="385"/>
  <unicode hex="0493"/>
  <outline>
    <contour>
      <point x="382" y="430" type="line"/>
      <point x="170" y="430" type="line"/>
      <point x="170" y="279" type="line"/>
      <point x="339" y="279" type="line"/>
      <point x="339" y="219" type="line"/>
      <point x="170" y="219" type="line"/>
      <point x="170" y="0" type="line"/>
      <point x="90" y="0" type="line"/>
      <point x="90" y="219" type="line"/>
      <point x="0" y="219" type="line"/>
      <point x="0" y="279" type="line"/>
      <point x="90" y="279" type="line"/>
      <point x="90" y="500" type="line"/>
      <point x="382" y="500" type="line"/>
    </contour>
  </outline>
</glyph>
<glyph name="uni0494" format="1">
  <advance width="577"/>
  <unicode hex="0494"/>
  <outline>
    <contour>
      <point x="168" y="0" type="line"/>
      <point x="85" y="0" type="line"/>
      <point x="85" y="700" type="line"/>
      <point x="460" y="700" type="line"/>
      <point x="460" y="626" type="line"/>
      <point x="168" y="626" type="line"/>
      <point x="168" y="355" type="line"/>
      <point x="180" y="359"/>
      <point x="251" y="376"/>
      <point x="306" y="376" type="qcurve" smooth="yes"/>
      <point x="346" y="376"/>
      <point x="423" y="354"/>
      <point x="453.5" y="327.0" type="qcurve" smooth="yes" name="inserted"/>
      <point x="484" y="300"/>
      <point x="521" y="207"/>
      <point x="521" y="136" type="qcurve" smooth="yes"/>
      <point x="521" y="-1"/>
      <point x="400" y="-128"/>
      <point x="288" y="-128" type="qcurve" smooth="yes"/>
      <point x="255" y="-128"/>
      <point x="226" y="-127"/>
      <point x="218" y="-125" type="qcurve"/>
      <point x="218" y="-51" type="line"/>
      <point x="231" y="-53"/>
      <point x="262" y="-54"/>
      <point x="291" y="-54" type="qcurve" smooth="yes"/>
      <point x="362.0" y="-54.0" name="inserted"/>
      <point x="433.0" y="37.5"/>
      <point x="433" y="129" type="qcurve" smooth="yes"/>
      <point x="433" y="180"/>
      <point x="409" y="247"/>
      <point x="388.5" y="267.5" type="qcurve" smooth="yes" name="inserted"/>
      <point x="368" y="288"/>
      <point x="313" y="304"/>
      <point x="281" y="304" type="qcurve" smooth="yes"/>
      <point x="263" y="304"/>
      <point x="228" y="299"/>
      <point x="212.5" y="295.5" type="qcurve" smooth="yes" name="inserted"/>
      <point x="197" y="292"/>
      <point x="174" y="284"/>
      <point x="168" y="282" type="qcurve"/>
    </contour>
  </outline>
</glyph>
<glyph name="uni0497" format="1">
  <advance width="693"/>
  <unicode hex="0497"/>
  <outline>
    <contour>
      <point x="240" y="221" type="line"/>
      <point x="93" y="0" type="line"/>
      <point x="1" y="0" type="line"/>
      <point x="159" y="229" type="line"/>
      <point x="193" y="259" type="line"/>
      <point x="142" y="297" type="line"/>
      <point x="12" y="500" type="line"/>
      <point x="97" y="500" type="line"/>
      <point x="235" y="284" type="line"/>
      <point x="287" y="284" type="line"/>
      <point x="287" y="500" type="line"/>
      <point x="365" y="500" type="line"/>
      <point x="365" y="274" type="line"/>
      <point x="412" y="288" type="line"/>
      <point x="551" y="500" type="line"/>
      <point x="635" y="500" type="line"/>
      <point x="499" y="297" type="line"/>
      <point x="460" y="265" type="line"/>
      <point x="511" y="225" type="line"/>
      <point x="613" y="70" type="line"/>
      <point x="688" y="70" type="line"/>
      <point x="688" y="-127" type="line"/>
      <point x="634" y="-127" type="line"/>
      <point x="619" y="0" type="line"/>
      <point x="564" y="0" type="line"/>
      <point x="417" y="225" type="line"/>
      <point x="365" y="225" type="line"/>
      <point x="365" y="0" type="line"/>
      <point x="287" y="0" type="line"/>
      <point x="287" y="235" type="line"/>
    </contour>
  </outline>
</glyph>
<glyph name="uni0499" format="1">
  <advance width="441"/>
  <unicode hex="0499"/>
  <outline>
    <contour>
      <point x="125" y="223" type="line"/>
      <point x="125" y="288" type="line"/>
      <point x="195" y="288" type="line" smooth="yes"/>
      <point x="213" y="288"/>
      <point x="248" y="300"/>
      <point x="262.0" y="310.5" type="qcurve" smooth="yes" name="inserted"/>
      <point x="276" y="321"/>
      <point x="293" y="350"/>
      <point x="293" y="366" type="qcurve" smooth="yes"/>
      <point x="293" y="405"/>
      <point x="239" y="437"/>
      <point x="185" y="437" type="qcurve" smooth="yes"/>
      <point x="146" y="437"/>
      <point x="81" y="413"/>
      <point x="63" y="402" type="qcurve"/>
      <point x="40" y="464" type="line"/>
      <point x="70" y="481"/>
      <point x="151" y="507"/>
      <point x="207" y="507" type="qcurve" smooth="yes"/>
      <point x="290.0" y="507.0" name="inserted"/>
      <point x="373.0" y="445.5"/>
      <point x="373" y="384" type="qcurve" smooth="yes"/>
      <point x="373" y="349"/>
      <point x="328" y="282"/>
      <point x="286" y="268" type="qcurve"/>
      <point x="286" y="264" type="line"/>
      <point x="345" y="253"/>
      <point x="392" y="191"/>
      <point x="392" y="140" type="qcurve" smooth="yes"/>
      <point x="392" y="86"/>
      <point x="317" y="7"/>
      <point x="241" y="-5" type="qcurve"/>
      <point x="227" y="-179" type="line"/>
      <point x="175" y="-179" type="line"/>
      <point x="156" y="-8" type="line"/>
      <point x="116" y="-6"/>
      <point x="61" y="11"/>
      <point x="38" y="22" type="qcurve"/>
      <point x="61" y="88" type="line"/>
      <point x="84" y="75"/>
      <point x="149" y="61"/>
      <point x="187" y="61" type="qcurve" smooth="yes"/>
      <point x="248" y="61"/>
      <point x="312" y="103"/>
      <point x="312" y="146" type="qcurve" smooth="yes"/>
      <point x="312" y="182"/>
      <point x="252" y="223"/>
      <point x="183" y="223" type="qcurve" smooth="yes"/>
    </contour>
  </outline>
</glyph>
<glyph name="uni049A" format="1">
  <advance width="615"/>
  <unicode hex="049A"/>
  <outline>
    <contour>
      <point x="215" y="324" type="line"/>
      <point x="168" y="324" type="line"/>
      <point x="168" y="0" type="line"/>
      <point x="85" y="0" type="line"/>
      <point x="85" y="700" type="line"/>
      <point x="168" y="700" type="line"/>
      <point x="168" y="374" type="line"/>
      <point x="213" y="388" type="line"/>
      <point x="448" y="700" type="line"/>
      <point x="544" y="700" type="line"/>
      <point x="310" y="399" type="line"/>
      <point x="268" y="366" type="line"/>
      <point x="319" y="326" type="line"/>
      <point x="517" y="74" type="line"/>
      <point x="606" y="74" type="line"/>
      <point x="606" y="-129" type="line"/>
      <point x="548" y="-129" type="line"/>
      <point x="533" y="0" type="line"/>
      <point x="470" y="0" type="line"/>
    </contour>
  </outline>
</glyph>
<glyph name="uni049B" format="1">
  <advance width="506"/>
  <unicode hex="049B"/>
  <outline>
    <contour>
      <point x="203" y="225" type="line"/>
      <point x="157" y="225" type="line"/>
      <point x="157" y="0" type="line"/>
      <point x="77" y="0" type="line"/>
      <point x="77" y="500" type="line"/>
      <point x="157" y="500" type="line"/>
      <point x="157" y="274" type="line"/>
      <point x="200" y="288" type="line"/>
      <point x="360" y="500" type="line"/>
      <point x="447" y="500" type="line"/>
      <point x="292" y="299" type="line"/>
      <point x="250" y="266" type="line"/>
      <point x="302" y="226" type="line"/>
      <point x="417" y="70" type="line"/>
      <point x="496" y="70" type="line"/>
      <point x="496" y="-127" type="line"/>
      <point x="442" y="-127" type="line"/>
      <point x="427" y="0" type="line"/>
      <point x="370" y="0" type="line"/>
    </contour>
  </outline>
</glyph>
<glyph name="uni049C" format="1">
  <advance width="685"/>
  <unicode hex="049C"/>
  <outline>
    <contour>
      <point x="222" y="324" type="line"/>
      <point x="168" y="324" type="line"/>
      <point x="168" y="0" type="line"/>
      <point x="85" y="0" type="line"/>
      <point x="85" y="700" type="line"/>
      <point x="168" y="700" type="line"/>
      <point x="168" y="374" type="line"/>
      <point x="222" y="379" type="line"/>
      <point x="222" y="505" type="line"/>
      <point x="288" y="505" type="line"/>
      <point x="288" y="386" type="line"/>
      <point x="311" y="388" type="line"/>
      <point x="525" y="700" type="line"/>
      <point x="620" y="700" type="line"/>
      <point x="404" y="399" type="line"/>
      <point x="363" y="366" type="line"/>
      <point x="413" y="326" type="line"/>
      <point x="650" y="0" type="line"/>
      <point x="546" y="0" type="line"/>
      <point x="314" y="324" type="line"/>
      <point x="288" y="324" type="line"/>
      <point x="288" y="195" type="line"/>
      <point x="222" y="195" type="line"/>
    </contour>
  </outline>
</glyph>
<glyph name="uni049D" format="1">
  <advance width="538"/>
  <unicode hex="049D"/>
  <outline>
    <contour>
      <point x="205" y="225" type="line"/>
      <point x="157" y="225" type="line"/>
      <point x="157" y="0" type="line"/>
      <point x="77" y="0" type="line"/>
      <point x="77" y="500" type="line"/>
      <point x="157" y="500" type="line"/>
      <point x="157" y="274" type="line"/>
      <point x="205" y="279" type="line"/>
      <point x="205" y="402" type="line"/>
      <point x="268" y="402" type="line"/>
      <point x="268" y="285" type="line"/>
      <point x="294" y="288" type="line"/>
      <point x="425" y="500" type="line"/>
      <point x="509" y="500" type="line"/>
      <point x="383" y="299" type="line"/>
      <point x="339" y="266" type="line"/>
      <point x="391" y="226" type="line"/>
      <point x="529" y="0" type="line"/>
      <point x="435" y="0" type="line"/>
      <point x="297" y="225" type="line"/>
      <point x="268" y="225" type="line"/>
      <point x="268" y="98" type="line"/>
      <point x="205" y="98" type="line"/>
    </contour>
  </outline>
</glyph>
<glyph name="uni049E" format="1">
  <advance width="664"/>
  <unicode hex="049E"/>
  <outline>
    <contour>
      <point x="0" y="636" type="line"/>
      <point x="139" y="636" type="line"/>
      <point x="139" y="700" type="line"/>
      <point x="222" y="700" type="line"/>
      <point x="222" y="636" type="line"/>
      <point x="344" y="636" type="line"/>
      <point x="344" y="570" type="line"/>
      <point x="222" y="570" type="line"/>
      <point x="222" y="374" type="line"/>
      <point x="271" y="388" type="line"/>
      <point x="503" y="700" type="line"/>
      <point x="598" y="700" type="line"/>
      <point x="367" y="399" type="line"/>
      <point x="323" y="366" type="line"/>
      <point x="375" y="326" type="line"/>
      <point x="629" y="0" type="line"/>
      <point x="523" y="0" type="line"/>
      <point x="271" y="324" type="line"/>
      <point x="222" y="324" type="line"/>
      <point x="222" y="0" type="line"/>
      <point x="139" y="0" type="line"/>
      <point x="139" y="568" type="line"/>
      <point x="0" y="568" type="line"/>
    </contour>
  </outline>
</glyph>
<glyph name="uni049F" format="1">
  <advance width="481"/>
  <unicode hex="049F"/>
  <outline>
    <contour>
      <point x="-2" y="613" type="line"/>
      <point x="79" y="613" type="line"/>
      <point x="79" y="700" type="line"/>
      <point x="159" y="700" type="line"/>
      <point x="159" y="613" type="line"/>
      <point x="318" y="613" type="line"/>
      <point x="318" y="553" type="line"/>
      <point x="159" y="553" type="line"/>
      <point x="159" y="274" type="line"/>
      <point x="200" y="288" type="line"/>
      <point x="355" y="500" type="line"/>
      <point x="448" y="500" type="line"/>
      <point x="295" y="299" type="line"/>
      <point x="254" y="266" type="line"/>
      <point x="304" y="226" type="line"/>
      <point x="471" y="0" type="line"/>
      <point x="372" y="0" type="line"/>
      <point x="205" y="225" type="line"/>
      <point x="159" y="225" type="line"/>
      <point x="159" y="0" type="line"/>
      <point x="79" y="0" type="line"/>
      <point x="79" y="553" type="line"/>
      <point x="-2" y="553" type="line"/>
    </contour>
  </outline>
</glyph>
<glyph name="uni04A0" format="1">
  <advance width="685"/>
  <unicode hex="04A0"/>
  <outline>
    <contour>
      <point x="161" y="626" type="line"/>
      <point x="0" y="626" type="line"/>
      <point x="0" y="700" type="line"/>
      <point x="244" y="700" type="line"/>
      <point x="244" y="374" type="line"/>
      <point x="288" y="388" type="line"/>
      <point x="523" y="700" type="line"/>
      <point x="620" y="700" type="line"/>
      <point x="385" y="399" type="line"/>
      <point x="344" y="366" type="line"/>
      <point x="394" y="326" type="line"/>
      <point x="651" y="0" type="line"/>
      <point x="545" y="0" type="line"/>
      <point x="290" y="324" type="line"/>
      <point x="244" y="324" type="line"/>
      <point x="244" y="0" type="line"/>
      <point x="161" y="0" type="line"/>
    </contour>
  </outline>
</glyph>
<glyph name="uni04A1" format="1">
  <advance width="512"/>
  <unicode hex="04A1"/>
  <outline>
    <contour>
      <point x="191" y="274" type="line"/>
      <point x="233" y="288" type="line"/>
      <point x="394" y="500" type="line"/>
      <point x="480" y="500" type="line"/>
      <point x="325" y="299" type="line"/>
      <point x="284" y="266" type="line"/>
      <point x="336" y="226" type="line"/>
      <point x="503" y="0" type="line"/>
      <point x="404" y="0" type="line"/>
      <point x="237" y="225" type="line"/>
      <point x="191" y="225" type="line"/>
      <point x="191" y="0" type="line"/>
      <point x="111" y="0" type="line"/>
      <point x="111" y="430" type="line"/>
      <point x="1" y="430" type="line"/>
      <point x="1" y="500" type="line"/>
      <point x="191" y="500" type="line"/>
    </contour>
  </outline>
</glyph>
<glyph name="uni04A6" format="1">
  <advance width="983"/>
  <unicode hex="04A6"/>
  <outline>
    <contour>
      <point x="574" y="0" type="line"/>
      <point x="491" y="0" type="line"/>
      <point x="491" y="626" type="line"/>
      <point x="168" y="626" type="line"/>
      <point x="168" y="0" type="line"/>
      <point x="85" y="0" type="line"/>
      <point x="85" y="700" type="line"/>
      <point x="574" y="700" type="line"/>
      <point x="574" y="355" type="line"/>
      <point x="585" y="359"/>
      <point x="657" y="376"/>
      <point x="712" y="376" type="qcurve" smooth="yes"/>
      <point x="752" y="376"/>
      <point x="830" y="354"/>
      <point x="860.5" y="327.0" type="qcurve" smooth="yes" name="inserted"/>
      <point x="891" y="300"/>
      <point x="928" y="207"/>
      <point x="928" y="136" type="qcurve" smooth="yes"/>
      <point x="928" y="-1"/>
      <point x="806" y="-128"/>
      <point x="694" y="-128" type="qcurve" smooth="yes"/>
      <point x="661" y="-128"/>
      <point x="632" y="-127"/>
      <point x="624" y="-125" type="qcurve"/>
      <point x="624" y="-51" type="line"/>
      <point x="637" y="-53"/>
      <point x="668" y="-54"/>
      <point x="697" y="-54" type="qcurve" smooth="yes"/>
      <point x="767" y="-54"/>
      <point x="840" y="37"/>
      <point x="840" y="129" type="qcurve" smooth="yes"/>
      <point x="840" y="180"/>
      <point x="816" y="247"/>
      <point x="795.5" y="267.5" type="qcurve" smooth="yes" name="inserted"/>
      <point x="775" y="288"/>
      <point x="719" y="304"/>
      <point x="688" y="304" type="qcurve" smooth="yes"/>
      <point x="670" y="304"/>
      <point x="634" y="299"/>
      <point x="618.5" y="295.5" type="qcurve" smooth="yes" name="inserted"/>
      <point x="603" y="292"/>
      <point x="579" y="284"/>
      <point x="574" y="282" type="qcurve"/>
    </contour>
  </outline>
</glyph>
<glyph name="uni04A8" format="1">
  <advance width="811"/>
  <unicode hex="04A8"/>
  <outline>
    <contour>
      <point x="353" y="638" type="line"/>
      <point x="306" y="638"/>
      <point x="230" y="603"/>
      <point x="202.0" y="567.5" type="qcurve" smooth="yes" name="inserted"/>
      <point x="174" y="532"/>
      <point x="144" y="424"/>
      <point x="144" y="351" type="qcurve" smooth="yes"/>
      <point x="144" y="292"/>
      <point x="178" y="186"/>
      <point x="208.5" y="146.0" type="qcurve" smooth="yes" name="inserted"/>
      <point x="239" y="106"/>
      <point x="323" y="58"/>
      <point x="374" y="58" type="qcurve" smooth="yes"/>
      <point x="385" y="58"/>
      <point x="412" y="60"/>
      <point x="422" y="64" type="qcurve"/>
      <point x="390" y="83"/>
      <point x="340" y="147"/>
      <point x="322.5" y="186.5" type="qcurve" smooth="yes" name="inserted"/>
      <point x="305" y="226"/>
      <point x="286" y="316"/>
      <point x="286" y="362" type="qcurve" smooth="yes"/>
      <point x="286" y="440"/>
      <point x="322" y="558"/>
      <point x="353.0" y="598.5" type="qcurve" smooth="yes" name="inserted"/>
      <point x="384" y="639"/>
      <point x="468" y="680"/>
      <point x="517" y="680" type="qcurve" smooth="yes"/>
      <point x="628" y="680"/>
      <point x="742" y="531"/>
      <point x="742" y="398" type="qcurve" smooth="yes"/>
      <point x="742" y="336"/>
      <point x="717" y="230"/>
      <point x="695.5" y="186.5" type="qcurve" smooth="yes" name="inserted"/>
      <point x="674" y="143"/>
      <point x="617" y="79"/>
      <point x="585" y="60" type="qcurve"/>
      <point x="590" y="59"/>
      <point x="601" y="59"/>
      <point x="606" y="59" type="qcurve" smooth="yes"/>
      <point x="644" y="59"/>
      <point x="702" y="75"/>
      <point x="721" y="89" type="qcurve"/>
      <point x="746" y="24" type="line"/>
      <point x="727" y="9"/>
      <point x="671" y="-12"/>
      <point x="618" y="-12" type="qcurve" smooth="yes"/>
      <point x="586" y="-12"/>
      <point x="522" y="4"/>
      <point x="500" y="18" type="qcurve"/>
      <point x="474" y="3"/>
      <point x="409" y="-12"/>
      <point x="374" y="-12" type="qcurve" smooth="yes"/>
      <point x="300" y="-12"/>
      <point x="182" y="40"/>
      <point x="141.0" y="87.0" type="qcurve" smooth="yes" name="inserted"/>
      <point x="100" y="134"/>
      <point x="56" y="268"/>
      <point x="56" y="350" type="qcurve" smooth="yes"/>
      <point x="56" y="437"/>
      <point x="97" y="572"/>
      <point x="135.0" y="618.0" type="qcurve" smooth="yes" name="inserted"/>
      <point x="173" y="664"/>
      <point x="284" y="712"/>
      <point x="353" y="712" type="qcurve"/>
    </contour>
    <contour>
      <point x="374" y="354" type="qcurve" smooth="yes"/>
      <point x="374" y="319"/>
      <point x="391" y="242"/>
      <point x="407.5" y="205.5" type="qcurve" smooth="yes" name="inserted"/>
      <point x="424" y="169"/>
      <point x="474" y="107"/>
      <point x="508" y="88" type="qcurve"/>
      <point x="535" y="103"/>
      <point x="587" y="158"/>
      <point x="607.5" y="197.0" type="qcurve" smooth="yes" name="inserted"/>
      <point x="628" y="236"/>
      <point x="654" y="334"/>
      <point x="654" y="392" type="qcurve" smooth="yes"/>
      <point x="654" y="437"/>
      <point x="639" y="515"/>
      <point x="623.5" y="544.0" type="qcurve" smooth="yes" name="inserted"/>
      <point x="608" y="573"/>
      <point x="557" y="606"/>
      <point x="521" y="606" type="qcurve" smooth="yes"/>
      <point x="492" y="606"/>
      <point x="439" y="577"/>
      <point x="419.0" y="546.5" type="qcurve" smooth="yes" name="inserted"/>
      <point x="399" y="516"/>
      <point x="374" y="420"/>
    </contour>
  </outline>
</glyph>
<glyph name="uni04AB" format="1">
  <advance width="451"/>
  <unicode hex="04AB"/>
  <outline>
    <contour>
      <point x="418" y="33" type="line"/>
      <point x="396.0" y="17.0" name="inserted"/>
      <point x="341.5" y="-3.5"/>
      <point x="309" y="-8" type="qcurve"/>
      <point x="295" y="-179" type="line"/>
      <point x="243" y="-179" type="line"/>
      <point x="224" y="-10" type="line"/>
      <point x="176" y="-4"/>
      <point x="110" y="38"/>
      <point x="89.0" y="71.5" type="qcurve" smooth="yes" name="inserted"/>
      <point x="68" y="105"/>
      <point x="49" y="196"/>
      <point x="49" y="250" type="qcurve" smooth="yes"/>
      <point x="49" y="377"/>
      <point x="161" y="512"/>
      <point x="266" y="512" type="qcurve" smooth="yes"/>
      <point x="314" y="512"/>
      <point x="381" y="497"/>
      <point x="408" y="483" type="qcurve"/>
      <point x="385" y="414" type="line"/>
      <point x="362" y="427"/>
      <point x="306" y="442"/>
      <point x="274" y="442" type="qcurve" smooth="yes"/>
      <point x="203.0" y="442.0" name="inserted"/>
      <point x="132.0" y="346.0"/>
      <point x="132" y="250" type="qcurve" smooth="yes"/>
      <point x="132" y="212"/>
      <point x="147" y="143"/>
      <point x="164.5" y="116.5" type="qcurve" smooth="yes" name="inserted"/>
      <point x="182" y="90"/>
      <point x="239" y="58"/>
      <point x="281" y="58" type="qcurve" smooth="yes"/>
      <point x="317" y="58"/>
      <point x="374" y="80"/>
      <point x="392" y="94" type="qcurve"/>
    </contour>
  </outline>
</glyph>
<glyph name="uni04AF" format="1">
  <advance width="484"/>
  <unicode hex="04AF"/>
  <outline>
    <contour>
      <point x="10" y="500" type="line"/>
      <point x="102" y="500" type="line"/>
      <point x="224" y="176" type="line"/>
      <point x="252" y="70" type="line"/>
      <point x="253" y="70" type="line"/>
      <point x="278" y="178" type="line"/>
      <point x="388" y="500" type="line"/>
      <point x="474" y="500" type="line"/>
      <point x="287" y="0" type="line"/>
      <point x="287" y="-200" type="line"/>
      <point x="207" y="-200" type="line"/>
      <point x="207" y="0" type="line"/>
    </contour>
  </outline>
</glyph>
<glyph name="uni04B1" format="1">
  <advance width="484"/>
  <unicode hex="04B1"/>
  <outline>
    <contour>
      <point x="84" y="0" type="line"/>
      <point x="207" y="0" type="line"/>
      <point x="10" y="500" type="line"/>
      <point x="102" y="500" type="line"/>
      <point x="224" y="176" type="line"/>
      <point x="252" y="70" type="line"/>
      <point x="253" y="70" type="line"/>
      <point x="278" y="178" type="line"/>
      <point x="388" y="500" type="line"/>
      <point x="474" y="500" type="line"/>
      <point x="287" y="0" type="line"/>
      <point x="404" y="0" type="line"/>
      <point x="404" y="-60" type="line"/>
      <point x="287" y="-60" type="line"/>
      <point x="287" y="-200" type="line"/>
      <point x="207" y="-200" type="line"/>
      <point x="207" y="-60" type="line"/>
      <point x="84" y="-60" type="line"/>
    </contour>
  </outline>
</glyph>
<glyph name="uni04B3" format="1">
  <advance width="525"/>
  <unicode hex="04B3"/>
  <outline>
    <contour>
      <point x="208" y="256" type="line"/>
      <point x="40" y="500" type="line"/>
      <point x="138" y="500" type="line"/>
      <point x="233" y="362" type="line"/>
      <point x="261" y="305" type="line"/>
      <point x="290" y="362" type="line"/>
      <point x="387" y="500" type="line"/>
      <point x="477" y="500" type="line"/>
      <point x="308" y="260" type="line"/>
      <point x="439" y="70" type="line"/>
      <point x="515" y="70" type="line"/>
      <point x="515" y="-127" type="line"/>
      <point x="461" y="-127" type="line"/>
      <point x="446" y="0" type="line"/>
      <point x="392" y="0" type="line"/>
      <point x="286" y="152" type="line"/>
      <point x="256" y="212" type="line"/>
      <point x="225" y="152" type="line"/>
      <point x="117" y="0" type="line"/>
      <point x="28" y="0" type="line"/>
    </contour>
  </outline>
</glyph>
<glyph name="uni04B4" format="1">
  <advance width="838"/>
  <unicode hex="04B4"/>
  <outline>
    <contour>
      <point x="809" y="-129" type="line"/>
      <point x="752" y="-129" type="line"/>
      <point x="737" y="0" type="line"/>
      <point x="236" y="0" type="line"/>
      <point x="236" y="626" type="line"/>
      <point x="18" y="626" type="line"/>
      <point x="18" y="700" type="line"/>
      <point x="501" y="700" type="line"/>
      <point x="501" y="626" type="line"/>
      <point x="319" y="626" type="line"/>
      <point x="319" y="74" type="line"/>
      <point x="634" y="74" type="line"/>
      <point x="634" y="700" type="line"/>
      <point x="717" y="700" type="line"/>
      <point x="717" y="74" type="line"/>
      <point x="809" y="74" type="line"/>
    </contour>
  </outline>
</glyph>
<glyph name="uni04B5" format="1">
  <advance width="631"/>
  <unicode hex="04B5"/>
  <outline>
    <contour>
      <point x="608" y="-127" type="line"/>
      <point x="554" y="-127" type="line"/>
      <point x="539" y="0" type="line"/>
      <point x="159" y="0" type="line"/>
      <point x="159" y="430" type="line"/>
      <point x="2" y="430" type="line"/>
      <point x="2" y="500" type="line"/>
      <point x="389" y="500" type="line"/>
      <point x="389" y="430" type="line"/>
      <point x="239" y="430" type="line"/>
      <point x="239" y="70" type="line"/>
      <point x="456" y="70" type="line"/>
      <point x="456" y="500" type="line"/>
      <point x="536" y="500" type="line"/>
      <point x="536" y="70" type="line"/>
      <point x="608" y="70" type="line"/>
    </contour>
  </outline>
</glyph>
<glyph name="uni04B7" format="1">
  <advance width="509"/>
  <unicode hex="04B7"/>
  <outline>
    <contour>
      <point x="333" y="210" type="line"/>
      <point x="317" y="200"/>
      <point x="254" y="176"/>
      <point x="199" y="176" type="qcurve" smooth="yes"/>
      <point x="162" y="176"/>
      <point x="106" y="192"/>
      <point x="87.0" y="212.0" type="qcurve" smooth="yes" name="inserted"/>
      <point x="68" y="232"/>
      <point x="49" y="298"/>
      <point x="49" y="348" type="qcurve" smooth="yes"/>
      <point x="49" y="500" type="line"/>
      <point x="129" y="500" type="line"/>
      <point x="129" y="364" type="line" smooth="yes"/>
      <point x="129" y="337"/>
      <point x="135" y="294"/>
      <point x="144.0" y="278.0" type="qcurve" smooth="yes" name="inserted"/>
      <point x="153" y="262"/>
      <point x="187" y="246"/>
      <point x="215" y="246" type="qcurve" smooth="yes"/>
      <point x="260" y="246"/>
      <point x="318" y="266"/>
      <point x="333" y="278" type="qcurve"/>
      <point x="333" y="500" type="line"/>
      <point x="413" y="500" type="line"/>
      <point x="413" y="70" type="line"/>
      <point x="487" y="70" type="line"/>
      <point x="487" y="-127" type="line"/>
      <point x="433" y="-127" type="line"/>
      <point x="418" y="0" type="line"/>
      <point x="333" y="0" type="line"/>
    </contour>
  </outline>
</glyph>
<glyph name="uni04BF" format="1">
  <advance width="617"/>
  <unicode hex="04BF"/>
  <outline>
    <contour>
      <point x="551" y="40" type="line"/>
      <point x="526" y="20"/>
      <point x="458" y="-4"/>
      <point x="418" y="-9" type="qcurve"/>
      <point x="404" y="-179" type="line"/>
      <point x="352" y="-179" type="line"/>
      <point x="333" y="-8" type="line"/>
      <point x="244" y="6"/>
      <point x="160" y="137"/>
      <point x="158" y="241" type="qcurve"/>
      <point x="146" y="241" type="line" smooth="yes"/>
      <point x="110" y="241"/>
      <point x="58" y="260"/>
      <point x="41.0" y="276.0" type="qcurve" smooth="yes" name="inserted"/>
      <point x="24" y="292"/>
      <point x="8" y="336"/>
      <point x="8" y="361" type="qcurve" smooth="yes"/>
      <point x="8" y="393"/>
      <point x="28" y="433"/>
      <point x="49" y="454" type="qcurve"/>
      <point x="127" y="454" type="line"/>
      <point x="107" y="440"/>
      <point x="80" y="398"/>
      <point x="80" y="366" type="qcurve" smooth="yes"/>
      <point x="80" y="355"/>
      <point x="87" y="334"/>
      <point x="95.0" y="325.5" type="qcurve" smooth="yes" name="inserted"/>
      <point x="103" y="317"/>
      <point x="130" y="306"/>
      <point x="150" y="306" type="qcurve" smooth="yes"/>
      <point x="153.5" y="306.0" name="inserted"/>
      <point x="159.0" y="306.5"/>
      <point x="161" y="307" type="qcurve"/>
      <point x="173" y="407"/>
      <point x="284" y="512"/>
      <point x="378" y="512" type="qcurve" smooth="yes"/>
      <point x="412" y="512"/>
      <point x="480" y="497"/>
      <point x="507.0" y="476.0" type="qcurve" smooth="yes" name="inserted"/>
      <point x="534" y="455"/>
      <point x="568" y="378"/>
      <point x="568" y="315" type="qcurve" smooth="yes"/>
      <point x="568.0" y="298.5" name="inserted"/>
      <point x="565.0" y="262.0"/>
      <point x="562" y="242" type="qcurve"/>
      <point x="241" y="242" type="line"/>
      <point x="241" y="198"/>
      <point x="259" y="130"/>
      <point x="278.0" y="106.0" type="qcurve" smooth="yes" name="inserted"/>
      <point x="297" y="82"/>
      <point x="358" y="57"/>
      <point x="402" y="57" type="qcurve" smooth="yes"/>
      <point x="436" y="57"/>
      <point x="504" y="81"/>
      <point x="521" y="97" type="qcurve"/>
    </contour>
    <contour>
      <point x="379" y="442" type="qcurve" smooth="yes"/>
      <point x="320" y="442"/>
      <point x="249" y="380"/>
      <point x="242" y="305" type="qcurve"/>
      <point x="490" y="305" type="line"/>
      <point x="490" y="381"/>
      <point x="432" y="442"/>
    </contour>
  </outline>
</glyph>
<glyph name="uni04C3" format="1">
  <advance width="600"/>
  <unicode hex="04C3"/>
  <outline>
    <contour>
      <point x="441" y="71" type="qcurve" smooth="yes"/>
      <point x="441" y="139"/>
      <point x="414" y="235"/>
      <point x="386.0" y="265.5" type="qcurve" smooth="yes" name="inserted"/>
      <point x="358" y="296"/>
      <point x="273" y="324"/>
      <point x="215" y="324" type="qcurve" smooth="yes"/>
      <point x="168" y="324" type="line"/>
      <point x="168" y="0" type="line"/>
      <point x="85" y="0" type="line"/>
      <point x="85" y="700" type="line"/>
      <point x="168" y="700" type="line"/>
      <point x="168" y="374" type="line"/>
      <point x="213" y="388" type="line"/>
      <point x="448" y="700" type="line"/>
      <point x="544" y="700" type="line"/>
      <point x="320" y="414" type="line"/>
      <point x="263" y="376" type="line"/>
      <point x="326" y="376" type="line"/>
      <point x="379" y="364"/>
      <point x="454" y="320"/>
      <point x="478.0" y="284.5" type="qcurve" smooth="yes" name="inserted"/>
      <point x="502" y="249"/>
      <point x="524" y="146"/>
      <point x="524" y="74" type="qcurve" smooth="yes"/>
      <point x="524" y="56" type="line" smooth="yes"/>
      <point x="524" y="-16"/>
      <point x="497" y="-118"/>
      <point x="471.5" y="-150.0" type="qcurve" smooth="yes" name="inserted"/>
      <point x="446" y="-182"/>
      <point x="374" y="-211"/>
      <point x="329" y="-211" type="qcurve" smooth="yes"/>
      <point x="322" y="-211"/>
      <point x="309" y="-211"/>
      <point x="301" y="-210" type="qcurve"/>
      <point x="301" y="-137" type="line"/>
      <point x="341" y="-137"/>
      <point x="394" y="-115"/>
      <point x="410.5" y="-90.5" type="qcurve" smooth="yes" name="inserted"/>
      <point x="427" y="-66"/>
      <point x="441" y="13"/>
    </contour>
  </outline>
</glyph>
<glyph name="uni04CA" format="1">
  <advance width="556"/>
  <unicode hex="04CA"/>
  <outline>
    <contour>
      <point x="383" y="221" type="line"/>
      <point x="157" y="221" type="line"/>
      <point x="157" y="0" type="line"/>
      <point x="77" y="0" type="line"/>
      <point x="77" y="500" type="line"/>
      <point x="157" y="500" type="line"/>
      <point x="157" y="291" type="line"/>
      <point x="383" y="291" type="line"/>
      <point x="383" y="500" type="line"/>
      <point x="463" y="500" type="line"/>
      <point x="463" y="70" type="line"/>
      <point x="563" y="70" type="line"/>
      <point x="563" y="48" type="line"/>
      <point x="472" y="-130" type="line"/>
      <point x="418" y="-127" type="line"/>
      <point x="463" y="0" type="line"/>
      <point x="383" y="0" type="line"/>
    </contour>
  </outline>
</glyph>
<glyph name="uni04D8" format="1">
  <advance width="639"/>
  <unicode hex="04D8"/>
  <outline>
    <contour>
      <point x="145" y="322" type="line"/>
      <point x="143" y="308"/>
      <point x="141" y="283"/>
      <point x="141" y="269" type="qcurve" smooth="yes"/>
      <point x="141" y="228"/>
      <point x="160" y="152"/>
      <point x="180.0" y="123.0" type="qcurve" smooth="yes" name="inserted"/>
      <point x="200" y="94"/>
      <point x="263" y="58"/>
      <point x="307" y="58" type="qcurve" smooth="yes"/>
      <point x="400" y="58"/>
      <point x="499" y="191"/>
      <point x="500" y="322" type="qcurve"/>
    </contour>
    <contour>
      <point x="500" y="392" type="line"/>
      <point x="491" y="520"/>
      <point x="388" y="638"/>
      <point x="285" y="638" type="qcurve" smooth="yes"/>
      <point x="262" y="638"/>
      <point x="216" y="630"/>
      <point x="195.5" y="624.0" type="qcurve" smooth="yes" name="inserted"/>
      <point x="175" y="618"/>
      <point x="141" y="604"/>
      <point x="130" y="597" type="qcurve"/>
      <point x="109" y="664" type="line"/>
      <point x="139" y="682"/>
      <point x="239" y="712"/>
      <point x="301" y="712" type="qcurve" smooth="yes"/>
      <point x="368" y="712"/>
      <point x="473" y="671"/>
      <point x="509.0" y="627.5" type="qcurve" smooth="yes" name="inserted"/>
      <point x="545" y="584"/>
      <point x="583" y="446"/>
      <point x="583" y="350" type="qcurve" smooth="yes"/>
      <point x="583" y="177"/>
      <point x="445" y="-12"/>
      <point x="306" y="-12" type="qcurve" smooth="yes"/>
      <point x="244" y="-12"/>
      <point x="149" y="29"/>
      <point x="117.0" y="66.5" type="qcurve" smooth="yes" name="inserted"/>
      <point x="85" y="104"/>
      <point x="53" y="212"/>
      <point x="53" y="279" type="qcurve" smooth="yes"/>
      <point x="53" y="305"/>
      <point x="58" y="362"/>
      <point x="63" y="392" type="qcurve"/>
    </contour>
  </outline>
</glyph>
<glyph name="afii10846" format="1">
  <advance width="507"/>
  <unicode hex="04D9"/>
  <outline>
    <contour>
      <point x="65" y="460" type="line"/>
      <point x="95" y="484"/>
      <point x="186" y="512"/>
      <point x="237" y="512" type="qcurve" smooth="yes"/>
      <point x="294" y="512"/>
      <point x="378" y="475"/>
      <point x="405.0" y="440.5" type="qcurve" smooth="yes" name="inserted"/>
      <point x="432" y="406"/>
      <point x="458" y="309"/>
      <point x="458" y="250" type="qcurve" smooth="yes"/>
      <point x="458" y="123"/>
      <point x="346" y="-12"/>
      <point x="246" y="-12" type="qcurve" smooth="yes"/>
      <point x="213" y="-12"/>
      <point x="143" y="8"/>
      <point x="114.5" y="33.0" type="qcurve" smooth="yes" name="inserted"/>
      <point x="86" y="58"/>
      <point x="49" y="143"/>
      <point x="49" y="208" type="qcurve" smooth="yes"/>
      <point x="49" y="224"/>
      <point x="52" y="257"/>
      <point x="54" y="276" type="qcurve"/>
      <point x="380" y="276" type="line"/>
      <point x="375" y="361"/>
      <point x="302" y="442"/>
      <point x="214" y="442" type="qcurve" smooth="yes"/>
      <point x="180" y="442"/>
      <point x="113" y="418"/>
      <point x="95" y="402" type="qcurve"/>
    </contour>
    <contour>
      <point x="248" y="58" type="qcurve" smooth="yes"/>
      <point x="303" y="58"/>
      <point x="378" y="136"/>
      <point x="378" y="213" type="qcurve"/>
      <point x="127" y="213" type="line"/>
      <point x="127" y="198" type="line" smooth="yes"/>
      <point x="127" y="128"/>
      <point x="196" y="58"/>
    </contour>
  </outline>
</glyph>
<glyph name="uni04E0" format="1">
  <advance width="563"/>
  <unicode hex="04E0"/>
  <outline>
    <contour>
      <point x="230" y="62" type="qcurve" smooth="yes"/>
      <point x="269" y="62"/>
      <point x="338" y="82"/>
      <point x="363.5" y="100.5" type="qcurve" smooth="yes" name="inserted"/>
      <point x="389" y="119"/>
      <point x="418" y="172"/>
      <point x="418" y="205" type="qcurve" smooth="yes"/>
      <point x="418" y="275"/>
      <point x="311" y="341"/>
      <point x="217" y="341" type="qcurve" smooth="yes"/>
      <point x="129" y="341" type="line"/>
      <point x="129" y="368" type="line"/>
      <point x="315" y="592" type="line"/>
      <point x="359" y="635" type="line"/>
      <point x="297" y="626" type="line"/>
      <point x="57" y="626" type="line"/>
      <point x="57" y="700" type="line"/>
      <point x="472" y="700" type="line"/>
      <point x="472" y="670" type="line"/>
      <point x="272" y="431" type="line"/>
      <point x="237" y="402" type="line"/>
      <point x="237" y="398" type="line"/>
      <point x="271" y="407" type="line"/>
      <point x="321" y="407"/>
      <point x="405" y="380"/>
      <point x="435.0" y="355.0" type="qcurve" smooth="yes" name="inserted"/>
      <point x="465" y="330"/>
      <point x="498" y="258"/>
      <point x="498" y="213" type="qcurve" smooth="yes"/>
      <point x="498" y="159"/>
      <point x="457" y="76"/>
      <point x="421.0" y="47.0" type="qcurve" smooth="yes" name="inserted"/>
      <point x="385" y="18"/>
      <point x="287" y="-12"/>
      <point x="229" y="-12" type="qcurve" smooth="yes"/>
      <point x="207" y="-12"/>
      <point x="157" y="-7"/>
      <point x="133.0" y="-2.0" type="qcurve" smooth="yes" name="inserted"/>
      <point x="109" y="3"/>
      <point x="68" y="15"/>
      <point x="55" y="23" type="qcurve"/>
      <point x="76" y="96" type="line"/>
      <point x="87" y="90"/>
      <point x="123" y="77"/>
      <point x="144.5" y="72.5" type="qcurve" smooth="yes" name="inserted"/>
      <point x="166" y="68"/>
      <point x="210" y="62"/>
    </contour>
  </outline>
</glyph>
<glyph name="uni04E1" format="1">
  <advance width="475"/>
  <unicode hex="04E1"/>
  <outline>
    <contour>
      <point x="188" y="-142" type="qcurve" smooth="yes"/>
      <point x="222" y="-142"/>
      <point x="281" y="-121"/>
      <point x="302.5" y="-102.5" type="qcurve" smooth="yes" name="inserted"/>
      <point x="324" y="-84"/>
      <point x="348" y="-30"/>
      <point x="348" y="3" type="qcurve" smooth="yes"/>
      <point x="348" y="73"/>
      <point x="262" y="141"/>
      <point x="188" y="141" type="qcurve" smooth="yes"/>
      <point x="115" y="141" type="line"/>
      <point x="115" y="167" type="line"/>
      <point x="259" y="391" type="line"/>
      <point x="304" y="434" type="line"/>
      <point x="240" y="426" type="line"/>
      <point x="42" y="426" type="line"/>
      <point x="42" y="500" type="line"/>
      <point x="401" y="500" type="line"/>
      <point x="401" y="471" type="line"/>
      <point x="242" y="233" type="line"/>
      <point x="208" y="204" type="line"/>
      <point x="208" y="200" type="line"/>
      <point x="240" y="208" type="line"/>
      <point x="280" y="208"/>
      <point x="348" y="181"/>
      <point x="373.0" y="155.5" type="qcurve" smooth="yes" name="inserted"/>
      <point x="398" y="130"/>
      <point x="426" y="58"/>
      <point x="426" y="14" type="qcurve" smooth="yes"/>
      <point x="426" y="-40"/>
      <point x="389" y="-124"/>
      <point x="356.0" y="-153.0" type="qcurve" smooth="yes" name="inserted"/>
      <point x="323" y="-182"/>
      <point x="235" y="-212"/>
      <point x="184" y="-212" type="qcurve" smooth="yes"/>
      <point x="139" y="-212"/>
      <point x="68" y="-198"/>
      <point x="39" y="-185" type="qcurve"/>
      <point x="62" y="-114" type="line"/>
      <point x="86" y="-126"/>
      <point x="148" y="-142"/>
    </contour>
  </outline>
</glyph>
<glyph name="uni04F7" format="1">
  <advance width="369"/>
  <unicode hex="04F7"/>
  <outline>
    <contour>
      <point x="77" y="500" type="line"/>
      <point x="369" y="500" type="line"/>
      <point x="369" y="430" type="line"/>
      <point x="157" y="430" type="line"/>
      <point x="157" y="70" type="line"/>
      <point x="231" y="70" type="line"/>
      <point x="231" y="-127" type="line"/>
      <point x="177" y="-127" type="line"/>
      <point x="162" y="0" type="line"/>
      <point x="77" y="0" type="line"/>
    </contour>
  </outline>
</glyph>
